G04 #@! TF.GenerationSoftware,KiCad,Pcbnew,5.1.5+dfsg1-2build2*
G04 #@! TF.CreationDate,2022-02-15T20:08:37+01:00*
G04 #@! TF.ProjectId,LIN_DISCO3,4c494e5f-4449-4534-934f-332e6b696361,rev?*
G04 #@! TF.SameCoordinates,Original*
G04 #@! TF.FileFunction,Paste,Top*
G04 #@! TF.FilePolarity,Positive*
%FSLAX46Y46*%
G04 Gerber Fmt 4.6, Leading zero omitted, Abs format (unit mm)*
G04 Created by KiCad (PCBNEW 5.1.5+dfsg1-2build2) date 2022-02-15 20:08:37*
%MOMM*%
%LPD*%
G04 APERTURE LIST*
%ADD10R,1.300000X1.700000*%
%ADD11C,0.100000*%
%ADD12R,1.500000X2.000000*%
%ADD13R,3.800000X2.000000*%
%ADD14R,0.900000X0.800000*%
%ADD15R,1.700000X1.300000*%
G04 APERTURE END LIST*
D10*
X181102000Y-70993000D03*
X177602000Y-70993000D03*
D11*
G36*
X175999505Y-76390204D02*
G01*
X176023773Y-76393804D01*
X176047572Y-76399765D01*
X176070671Y-76408030D01*
X176092850Y-76418520D01*
X176113893Y-76431132D01*
X176133599Y-76445747D01*
X176151777Y-76462223D01*
X176168253Y-76480401D01*
X176182868Y-76500107D01*
X176195480Y-76521150D01*
X176205970Y-76543329D01*
X176214235Y-76566428D01*
X176220196Y-76590227D01*
X176223796Y-76614495D01*
X176225000Y-76638999D01*
X176225000Y-77539001D01*
X176223796Y-77563505D01*
X176220196Y-77587773D01*
X176214235Y-77611572D01*
X176205970Y-77634671D01*
X176195480Y-77656850D01*
X176182868Y-77677893D01*
X176168253Y-77697599D01*
X176151777Y-77715777D01*
X176133599Y-77732253D01*
X176113893Y-77746868D01*
X176092850Y-77759480D01*
X176070671Y-77769970D01*
X176047572Y-77778235D01*
X176023773Y-77784196D01*
X175999505Y-77787796D01*
X175975001Y-77789000D01*
X175324999Y-77789000D01*
X175300495Y-77787796D01*
X175276227Y-77784196D01*
X175252428Y-77778235D01*
X175229329Y-77769970D01*
X175207150Y-77759480D01*
X175186107Y-77746868D01*
X175166401Y-77732253D01*
X175148223Y-77715777D01*
X175131747Y-77697599D01*
X175117132Y-77677893D01*
X175104520Y-77656850D01*
X175094030Y-77634671D01*
X175085765Y-77611572D01*
X175079804Y-77587773D01*
X175076204Y-77563505D01*
X175075000Y-77539001D01*
X175075000Y-76638999D01*
X175076204Y-76614495D01*
X175079804Y-76590227D01*
X175085765Y-76566428D01*
X175094030Y-76543329D01*
X175104520Y-76521150D01*
X175117132Y-76500107D01*
X175131747Y-76480401D01*
X175148223Y-76462223D01*
X175166401Y-76445747D01*
X175186107Y-76431132D01*
X175207150Y-76418520D01*
X175229329Y-76408030D01*
X175252428Y-76399765D01*
X175276227Y-76393804D01*
X175300495Y-76390204D01*
X175324999Y-76389000D01*
X175975001Y-76389000D01*
X175999505Y-76390204D01*
G37*
G36*
X173949505Y-76390204D02*
G01*
X173973773Y-76393804D01*
X173997572Y-76399765D01*
X174020671Y-76408030D01*
X174042850Y-76418520D01*
X174063893Y-76431132D01*
X174083599Y-76445747D01*
X174101777Y-76462223D01*
X174118253Y-76480401D01*
X174132868Y-76500107D01*
X174145480Y-76521150D01*
X174155970Y-76543329D01*
X174164235Y-76566428D01*
X174170196Y-76590227D01*
X174173796Y-76614495D01*
X174175000Y-76638999D01*
X174175000Y-77539001D01*
X174173796Y-77563505D01*
X174170196Y-77587773D01*
X174164235Y-77611572D01*
X174155970Y-77634671D01*
X174145480Y-77656850D01*
X174132868Y-77677893D01*
X174118253Y-77697599D01*
X174101777Y-77715777D01*
X174083599Y-77732253D01*
X174063893Y-77746868D01*
X174042850Y-77759480D01*
X174020671Y-77769970D01*
X173997572Y-77778235D01*
X173973773Y-77784196D01*
X173949505Y-77787796D01*
X173925001Y-77789000D01*
X173274999Y-77789000D01*
X173250495Y-77787796D01*
X173226227Y-77784196D01*
X173202428Y-77778235D01*
X173179329Y-77769970D01*
X173157150Y-77759480D01*
X173136107Y-77746868D01*
X173116401Y-77732253D01*
X173098223Y-77715777D01*
X173081747Y-77697599D01*
X173067132Y-77677893D01*
X173054520Y-77656850D01*
X173044030Y-77634671D01*
X173035765Y-77611572D01*
X173029804Y-77587773D01*
X173026204Y-77563505D01*
X173025000Y-77539001D01*
X173025000Y-76638999D01*
X173026204Y-76614495D01*
X173029804Y-76590227D01*
X173035765Y-76566428D01*
X173044030Y-76543329D01*
X173054520Y-76521150D01*
X173067132Y-76500107D01*
X173081747Y-76480401D01*
X173098223Y-76462223D01*
X173116401Y-76445747D01*
X173136107Y-76431132D01*
X173157150Y-76418520D01*
X173179329Y-76408030D01*
X173202428Y-76399765D01*
X173226227Y-76393804D01*
X173250495Y-76390204D01*
X173274999Y-76389000D01*
X173925001Y-76389000D01*
X173949505Y-76390204D01*
G37*
D12*
X178294000Y-65634000D03*
X182894000Y-65634000D03*
X180594000Y-65634000D03*
D13*
X180594000Y-59334000D03*
D11*
G36*
X167744505Y-65849204D02*
G01*
X167768773Y-65852804D01*
X167792572Y-65858765D01*
X167815671Y-65867030D01*
X167837850Y-65877520D01*
X167858893Y-65890132D01*
X167878599Y-65904747D01*
X167896777Y-65921223D01*
X167913253Y-65939401D01*
X167927868Y-65959107D01*
X167940480Y-65980150D01*
X167950970Y-66002329D01*
X167959235Y-66025428D01*
X167965196Y-66049227D01*
X167968796Y-66073495D01*
X167970000Y-66097999D01*
X167970000Y-66998001D01*
X167968796Y-67022505D01*
X167965196Y-67046773D01*
X167959235Y-67070572D01*
X167950970Y-67093671D01*
X167940480Y-67115850D01*
X167927868Y-67136893D01*
X167913253Y-67156599D01*
X167896777Y-67174777D01*
X167878599Y-67191253D01*
X167858893Y-67205868D01*
X167837850Y-67218480D01*
X167815671Y-67228970D01*
X167792572Y-67237235D01*
X167768773Y-67243196D01*
X167744505Y-67246796D01*
X167720001Y-67248000D01*
X167069999Y-67248000D01*
X167045495Y-67246796D01*
X167021227Y-67243196D01*
X166997428Y-67237235D01*
X166974329Y-67228970D01*
X166952150Y-67218480D01*
X166931107Y-67205868D01*
X166911401Y-67191253D01*
X166893223Y-67174777D01*
X166876747Y-67156599D01*
X166862132Y-67136893D01*
X166849520Y-67115850D01*
X166839030Y-67093671D01*
X166830765Y-67070572D01*
X166824804Y-67046773D01*
X166821204Y-67022505D01*
X166820000Y-66998001D01*
X166820000Y-66097999D01*
X166821204Y-66073495D01*
X166824804Y-66049227D01*
X166830765Y-66025428D01*
X166839030Y-66002329D01*
X166849520Y-65980150D01*
X166862132Y-65959107D01*
X166876747Y-65939401D01*
X166893223Y-65921223D01*
X166911401Y-65904747D01*
X166931107Y-65890132D01*
X166952150Y-65877520D01*
X166974329Y-65867030D01*
X166997428Y-65858765D01*
X167021227Y-65852804D01*
X167045495Y-65849204D01*
X167069999Y-65848000D01*
X167720001Y-65848000D01*
X167744505Y-65849204D01*
G37*
G36*
X165694505Y-65849204D02*
G01*
X165718773Y-65852804D01*
X165742572Y-65858765D01*
X165765671Y-65867030D01*
X165787850Y-65877520D01*
X165808893Y-65890132D01*
X165828599Y-65904747D01*
X165846777Y-65921223D01*
X165863253Y-65939401D01*
X165877868Y-65959107D01*
X165890480Y-65980150D01*
X165900970Y-66002329D01*
X165909235Y-66025428D01*
X165915196Y-66049227D01*
X165918796Y-66073495D01*
X165920000Y-66097999D01*
X165920000Y-66998001D01*
X165918796Y-67022505D01*
X165915196Y-67046773D01*
X165909235Y-67070572D01*
X165900970Y-67093671D01*
X165890480Y-67115850D01*
X165877868Y-67136893D01*
X165863253Y-67156599D01*
X165846777Y-67174777D01*
X165828599Y-67191253D01*
X165808893Y-67205868D01*
X165787850Y-67218480D01*
X165765671Y-67228970D01*
X165742572Y-67237235D01*
X165718773Y-67243196D01*
X165694505Y-67246796D01*
X165670001Y-67248000D01*
X165019999Y-67248000D01*
X164995495Y-67246796D01*
X164971227Y-67243196D01*
X164947428Y-67237235D01*
X164924329Y-67228970D01*
X164902150Y-67218480D01*
X164881107Y-67205868D01*
X164861401Y-67191253D01*
X164843223Y-67174777D01*
X164826747Y-67156599D01*
X164812132Y-67136893D01*
X164799520Y-67115850D01*
X164789030Y-67093671D01*
X164780765Y-67070572D01*
X164774804Y-67046773D01*
X164771204Y-67022505D01*
X164770000Y-66998001D01*
X164770000Y-66097999D01*
X164771204Y-66073495D01*
X164774804Y-66049227D01*
X164780765Y-66025428D01*
X164789030Y-66002329D01*
X164799520Y-65980150D01*
X164812132Y-65959107D01*
X164826747Y-65939401D01*
X164843223Y-65921223D01*
X164861401Y-65904747D01*
X164881107Y-65890132D01*
X164902150Y-65877520D01*
X164924329Y-65867030D01*
X164947428Y-65858765D01*
X164971227Y-65852804D01*
X164995495Y-65849204D01*
X165019999Y-65848000D01*
X165670001Y-65848000D01*
X165694505Y-65849204D01*
G37*
D10*
X177165000Y-68453000D03*
X173665000Y-68453000D03*
D11*
G36*
X161974703Y-78694722D02*
G01*
X161989264Y-78696882D01*
X162003543Y-78700459D01*
X162017403Y-78705418D01*
X162030710Y-78711712D01*
X162043336Y-78719280D01*
X162055159Y-78728048D01*
X162066066Y-78737934D01*
X162075952Y-78748841D01*
X162084720Y-78760664D01*
X162092288Y-78773290D01*
X162098582Y-78786597D01*
X162103541Y-78800457D01*
X162107118Y-78814736D01*
X162109278Y-78829297D01*
X162110000Y-78844000D01*
X162110000Y-79144000D01*
X162109278Y-79158703D01*
X162107118Y-79173264D01*
X162103541Y-79187543D01*
X162098582Y-79201403D01*
X162092288Y-79214710D01*
X162084720Y-79227336D01*
X162075952Y-79239159D01*
X162066066Y-79250066D01*
X162055159Y-79259952D01*
X162043336Y-79268720D01*
X162030710Y-79276288D01*
X162017403Y-79282582D01*
X162003543Y-79287541D01*
X161989264Y-79291118D01*
X161974703Y-79293278D01*
X161960000Y-79294000D01*
X160210000Y-79294000D01*
X160195297Y-79293278D01*
X160180736Y-79291118D01*
X160166457Y-79287541D01*
X160152597Y-79282582D01*
X160139290Y-79276288D01*
X160126664Y-79268720D01*
X160114841Y-79259952D01*
X160103934Y-79250066D01*
X160094048Y-79239159D01*
X160085280Y-79227336D01*
X160077712Y-79214710D01*
X160071418Y-79201403D01*
X160066459Y-79187543D01*
X160062882Y-79173264D01*
X160060722Y-79158703D01*
X160060000Y-79144000D01*
X160060000Y-78844000D01*
X160060722Y-78829297D01*
X160062882Y-78814736D01*
X160066459Y-78800457D01*
X160071418Y-78786597D01*
X160077712Y-78773290D01*
X160085280Y-78760664D01*
X160094048Y-78748841D01*
X160103934Y-78737934D01*
X160114841Y-78728048D01*
X160126664Y-78719280D01*
X160139290Y-78711712D01*
X160152597Y-78705418D01*
X160166457Y-78700459D01*
X160180736Y-78696882D01*
X160195297Y-78694722D01*
X160210000Y-78694000D01*
X161960000Y-78694000D01*
X161974703Y-78694722D01*
G37*
G36*
X161974703Y-77424722D02*
G01*
X161989264Y-77426882D01*
X162003543Y-77430459D01*
X162017403Y-77435418D01*
X162030710Y-77441712D01*
X162043336Y-77449280D01*
X162055159Y-77458048D01*
X162066066Y-77467934D01*
X162075952Y-77478841D01*
X162084720Y-77490664D01*
X162092288Y-77503290D01*
X162098582Y-77516597D01*
X162103541Y-77530457D01*
X162107118Y-77544736D01*
X162109278Y-77559297D01*
X162110000Y-77574000D01*
X162110000Y-77874000D01*
X162109278Y-77888703D01*
X162107118Y-77903264D01*
X162103541Y-77917543D01*
X162098582Y-77931403D01*
X162092288Y-77944710D01*
X162084720Y-77957336D01*
X162075952Y-77969159D01*
X162066066Y-77980066D01*
X162055159Y-77989952D01*
X162043336Y-77998720D01*
X162030710Y-78006288D01*
X162017403Y-78012582D01*
X162003543Y-78017541D01*
X161989264Y-78021118D01*
X161974703Y-78023278D01*
X161960000Y-78024000D01*
X160210000Y-78024000D01*
X160195297Y-78023278D01*
X160180736Y-78021118D01*
X160166457Y-78017541D01*
X160152597Y-78012582D01*
X160139290Y-78006288D01*
X160126664Y-77998720D01*
X160114841Y-77989952D01*
X160103934Y-77980066D01*
X160094048Y-77969159D01*
X160085280Y-77957336D01*
X160077712Y-77944710D01*
X160071418Y-77931403D01*
X160066459Y-77917543D01*
X160062882Y-77903264D01*
X160060722Y-77888703D01*
X160060000Y-77874000D01*
X160060000Y-77574000D01*
X160060722Y-77559297D01*
X160062882Y-77544736D01*
X160066459Y-77530457D01*
X160071418Y-77516597D01*
X160077712Y-77503290D01*
X160085280Y-77490664D01*
X160094048Y-77478841D01*
X160103934Y-77467934D01*
X160114841Y-77458048D01*
X160126664Y-77449280D01*
X160139290Y-77441712D01*
X160152597Y-77435418D01*
X160166457Y-77430459D01*
X160180736Y-77426882D01*
X160195297Y-77424722D01*
X160210000Y-77424000D01*
X161960000Y-77424000D01*
X161974703Y-77424722D01*
G37*
G36*
X161974703Y-76154722D02*
G01*
X161989264Y-76156882D01*
X162003543Y-76160459D01*
X162017403Y-76165418D01*
X162030710Y-76171712D01*
X162043336Y-76179280D01*
X162055159Y-76188048D01*
X162066066Y-76197934D01*
X162075952Y-76208841D01*
X162084720Y-76220664D01*
X162092288Y-76233290D01*
X162098582Y-76246597D01*
X162103541Y-76260457D01*
X162107118Y-76274736D01*
X162109278Y-76289297D01*
X162110000Y-76304000D01*
X162110000Y-76604000D01*
X162109278Y-76618703D01*
X162107118Y-76633264D01*
X162103541Y-76647543D01*
X162098582Y-76661403D01*
X162092288Y-76674710D01*
X162084720Y-76687336D01*
X162075952Y-76699159D01*
X162066066Y-76710066D01*
X162055159Y-76719952D01*
X162043336Y-76728720D01*
X162030710Y-76736288D01*
X162017403Y-76742582D01*
X162003543Y-76747541D01*
X161989264Y-76751118D01*
X161974703Y-76753278D01*
X161960000Y-76754000D01*
X160210000Y-76754000D01*
X160195297Y-76753278D01*
X160180736Y-76751118D01*
X160166457Y-76747541D01*
X160152597Y-76742582D01*
X160139290Y-76736288D01*
X160126664Y-76728720D01*
X160114841Y-76719952D01*
X160103934Y-76710066D01*
X160094048Y-76699159D01*
X160085280Y-76687336D01*
X160077712Y-76674710D01*
X160071418Y-76661403D01*
X160066459Y-76647543D01*
X160062882Y-76633264D01*
X160060722Y-76618703D01*
X160060000Y-76604000D01*
X160060000Y-76304000D01*
X160060722Y-76289297D01*
X160062882Y-76274736D01*
X160066459Y-76260457D01*
X160071418Y-76246597D01*
X160077712Y-76233290D01*
X160085280Y-76220664D01*
X160094048Y-76208841D01*
X160103934Y-76197934D01*
X160114841Y-76188048D01*
X160126664Y-76179280D01*
X160139290Y-76171712D01*
X160152597Y-76165418D01*
X160166457Y-76160459D01*
X160180736Y-76156882D01*
X160195297Y-76154722D01*
X160210000Y-76154000D01*
X161960000Y-76154000D01*
X161974703Y-76154722D01*
G37*
G36*
X161974703Y-74884722D02*
G01*
X161989264Y-74886882D01*
X162003543Y-74890459D01*
X162017403Y-74895418D01*
X162030710Y-74901712D01*
X162043336Y-74909280D01*
X162055159Y-74918048D01*
X162066066Y-74927934D01*
X162075952Y-74938841D01*
X162084720Y-74950664D01*
X162092288Y-74963290D01*
X162098582Y-74976597D01*
X162103541Y-74990457D01*
X162107118Y-75004736D01*
X162109278Y-75019297D01*
X162110000Y-75034000D01*
X162110000Y-75334000D01*
X162109278Y-75348703D01*
X162107118Y-75363264D01*
X162103541Y-75377543D01*
X162098582Y-75391403D01*
X162092288Y-75404710D01*
X162084720Y-75417336D01*
X162075952Y-75429159D01*
X162066066Y-75440066D01*
X162055159Y-75449952D01*
X162043336Y-75458720D01*
X162030710Y-75466288D01*
X162017403Y-75472582D01*
X162003543Y-75477541D01*
X161989264Y-75481118D01*
X161974703Y-75483278D01*
X161960000Y-75484000D01*
X160210000Y-75484000D01*
X160195297Y-75483278D01*
X160180736Y-75481118D01*
X160166457Y-75477541D01*
X160152597Y-75472582D01*
X160139290Y-75466288D01*
X160126664Y-75458720D01*
X160114841Y-75449952D01*
X160103934Y-75440066D01*
X160094048Y-75429159D01*
X160085280Y-75417336D01*
X160077712Y-75404710D01*
X160071418Y-75391403D01*
X160066459Y-75377543D01*
X160062882Y-75363264D01*
X160060722Y-75348703D01*
X160060000Y-75334000D01*
X160060000Y-75034000D01*
X160060722Y-75019297D01*
X160062882Y-75004736D01*
X160066459Y-74990457D01*
X160071418Y-74976597D01*
X160077712Y-74963290D01*
X160085280Y-74950664D01*
X160094048Y-74938841D01*
X160103934Y-74927934D01*
X160114841Y-74918048D01*
X160126664Y-74909280D01*
X160139290Y-74901712D01*
X160152597Y-74895418D01*
X160166457Y-74890459D01*
X160180736Y-74886882D01*
X160195297Y-74884722D01*
X160210000Y-74884000D01*
X161960000Y-74884000D01*
X161974703Y-74884722D01*
G37*
G36*
X161974703Y-73614722D02*
G01*
X161989264Y-73616882D01*
X162003543Y-73620459D01*
X162017403Y-73625418D01*
X162030710Y-73631712D01*
X162043336Y-73639280D01*
X162055159Y-73648048D01*
X162066066Y-73657934D01*
X162075952Y-73668841D01*
X162084720Y-73680664D01*
X162092288Y-73693290D01*
X162098582Y-73706597D01*
X162103541Y-73720457D01*
X162107118Y-73734736D01*
X162109278Y-73749297D01*
X162110000Y-73764000D01*
X162110000Y-74064000D01*
X162109278Y-74078703D01*
X162107118Y-74093264D01*
X162103541Y-74107543D01*
X162098582Y-74121403D01*
X162092288Y-74134710D01*
X162084720Y-74147336D01*
X162075952Y-74159159D01*
X162066066Y-74170066D01*
X162055159Y-74179952D01*
X162043336Y-74188720D01*
X162030710Y-74196288D01*
X162017403Y-74202582D01*
X162003543Y-74207541D01*
X161989264Y-74211118D01*
X161974703Y-74213278D01*
X161960000Y-74214000D01*
X160210000Y-74214000D01*
X160195297Y-74213278D01*
X160180736Y-74211118D01*
X160166457Y-74207541D01*
X160152597Y-74202582D01*
X160139290Y-74196288D01*
X160126664Y-74188720D01*
X160114841Y-74179952D01*
X160103934Y-74170066D01*
X160094048Y-74159159D01*
X160085280Y-74147336D01*
X160077712Y-74134710D01*
X160071418Y-74121403D01*
X160066459Y-74107543D01*
X160062882Y-74093264D01*
X160060722Y-74078703D01*
X160060000Y-74064000D01*
X160060000Y-73764000D01*
X160060722Y-73749297D01*
X160062882Y-73734736D01*
X160066459Y-73720457D01*
X160071418Y-73706597D01*
X160077712Y-73693290D01*
X160085280Y-73680664D01*
X160094048Y-73668841D01*
X160103934Y-73657934D01*
X160114841Y-73648048D01*
X160126664Y-73639280D01*
X160139290Y-73631712D01*
X160152597Y-73625418D01*
X160166457Y-73620459D01*
X160180736Y-73616882D01*
X160195297Y-73614722D01*
X160210000Y-73614000D01*
X161960000Y-73614000D01*
X161974703Y-73614722D01*
G37*
G36*
X161974703Y-72344722D02*
G01*
X161989264Y-72346882D01*
X162003543Y-72350459D01*
X162017403Y-72355418D01*
X162030710Y-72361712D01*
X162043336Y-72369280D01*
X162055159Y-72378048D01*
X162066066Y-72387934D01*
X162075952Y-72398841D01*
X162084720Y-72410664D01*
X162092288Y-72423290D01*
X162098582Y-72436597D01*
X162103541Y-72450457D01*
X162107118Y-72464736D01*
X162109278Y-72479297D01*
X162110000Y-72494000D01*
X162110000Y-72794000D01*
X162109278Y-72808703D01*
X162107118Y-72823264D01*
X162103541Y-72837543D01*
X162098582Y-72851403D01*
X162092288Y-72864710D01*
X162084720Y-72877336D01*
X162075952Y-72889159D01*
X162066066Y-72900066D01*
X162055159Y-72909952D01*
X162043336Y-72918720D01*
X162030710Y-72926288D01*
X162017403Y-72932582D01*
X162003543Y-72937541D01*
X161989264Y-72941118D01*
X161974703Y-72943278D01*
X161960000Y-72944000D01*
X160210000Y-72944000D01*
X160195297Y-72943278D01*
X160180736Y-72941118D01*
X160166457Y-72937541D01*
X160152597Y-72932582D01*
X160139290Y-72926288D01*
X160126664Y-72918720D01*
X160114841Y-72909952D01*
X160103934Y-72900066D01*
X160094048Y-72889159D01*
X160085280Y-72877336D01*
X160077712Y-72864710D01*
X160071418Y-72851403D01*
X160066459Y-72837543D01*
X160062882Y-72823264D01*
X160060722Y-72808703D01*
X160060000Y-72794000D01*
X160060000Y-72494000D01*
X160060722Y-72479297D01*
X160062882Y-72464736D01*
X160066459Y-72450457D01*
X160071418Y-72436597D01*
X160077712Y-72423290D01*
X160085280Y-72410664D01*
X160094048Y-72398841D01*
X160103934Y-72387934D01*
X160114841Y-72378048D01*
X160126664Y-72369280D01*
X160139290Y-72361712D01*
X160152597Y-72355418D01*
X160166457Y-72350459D01*
X160180736Y-72346882D01*
X160195297Y-72344722D01*
X160210000Y-72344000D01*
X161960000Y-72344000D01*
X161974703Y-72344722D01*
G37*
G36*
X161974703Y-71074722D02*
G01*
X161989264Y-71076882D01*
X162003543Y-71080459D01*
X162017403Y-71085418D01*
X162030710Y-71091712D01*
X162043336Y-71099280D01*
X162055159Y-71108048D01*
X162066066Y-71117934D01*
X162075952Y-71128841D01*
X162084720Y-71140664D01*
X162092288Y-71153290D01*
X162098582Y-71166597D01*
X162103541Y-71180457D01*
X162107118Y-71194736D01*
X162109278Y-71209297D01*
X162110000Y-71224000D01*
X162110000Y-71524000D01*
X162109278Y-71538703D01*
X162107118Y-71553264D01*
X162103541Y-71567543D01*
X162098582Y-71581403D01*
X162092288Y-71594710D01*
X162084720Y-71607336D01*
X162075952Y-71619159D01*
X162066066Y-71630066D01*
X162055159Y-71639952D01*
X162043336Y-71648720D01*
X162030710Y-71656288D01*
X162017403Y-71662582D01*
X162003543Y-71667541D01*
X161989264Y-71671118D01*
X161974703Y-71673278D01*
X161960000Y-71674000D01*
X160210000Y-71674000D01*
X160195297Y-71673278D01*
X160180736Y-71671118D01*
X160166457Y-71667541D01*
X160152597Y-71662582D01*
X160139290Y-71656288D01*
X160126664Y-71648720D01*
X160114841Y-71639952D01*
X160103934Y-71630066D01*
X160094048Y-71619159D01*
X160085280Y-71607336D01*
X160077712Y-71594710D01*
X160071418Y-71581403D01*
X160066459Y-71567543D01*
X160062882Y-71553264D01*
X160060722Y-71538703D01*
X160060000Y-71524000D01*
X160060000Y-71224000D01*
X160060722Y-71209297D01*
X160062882Y-71194736D01*
X160066459Y-71180457D01*
X160071418Y-71166597D01*
X160077712Y-71153290D01*
X160085280Y-71140664D01*
X160094048Y-71128841D01*
X160103934Y-71117934D01*
X160114841Y-71108048D01*
X160126664Y-71099280D01*
X160139290Y-71091712D01*
X160152597Y-71085418D01*
X160166457Y-71080459D01*
X160180736Y-71076882D01*
X160195297Y-71074722D01*
X160210000Y-71074000D01*
X161960000Y-71074000D01*
X161974703Y-71074722D01*
G37*
G36*
X161974703Y-69804722D02*
G01*
X161989264Y-69806882D01*
X162003543Y-69810459D01*
X162017403Y-69815418D01*
X162030710Y-69821712D01*
X162043336Y-69829280D01*
X162055159Y-69838048D01*
X162066066Y-69847934D01*
X162075952Y-69858841D01*
X162084720Y-69870664D01*
X162092288Y-69883290D01*
X162098582Y-69896597D01*
X162103541Y-69910457D01*
X162107118Y-69924736D01*
X162109278Y-69939297D01*
X162110000Y-69954000D01*
X162110000Y-70254000D01*
X162109278Y-70268703D01*
X162107118Y-70283264D01*
X162103541Y-70297543D01*
X162098582Y-70311403D01*
X162092288Y-70324710D01*
X162084720Y-70337336D01*
X162075952Y-70349159D01*
X162066066Y-70360066D01*
X162055159Y-70369952D01*
X162043336Y-70378720D01*
X162030710Y-70386288D01*
X162017403Y-70392582D01*
X162003543Y-70397541D01*
X161989264Y-70401118D01*
X161974703Y-70403278D01*
X161960000Y-70404000D01*
X160210000Y-70404000D01*
X160195297Y-70403278D01*
X160180736Y-70401118D01*
X160166457Y-70397541D01*
X160152597Y-70392582D01*
X160139290Y-70386288D01*
X160126664Y-70378720D01*
X160114841Y-70369952D01*
X160103934Y-70360066D01*
X160094048Y-70349159D01*
X160085280Y-70337336D01*
X160077712Y-70324710D01*
X160071418Y-70311403D01*
X160066459Y-70297543D01*
X160062882Y-70283264D01*
X160060722Y-70268703D01*
X160060000Y-70254000D01*
X160060000Y-69954000D01*
X160060722Y-69939297D01*
X160062882Y-69924736D01*
X160066459Y-69910457D01*
X160071418Y-69896597D01*
X160077712Y-69883290D01*
X160085280Y-69870664D01*
X160094048Y-69858841D01*
X160103934Y-69847934D01*
X160114841Y-69838048D01*
X160126664Y-69829280D01*
X160139290Y-69821712D01*
X160152597Y-69815418D01*
X160166457Y-69810459D01*
X160180736Y-69806882D01*
X160195297Y-69804722D01*
X160210000Y-69804000D01*
X161960000Y-69804000D01*
X161974703Y-69804722D01*
G37*
G36*
X161974703Y-68534722D02*
G01*
X161989264Y-68536882D01*
X162003543Y-68540459D01*
X162017403Y-68545418D01*
X162030710Y-68551712D01*
X162043336Y-68559280D01*
X162055159Y-68568048D01*
X162066066Y-68577934D01*
X162075952Y-68588841D01*
X162084720Y-68600664D01*
X162092288Y-68613290D01*
X162098582Y-68626597D01*
X162103541Y-68640457D01*
X162107118Y-68654736D01*
X162109278Y-68669297D01*
X162110000Y-68684000D01*
X162110000Y-68984000D01*
X162109278Y-68998703D01*
X162107118Y-69013264D01*
X162103541Y-69027543D01*
X162098582Y-69041403D01*
X162092288Y-69054710D01*
X162084720Y-69067336D01*
X162075952Y-69079159D01*
X162066066Y-69090066D01*
X162055159Y-69099952D01*
X162043336Y-69108720D01*
X162030710Y-69116288D01*
X162017403Y-69122582D01*
X162003543Y-69127541D01*
X161989264Y-69131118D01*
X161974703Y-69133278D01*
X161960000Y-69134000D01*
X160210000Y-69134000D01*
X160195297Y-69133278D01*
X160180736Y-69131118D01*
X160166457Y-69127541D01*
X160152597Y-69122582D01*
X160139290Y-69116288D01*
X160126664Y-69108720D01*
X160114841Y-69099952D01*
X160103934Y-69090066D01*
X160094048Y-69079159D01*
X160085280Y-69067336D01*
X160077712Y-69054710D01*
X160071418Y-69041403D01*
X160066459Y-69027543D01*
X160062882Y-69013264D01*
X160060722Y-68998703D01*
X160060000Y-68984000D01*
X160060000Y-68684000D01*
X160060722Y-68669297D01*
X160062882Y-68654736D01*
X160066459Y-68640457D01*
X160071418Y-68626597D01*
X160077712Y-68613290D01*
X160085280Y-68600664D01*
X160094048Y-68588841D01*
X160103934Y-68577934D01*
X160114841Y-68568048D01*
X160126664Y-68559280D01*
X160139290Y-68551712D01*
X160152597Y-68545418D01*
X160166457Y-68540459D01*
X160180736Y-68536882D01*
X160195297Y-68534722D01*
X160210000Y-68534000D01*
X161960000Y-68534000D01*
X161974703Y-68534722D01*
G37*
G36*
X171274703Y-68534722D02*
G01*
X171289264Y-68536882D01*
X171303543Y-68540459D01*
X171317403Y-68545418D01*
X171330710Y-68551712D01*
X171343336Y-68559280D01*
X171355159Y-68568048D01*
X171366066Y-68577934D01*
X171375952Y-68588841D01*
X171384720Y-68600664D01*
X171392288Y-68613290D01*
X171398582Y-68626597D01*
X171403541Y-68640457D01*
X171407118Y-68654736D01*
X171409278Y-68669297D01*
X171410000Y-68684000D01*
X171410000Y-68984000D01*
X171409278Y-68998703D01*
X171407118Y-69013264D01*
X171403541Y-69027543D01*
X171398582Y-69041403D01*
X171392288Y-69054710D01*
X171384720Y-69067336D01*
X171375952Y-69079159D01*
X171366066Y-69090066D01*
X171355159Y-69099952D01*
X171343336Y-69108720D01*
X171330710Y-69116288D01*
X171317403Y-69122582D01*
X171303543Y-69127541D01*
X171289264Y-69131118D01*
X171274703Y-69133278D01*
X171260000Y-69134000D01*
X169510000Y-69134000D01*
X169495297Y-69133278D01*
X169480736Y-69131118D01*
X169466457Y-69127541D01*
X169452597Y-69122582D01*
X169439290Y-69116288D01*
X169426664Y-69108720D01*
X169414841Y-69099952D01*
X169403934Y-69090066D01*
X169394048Y-69079159D01*
X169385280Y-69067336D01*
X169377712Y-69054710D01*
X169371418Y-69041403D01*
X169366459Y-69027543D01*
X169362882Y-69013264D01*
X169360722Y-68998703D01*
X169360000Y-68984000D01*
X169360000Y-68684000D01*
X169360722Y-68669297D01*
X169362882Y-68654736D01*
X169366459Y-68640457D01*
X169371418Y-68626597D01*
X169377712Y-68613290D01*
X169385280Y-68600664D01*
X169394048Y-68588841D01*
X169403934Y-68577934D01*
X169414841Y-68568048D01*
X169426664Y-68559280D01*
X169439290Y-68551712D01*
X169452597Y-68545418D01*
X169466457Y-68540459D01*
X169480736Y-68536882D01*
X169495297Y-68534722D01*
X169510000Y-68534000D01*
X171260000Y-68534000D01*
X171274703Y-68534722D01*
G37*
G36*
X171274703Y-69804722D02*
G01*
X171289264Y-69806882D01*
X171303543Y-69810459D01*
X171317403Y-69815418D01*
X171330710Y-69821712D01*
X171343336Y-69829280D01*
X171355159Y-69838048D01*
X171366066Y-69847934D01*
X171375952Y-69858841D01*
X171384720Y-69870664D01*
X171392288Y-69883290D01*
X171398582Y-69896597D01*
X171403541Y-69910457D01*
X171407118Y-69924736D01*
X171409278Y-69939297D01*
X171410000Y-69954000D01*
X171410000Y-70254000D01*
X171409278Y-70268703D01*
X171407118Y-70283264D01*
X171403541Y-70297543D01*
X171398582Y-70311403D01*
X171392288Y-70324710D01*
X171384720Y-70337336D01*
X171375952Y-70349159D01*
X171366066Y-70360066D01*
X171355159Y-70369952D01*
X171343336Y-70378720D01*
X171330710Y-70386288D01*
X171317403Y-70392582D01*
X171303543Y-70397541D01*
X171289264Y-70401118D01*
X171274703Y-70403278D01*
X171260000Y-70404000D01*
X169510000Y-70404000D01*
X169495297Y-70403278D01*
X169480736Y-70401118D01*
X169466457Y-70397541D01*
X169452597Y-70392582D01*
X169439290Y-70386288D01*
X169426664Y-70378720D01*
X169414841Y-70369952D01*
X169403934Y-70360066D01*
X169394048Y-70349159D01*
X169385280Y-70337336D01*
X169377712Y-70324710D01*
X169371418Y-70311403D01*
X169366459Y-70297543D01*
X169362882Y-70283264D01*
X169360722Y-70268703D01*
X169360000Y-70254000D01*
X169360000Y-69954000D01*
X169360722Y-69939297D01*
X169362882Y-69924736D01*
X169366459Y-69910457D01*
X169371418Y-69896597D01*
X169377712Y-69883290D01*
X169385280Y-69870664D01*
X169394048Y-69858841D01*
X169403934Y-69847934D01*
X169414841Y-69838048D01*
X169426664Y-69829280D01*
X169439290Y-69821712D01*
X169452597Y-69815418D01*
X169466457Y-69810459D01*
X169480736Y-69806882D01*
X169495297Y-69804722D01*
X169510000Y-69804000D01*
X171260000Y-69804000D01*
X171274703Y-69804722D01*
G37*
G36*
X171274703Y-71074722D02*
G01*
X171289264Y-71076882D01*
X171303543Y-71080459D01*
X171317403Y-71085418D01*
X171330710Y-71091712D01*
X171343336Y-71099280D01*
X171355159Y-71108048D01*
X171366066Y-71117934D01*
X171375952Y-71128841D01*
X171384720Y-71140664D01*
X171392288Y-71153290D01*
X171398582Y-71166597D01*
X171403541Y-71180457D01*
X171407118Y-71194736D01*
X171409278Y-71209297D01*
X171410000Y-71224000D01*
X171410000Y-71524000D01*
X171409278Y-71538703D01*
X171407118Y-71553264D01*
X171403541Y-71567543D01*
X171398582Y-71581403D01*
X171392288Y-71594710D01*
X171384720Y-71607336D01*
X171375952Y-71619159D01*
X171366066Y-71630066D01*
X171355159Y-71639952D01*
X171343336Y-71648720D01*
X171330710Y-71656288D01*
X171317403Y-71662582D01*
X171303543Y-71667541D01*
X171289264Y-71671118D01*
X171274703Y-71673278D01*
X171260000Y-71674000D01*
X169510000Y-71674000D01*
X169495297Y-71673278D01*
X169480736Y-71671118D01*
X169466457Y-71667541D01*
X169452597Y-71662582D01*
X169439290Y-71656288D01*
X169426664Y-71648720D01*
X169414841Y-71639952D01*
X169403934Y-71630066D01*
X169394048Y-71619159D01*
X169385280Y-71607336D01*
X169377712Y-71594710D01*
X169371418Y-71581403D01*
X169366459Y-71567543D01*
X169362882Y-71553264D01*
X169360722Y-71538703D01*
X169360000Y-71524000D01*
X169360000Y-71224000D01*
X169360722Y-71209297D01*
X169362882Y-71194736D01*
X169366459Y-71180457D01*
X169371418Y-71166597D01*
X169377712Y-71153290D01*
X169385280Y-71140664D01*
X169394048Y-71128841D01*
X169403934Y-71117934D01*
X169414841Y-71108048D01*
X169426664Y-71099280D01*
X169439290Y-71091712D01*
X169452597Y-71085418D01*
X169466457Y-71080459D01*
X169480736Y-71076882D01*
X169495297Y-71074722D01*
X169510000Y-71074000D01*
X171260000Y-71074000D01*
X171274703Y-71074722D01*
G37*
G36*
X171274703Y-72344722D02*
G01*
X171289264Y-72346882D01*
X171303543Y-72350459D01*
X171317403Y-72355418D01*
X171330710Y-72361712D01*
X171343336Y-72369280D01*
X171355159Y-72378048D01*
X171366066Y-72387934D01*
X171375952Y-72398841D01*
X171384720Y-72410664D01*
X171392288Y-72423290D01*
X171398582Y-72436597D01*
X171403541Y-72450457D01*
X171407118Y-72464736D01*
X171409278Y-72479297D01*
X171410000Y-72494000D01*
X171410000Y-72794000D01*
X171409278Y-72808703D01*
X171407118Y-72823264D01*
X171403541Y-72837543D01*
X171398582Y-72851403D01*
X171392288Y-72864710D01*
X171384720Y-72877336D01*
X171375952Y-72889159D01*
X171366066Y-72900066D01*
X171355159Y-72909952D01*
X171343336Y-72918720D01*
X171330710Y-72926288D01*
X171317403Y-72932582D01*
X171303543Y-72937541D01*
X171289264Y-72941118D01*
X171274703Y-72943278D01*
X171260000Y-72944000D01*
X169510000Y-72944000D01*
X169495297Y-72943278D01*
X169480736Y-72941118D01*
X169466457Y-72937541D01*
X169452597Y-72932582D01*
X169439290Y-72926288D01*
X169426664Y-72918720D01*
X169414841Y-72909952D01*
X169403934Y-72900066D01*
X169394048Y-72889159D01*
X169385280Y-72877336D01*
X169377712Y-72864710D01*
X169371418Y-72851403D01*
X169366459Y-72837543D01*
X169362882Y-72823264D01*
X169360722Y-72808703D01*
X169360000Y-72794000D01*
X169360000Y-72494000D01*
X169360722Y-72479297D01*
X169362882Y-72464736D01*
X169366459Y-72450457D01*
X169371418Y-72436597D01*
X169377712Y-72423290D01*
X169385280Y-72410664D01*
X169394048Y-72398841D01*
X169403934Y-72387934D01*
X169414841Y-72378048D01*
X169426664Y-72369280D01*
X169439290Y-72361712D01*
X169452597Y-72355418D01*
X169466457Y-72350459D01*
X169480736Y-72346882D01*
X169495297Y-72344722D01*
X169510000Y-72344000D01*
X171260000Y-72344000D01*
X171274703Y-72344722D01*
G37*
G36*
X171274703Y-73614722D02*
G01*
X171289264Y-73616882D01*
X171303543Y-73620459D01*
X171317403Y-73625418D01*
X171330710Y-73631712D01*
X171343336Y-73639280D01*
X171355159Y-73648048D01*
X171366066Y-73657934D01*
X171375952Y-73668841D01*
X171384720Y-73680664D01*
X171392288Y-73693290D01*
X171398582Y-73706597D01*
X171403541Y-73720457D01*
X171407118Y-73734736D01*
X171409278Y-73749297D01*
X171410000Y-73764000D01*
X171410000Y-74064000D01*
X171409278Y-74078703D01*
X171407118Y-74093264D01*
X171403541Y-74107543D01*
X171398582Y-74121403D01*
X171392288Y-74134710D01*
X171384720Y-74147336D01*
X171375952Y-74159159D01*
X171366066Y-74170066D01*
X171355159Y-74179952D01*
X171343336Y-74188720D01*
X171330710Y-74196288D01*
X171317403Y-74202582D01*
X171303543Y-74207541D01*
X171289264Y-74211118D01*
X171274703Y-74213278D01*
X171260000Y-74214000D01*
X169510000Y-74214000D01*
X169495297Y-74213278D01*
X169480736Y-74211118D01*
X169466457Y-74207541D01*
X169452597Y-74202582D01*
X169439290Y-74196288D01*
X169426664Y-74188720D01*
X169414841Y-74179952D01*
X169403934Y-74170066D01*
X169394048Y-74159159D01*
X169385280Y-74147336D01*
X169377712Y-74134710D01*
X169371418Y-74121403D01*
X169366459Y-74107543D01*
X169362882Y-74093264D01*
X169360722Y-74078703D01*
X169360000Y-74064000D01*
X169360000Y-73764000D01*
X169360722Y-73749297D01*
X169362882Y-73734736D01*
X169366459Y-73720457D01*
X169371418Y-73706597D01*
X169377712Y-73693290D01*
X169385280Y-73680664D01*
X169394048Y-73668841D01*
X169403934Y-73657934D01*
X169414841Y-73648048D01*
X169426664Y-73639280D01*
X169439290Y-73631712D01*
X169452597Y-73625418D01*
X169466457Y-73620459D01*
X169480736Y-73616882D01*
X169495297Y-73614722D01*
X169510000Y-73614000D01*
X171260000Y-73614000D01*
X171274703Y-73614722D01*
G37*
G36*
X171274703Y-74884722D02*
G01*
X171289264Y-74886882D01*
X171303543Y-74890459D01*
X171317403Y-74895418D01*
X171330710Y-74901712D01*
X171343336Y-74909280D01*
X171355159Y-74918048D01*
X171366066Y-74927934D01*
X171375952Y-74938841D01*
X171384720Y-74950664D01*
X171392288Y-74963290D01*
X171398582Y-74976597D01*
X171403541Y-74990457D01*
X171407118Y-75004736D01*
X171409278Y-75019297D01*
X171410000Y-75034000D01*
X171410000Y-75334000D01*
X171409278Y-75348703D01*
X171407118Y-75363264D01*
X171403541Y-75377543D01*
X171398582Y-75391403D01*
X171392288Y-75404710D01*
X171384720Y-75417336D01*
X171375952Y-75429159D01*
X171366066Y-75440066D01*
X171355159Y-75449952D01*
X171343336Y-75458720D01*
X171330710Y-75466288D01*
X171317403Y-75472582D01*
X171303543Y-75477541D01*
X171289264Y-75481118D01*
X171274703Y-75483278D01*
X171260000Y-75484000D01*
X169510000Y-75484000D01*
X169495297Y-75483278D01*
X169480736Y-75481118D01*
X169466457Y-75477541D01*
X169452597Y-75472582D01*
X169439290Y-75466288D01*
X169426664Y-75458720D01*
X169414841Y-75449952D01*
X169403934Y-75440066D01*
X169394048Y-75429159D01*
X169385280Y-75417336D01*
X169377712Y-75404710D01*
X169371418Y-75391403D01*
X169366459Y-75377543D01*
X169362882Y-75363264D01*
X169360722Y-75348703D01*
X169360000Y-75334000D01*
X169360000Y-75034000D01*
X169360722Y-75019297D01*
X169362882Y-75004736D01*
X169366459Y-74990457D01*
X169371418Y-74976597D01*
X169377712Y-74963290D01*
X169385280Y-74950664D01*
X169394048Y-74938841D01*
X169403934Y-74927934D01*
X169414841Y-74918048D01*
X169426664Y-74909280D01*
X169439290Y-74901712D01*
X169452597Y-74895418D01*
X169466457Y-74890459D01*
X169480736Y-74886882D01*
X169495297Y-74884722D01*
X169510000Y-74884000D01*
X171260000Y-74884000D01*
X171274703Y-74884722D01*
G37*
G36*
X171274703Y-76154722D02*
G01*
X171289264Y-76156882D01*
X171303543Y-76160459D01*
X171317403Y-76165418D01*
X171330710Y-76171712D01*
X171343336Y-76179280D01*
X171355159Y-76188048D01*
X171366066Y-76197934D01*
X171375952Y-76208841D01*
X171384720Y-76220664D01*
X171392288Y-76233290D01*
X171398582Y-76246597D01*
X171403541Y-76260457D01*
X171407118Y-76274736D01*
X171409278Y-76289297D01*
X171410000Y-76304000D01*
X171410000Y-76604000D01*
X171409278Y-76618703D01*
X171407118Y-76633264D01*
X171403541Y-76647543D01*
X171398582Y-76661403D01*
X171392288Y-76674710D01*
X171384720Y-76687336D01*
X171375952Y-76699159D01*
X171366066Y-76710066D01*
X171355159Y-76719952D01*
X171343336Y-76728720D01*
X171330710Y-76736288D01*
X171317403Y-76742582D01*
X171303543Y-76747541D01*
X171289264Y-76751118D01*
X171274703Y-76753278D01*
X171260000Y-76754000D01*
X169510000Y-76754000D01*
X169495297Y-76753278D01*
X169480736Y-76751118D01*
X169466457Y-76747541D01*
X169452597Y-76742582D01*
X169439290Y-76736288D01*
X169426664Y-76728720D01*
X169414841Y-76719952D01*
X169403934Y-76710066D01*
X169394048Y-76699159D01*
X169385280Y-76687336D01*
X169377712Y-76674710D01*
X169371418Y-76661403D01*
X169366459Y-76647543D01*
X169362882Y-76633264D01*
X169360722Y-76618703D01*
X169360000Y-76604000D01*
X169360000Y-76304000D01*
X169360722Y-76289297D01*
X169362882Y-76274736D01*
X169366459Y-76260457D01*
X169371418Y-76246597D01*
X169377712Y-76233290D01*
X169385280Y-76220664D01*
X169394048Y-76208841D01*
X169403934Y-76197934D01*
X169414841Y-76188048D01*
X169426664Y-76179280D01*
X169439290Y-76171712D01*
X169452597Y-76165418D01*
X169466457Y-76160459D01*
X169480736Y-76156882D01*
X169495297Y-76154722D01*
X169510000Y-76154000D01*
X171260000Y-76154000D01*
X171274703Y-76154722D01*
G37*
G36*
X171274703Y-77424722D02*
G01*
X171289264Y-77426882D01*
X171303543Y-77430459D01*
X171317403Y-77435418D01*
X171330710Y-77441712D01*
X171343336Y-77449280D01*
X171355159Y-77458048D01*
X171366066Y-77467934D01*
X171375952Y-77478841D01*
X171384720Y-77490664D01*
X171392288Y-77503290D01*
X171398582Y-77516597D01*
X171403541Y-77530457D01*
X171407118Y-77544736D01*
X171409278Y-77559297D01*
X171410000Y-77574000D01*
X171410000Y-77874000D01*
X171409278Y-77888703D01*
X171407118Y-77903264D01*
X171403541Y-77917543D01*
X171398582Y-77931403D01*
X171392288Y-77944710D01*
X171384720Y-77957336D01*
X171375952Y-77969159D01*
X171366066Y-77980066D01*
X171355159Y-77989952D01*
X171343336Y-77998720D01*
X171330710Y-78006288D01*
X171317403Y-78012582D01*
X171303543Y-78017541D01*
X171289264Y-78021118D01*
X171274703Y-78023278D01*
X171260000Y-78024000D01*
X169510000Y-78024000D01*
X169495297Y-78023278D01*
X169480736Y-78021118D01*
X169466457Y-78017541D01*
X169452597Y-78012582D01*
X169439290Y-78006288D01*
X169426664Y-77998720D01*
X169414841Y-77989952D01*
X169403934Y-77980066D01*
X169394048Y-77969159D01*
X169385280Y-77957336D01*
X169377712Y-77944710D01*
X169371418Y-77931403D01*
X169366459Y-77917543D01*
X169362882Y-77903264D01*
X169360722Y-77888703D01*
X169360000Y-77874000D01*
X169360000Y-77574000D01*
X169360722Y-77559297D01*
X169362882Y-77544736D01*
X169366459Y-77530457D01*
X169371418Y-77516597D01*
X169377712Y-77503290D01*
X169385280Y-77490664D01*
X169394048Y-77478841D01*
X169403934Y-77467934D01*
X169414841Y-77458048D01*
X169426664Y-77449280D01*
X169439290Y-77441712D01*
X169452597Y-77435418D01*
X169466457Y-77430459D01*
X169480736Y-77426882D01*
X169495297Y-77424722D01*
X169510000Y-77424000D01*
X171260000Y-77424000D01*
X171274703Y-77424722D01*
G37*
G36*
X171274703Y-78694722D02*
G01*
X171289264Y-78696882D01*
X171303543Y-78700459D01*
X171317403Y-78705418D01*
X171330710Y-78711712D01*
X171343336Y-78719280D01*
X171355159Y-78728048D01*
X171366066Y-78737934D01*
X171375952Y-78748841D01*
X171384720Y-78760664D01*
X171392288Y-78773290D01*
X171398582Y-78786597D01*
X171403541Y-78800457D01*
X171407118Y-78814736D01*
X171409278Y-78829297D01*
X171410000Y-78844000D01*
X171410000Y-79144000D01*
X171409278Y-79158703D01*
X171407118Y-79173264D01*
X171403541Y-79187543D01*
X171398582Y-79201403D01*
X171392288Y-79214710D01*
X171384720Y-79227336D01*
X171375952Y-79239159D01*
X171366066Y-79250066D01*
X171355159Y-79259952D01*
X171343336Y-79268720D01*
X171330710Y-79276288D01*
X171317403Y-79282582D01*
X171303543Y-79287541D01*
X171289264Y-79291118D01*
X171274703Y-79293278D01*
X171260000Y-79294000D01*
X169510000Y-79294000D01*
X169495297Y-79293278D01*
X169480736Y-79291118D01*
X169466457Y-79287541D01*
X169452597Y-79282582D01*
X169439290Y-79276288D01*
X169426664Y-79268720D01*
X169414841Y-79259952D01*
X169403934Y-79250066D01*
X169394048Y-79239159D01*
X169385280Y-79227336D01*
X169377712Y-79214710D01*
X169371418Y-79201403D01*
X169366459Y-79187543D01*
X169362882Y-79173264D01*
X169360722Y-79158703D01*
X169360000Y-79144000D01*
X169360000Y-78844000D01*
X169360722Y-78829297D01*
X169362882Y-78814736D01*
X169366459Y-78800457D01*
X169371418Y-78786597D01*
X169377712Y-78773290D01*
X169385280Y-78760664D01*
X169394048Y-78748841D01*
X169403934Y-78737934D01*
X169414841Y-78728048D01*
X169426664Y-78719280D01*
X169439290Y-78711712D01*
X169452597Y-78705418D01*
X169466457Y-78700459D01*
X169480736Y-78696882D01*
X169495297Y-78694722D01*
X169510000Y-78694000D01*
X171260000Y-78694000D01*
X171274703Y-78694722D01*
G37*
G36*
X183719505Y-78168204D02*
G01*
X183743773Y-78171804D01*
X183767572Y-78177765D01*
X183790671Y-78186030D01*
X183812850Y-78196520D01*
X183833893Y-78209132D01*
X183853599Y-78223747D01*
X183871777Y-78240223D01*
X183888253Y-78258401D01*
X183902868Y-78278107D01*
X183915480Y-78299150D01*
X183925970Y-78321329D01*
X183934235Y-78344428D01*
X183940196Y-78368227D01*
X183943796Y-78392495D01*
X183945000Y-78416999D01*
X183945000Y-79317001D01*
X183943796Y-79341505D01*
X183940196Y-79365773D01*
X183934235Y-79389572D01*
X183925970Y-79412671D01*
X183915480Y-79434850D01*
X183902868Y-79455893D01*
X183888253Y-79475599D01*
X183871777Y-79493777D01*
X183853599Y-79510253D01*
X183833893Y-79524868D01*
X183812850Y-79537480D01*
X183790671Y-79547970D01*
X183767572Y-79556235D01*
X183743773Y-79562196D01*
X183719505Y-79565796D01*
X183695001Y-79567000D01*
X183044999Y-79567000D01*
X183020495Y-79565796D01*
X182996227Y-79562196D01*
X182972428Y-79556235D01*
X182949329Y-79547970D01*
X182927150Y-79537480D01*
X182906107Y-79524868D01*
X182886401Y-79510253D01*
X182868223Y-79493777D01*
X182851747Y-79475599D01*
X182837132Y-79455893D01*
X182824520Y-79434850D01*
X182814030Y-79412671D01*
X182805765Y-79389572D01*
X182799804Y-79365773D01*
X182796204Y-79341505D01*
X182795000Y-79317001D01*
X182795000Y-78416999D01*
X182796204Y-78392495D01*
X182799804Y-78368227D01*
X182805765Y-78344428D01*
X182814030Y-78321329D01*
X182824520Y-78299150D01*
X182837132Y-78278107D01*
X182851747Y-78258401D01*
X182868223Y-78240223D01*
X182886401Y-78223747D01*
X182906107Y-78209132D01*
X182927150Y-78196520D01*
X182949329Y-78186030D01*
X182972428Y-78177765D01*
X182996227Y-78171804D01*
X183020495Y-78168204D01*
X183044999Y-78167000D01*
X183695001Y-78167000D01*
X183719505Y-78168204D01*
G37*
G36*
X185769505Y-78168204D02*
G01*
X185793773Y-78171804D01*
X185817572Y-78177765D01*
X185840671Y-78186030D01*
X185862850Y-78196520D01*
X185883893Y-78209132D01*
X185903599Y-78223747D01*
X185921777Y-78240223D01*
X185938253Y-78258401D01*
X185952868Y-78278107D01*
X185965480Y-78299150D01*
X185975970Y-78321329D01*
X185984235Y-78344428D01*
X185990196Y-78368227D01*
X185993796Y-78392495D01*
X185995000Y-78416999D01*
X185995000Y-79317001D01*
X185993796Y-79341505D01*
X185990196Y-79365773D01*
X185984235Y-79389572D01*
X185975970Y-79412671D01*
X185965480Y-79434850D01*
X185952868Y-79455893D01*
X185938253Y-79475599D01*
X185921777Y-79493777D01*
X185903599Y-79510253D01*
X185883893Y-79524868D01*
X185862850Y-79537480D01*
X185840671Y-79547970D01*
X185817572Y-79556235D01*
X185793773Y-79562196D01*
X185769505Y-79565796D01*
X185745001Y-79567000D01*
X185094999Y-79567000D01*
X185070495Y-79565796D01*
X185046227Y-79562196D01*
X185022428Y-79556235D01*
X184999329Y-79547970D01*
X184977150Y-79537480D01*
X184956107Y-79524868D01*
X184936401Y-79510253D01*
X184918223Y-79493777D01*
X184901747Y-79475599D01*
X184887132Y-79455893D01*
X184874520Y-79434850D01*
X184864030Y-79412671D01*
X184855765Y-79389572D01*
X184849804Y-79365773D01*
X184846204Y-79341505D01*
X184845000Y-79317001D01*
X184845000Y-78416999D01*
X184846204Y-78392495D01*
X184849804Y-78368227D01*
X184855765Y-78344428D01*
X184864030Y-78321329D01*
X184874520Y-78299150D01*
X184887132Y-78278107D01*
X184901747Y-78258401D01*
X184918223Y-78240223D01*
X184936401Y-78223747D01*
X184956107Y-78209132D01*
X184977150Y-78196520D01*
X184999329Y-78186030D01*
X185022428Y-78177765D01*
X185046227Y-78171804D01*
X185070495Y-78168204D01*
X185094999Y-78167000D01*
X185745001Y-78167000D01*
X185769505Y-78168204D01*
G37*
G36*
X185769505Y-74104204D02*
G01*
X185793773Y-74107804D01*
X185817572Y-74113765D01*
X185840671Y-74122030D01*
X185862850Y-74132520D01*
X185883893Y-74145132D01*
X185903599Y-74159747D01*
X185921777Y-74176223D01*
X185938253Y-74194401D01*
X185952868Y-74214107D01*
X185965480Y-74235150D01*
X185975970Y-74257329D01*
X185984235Y-74280428D01*
X185990196Y-74304227D01*
X185993796Y-74328495D01*
X185995000Y-74352999D01*
X185995000Y-75253001D01*
X185993796Y-75277505D01*
X185990196Y-75301773D01*
X185984235Y-75325572D01*
X185975970Y-75348671D01*
X185965480Y-75370850D01*
X185952868Y-75391893D01*
X185938253Y-75411599D01*
X185921777Y-75429777D01*
X185903599Y-75446253D01*
X185883893Y-75460868D01*
X185862850Y-75473480D01*
X185840671Y-75483970D01*
X185817572Y-75492235D01*
X185793773Y-75498196D01*
X185769505Y-75501796D01*
X185745001Y-75503000D01*
X185094999Y-75503000D01*
X185070495Y-75501796D01*
X185046227Y-75498196D01*
X185022428Y-75492235D01*
X184999329Y-75483970D01*
X184977150Y-75473480D01*
X184956107Y-75460868D01*
X184936401Y-75446253D01*
X184918223Y-75429777D01*
X184901747Y-75411599D01*
X184887132Y-75391893D01*
X184874520Y-75370850D01*
X184864030Y-75348671D01*
X184855765Y-75325572D01*
X184849804Y-75301773D01*
X184846204Y-75277505D01*
X184845000Y-75253001D01*
X184845000Y-74352999D01*
X184846204Y-74328495D01*
X184849804Y-74304227D01*
X184855765Y-74280428D01*
X184864030Y-74257329D01*
X184874520Y-74235150D01*
X184887132Y-74214107D01*
X184901747Y-74194401D01*
X184918223Y-74176223D01*
X184936401Y-74159747D01*
X184956107Y-74145132D01*
X184977150Y-74132520D01*
X184999329Y-74122030D01*
X185022428Y-74113765D01*
X185046227Y-74107804D01*
X185070495Y-74104204D01*
X185094999Y-74103000D01*
X185745001Y-74103000D01*
X185769505Y-74104204D01*
G37*
G36*
X183719505Y-74104204D02*
G01*
X183743773Y-74107804D01*
X183767572Y-74113765D01*
X183790671Y-74122030D01*
X183812850Y-74132520D01*
X183833893Y-74145132D01*
X183853599Y-74159747D01*
X183871777Y-74176223D01*
X183888253Y-74194401D01*
X183902868Y-74214107D01*
X183915480Y-74235150D01*
X183925970Y-74257329D01*
X183934235Y-74280428D01*
X183940196Y-74304227D01*
X183943796Y-74328495D01*
X183945000Y-74352999D01*
X183945000Y-75253001D01*
X183943796Y-75277505D01*
X183940196Y-75301773D01*
X183934235Y-75325572D01*
X183925970Y-75348671D01*
X183915480Y-75370850D01*
X183902868Y-75391893D01*
X183888253Y-75411599D01*
X183871777Y-75429777D01*
X183853599Y-75446253D01*
X183833893Y-75460868D01*
X183812850Y-75473480D01*
X183790671Y-75483970D01*
X183767572Y-75492235D01*
X183743773Y-75498196D01*
X183719505Y-75501796D01*
X183695001Y-75503000D01*
X183044999Y-75503000D01*
X183020495Y-75501796D01*
X182996227Y-75498196D01*
X182972428Y-75492235D01*
X182949329Y-75483970D01*
X182927150Y-75473480D01*
X182906107Y-75460868D01*
X182886401Y-75446253D01*
X182868223Y-75429777D01*
X182851747Y-75411599D01*
X182837132Y-75391893D01*
X182824520Y-75370850D01*
X182814030Y-75348671D01*
X182805765Y-75325572D01*
X182799804Y-75301773D01*
X182796204Y-75277505D01*
X182795000Y-75253001D01*
X182795000Y-74352999D01*
X182796204Y-74328495D01*
X182799804Y-74304227D01*
X182805765Y-74280428D01*
X182814030Y-74257329D01*
X182824520Y-74235150D01*
X182837132Y-74214107D01*
X182851747Y-74194401D01*
X182868223Y-74176223D01*
X182886401Y-74159747D01*
X182906107Y-74145132D01*
X182927150Y-74132520D01*
X182949329Y-74122030D01*
X182972428Y-74113765D01*
X182996227Y-74107804D01*
X183020495Y-74104204D01*
X183044999Y-74103000D01*
X183695001Y-74103000D01*
X183719505Y-74104204D01*
G37*
G36*
X185769505Y-70040204D02*
G01*
X185793773Y-70043804D01*
X185817572Y-70049765D01*
X185840671Y-70058030D01*
X185862850Y-70068520D01*
X185883893Y-70081132D01*
X185903599Y-70095747D01*
X185921777Y-70112223D01*
X185938253Y-70130401D01*
X185952868Y-70150107D01*
X185965480Y-70171150D01*
X185975970Y-70193329D01*
X185984235Y-70216428D01*
X185990196Y-70240227D01*
X185993796Y-70264495D01*
X185995000Y-70288999D01*
X185995000Y-71189001D01*
X185993796Y-71213505D01*
X185990196Y-71237773D01*
X185984235Y-71261572D01*
X185975970Y-71284671D01*
X185965480Y-71306850D01*
X185952868Y-71327893D01*
X185938253Y-71347599D01*
X185921777Y-71365777D01*
X185903599Y-71382253D01*
X185883893Y-71396868D01*
X185862850Y-71409480D01*
X185840671Y-71419970D01*
X185817572Y-71428235D01*
X185793773Y-71434196D01*
X185769505Y-71437796D01*
X185745001Y-71439000D01*
X185094999Y-71439000D01*
X185070495Y-71437796D01*
X185046227Y-71434196D01*
X185022428Y-71428235D01*
X184999329Y-71419970D01*
X184977150Y-71409480D01*
X184956107Y-71396868D01*
X184936401Y-71382253D01*
X184918223Y-71365777D01*
X184901747Y-71347599D01*
X184887132Y-71327893D01*
X184874520Y-71306850D01*
X184864030Y-71284671D01*
X184855765Y-71261572D01*
X184849804Y-71237773D01*
X184846204Y-71213505D01*
X184845000Y-71189001D01*
X184845000Y-70288999D01*
X184846204Y-70264495D01*
X184849804Y-70240227D01*
X184855765Y-70216428D01*
X184864030Y-70193329D01*
X184874520Y-70171150D01*
X184887132Y-70150107D01*
X184901747Y-70130401D01*
X184918223Y-70112223D01*
X184936401Y-70095747D01*
X184956107Y-70081132D01*
X184977150Y-70068520D01*
X184999329Y-70058030D01*
X185022428Y-70049765D01*
X185046227Y-70043804D01*
X185070495Y-70040204D01*
X185094999Y-70039000D01*
X185745001Y-70039000D01*
X185769505Y-70040204D01*
G37*
G36*
X183719505Y-70040204D02*
G01*
X183743773Y-70043804D01*
X183767572Y-70049765D01*
X183790671Y-70058030D01*
X183812850Y-70068520D01*
X183833893Y-70081132D01*
X183853599Y-70095747D01*
X183871777Y-70112223D01*
X183888253Y-70130401D01*
X183902868Y-70150107D01*
X183915480Y-70171150D01*
X183925970Y-70193329D01*
X183934235Y-70216428D01*
X183940196Y-70240227D01*
X183943796Y-70264495D01*
X183945000Y-70288999D01*
X183945000Y-71189001D01*
X183943796Y-71213505D01*
X183940196Y-71237773D01*
X183934235Y-71261572D01*
X183925970Y-71284671D01*
X183915480Y-71306850D01*
X183902868Y-71327893D01*
X183888253Y-71347599D01*
X183871777Y-71365777D01*
X183853599Y-71382253D01*
X183833893Y-71396868D01*
X183812850Y-71409480D01*
X183790671Y-71419970D01*
X183767572Y-71428235D01*
X183743773Y-71434196D01*
X183719505Y-71437796D01*
X183695001Y-71439000D01*
X183044999Y-71439000D01*
X183020495Y-71437796D01*
X182996227Y-71434196D01*
X182972428Y-71428235D01*
X182949329Y-71419970D01*
X182927150Y-71409480D01*
X182906107Y-71396868D01*
X182886401Y-71382253D01*
X182868223Y-71365777D01*
X182851747Y-71347599D01*
X182837132Y-71327893D01*
X182824520Y-71306850D01*
X182814030Y-71284671D01*
X182805765Y-71261572D01*
X182799804Y-71237773D01*
X182796204Y-71213505D01*
X182795000Y-71189001D01*
X182795000Y-70288999D01*
X182796204Y-70264495D01*
X182799804Y-70240227D01*
X182805765Y-70216428D01*
X182814030Y-70193329D01*
X182824520Y-70171150D01*
X182837132Y-70150107D01*
X182851747Y-70130401D01*
X182868223Y-70112223D01*
X182886401Y-70095747D01*
X182906107Y-70081132D01*
X182927150Y-70068520D01*
X182949329Y-70058030D01*
X182972428Y-70049765D01*
X182996227Y-70043804D01*
X183020495Y-70040204D01*
X183044999Y-70039000D01*
X183695001Y-70039000D01*
X183719505Y-70040204D01*
G37*
G36*
X185778505Y-67754204D02*
G01*
X185802773Y-67757804D01*
X185826572Y-67763765D01*
X185849671Y-67772030D01*
X185871850Y-67782520D01*
X185892893Y-67795132D01*
X185912599Y-67809747D01*
X185930777Y-67826223D01*
X185947253Y-67844401D01*
X185961868Y-67864107D01*
X185974480Y-67885150D01*
X185984970Y-67907329D01*
X185993235Y-67930428D01*
X185999196Y-67954227D01*
X186002796Y-67978495D01*
X186004000Y-68002999D01*
X186004000Y-68903001D01*
X186002796Y-68927505D01*
X185999196Y-68951773D01*
X185993235Y-68975572D01*
X185984970Y-68998671D01*
X185974480Y-69020850D01*
X185961868Y-69041893D01*
X185947253Y-69061599D01*
X185930777Y-69079777D01*
X185912599Y-69096253D01*
X185892893Y-69110868D01*
X185871850Y-69123480D01*
X185849671Y-69133970D01*
X185826572Y-69142235D01*
X185802773Y-69148196D01*
X185778505Y-69151796D01*
X185754001Y-69153000D01*
X185103999Y-69153000D01*
X185079495Y-69151796D01*
X185055227Y-69148196D01*
X185031428Y-69142235D01*
X185008329Y-69133970D01*
X184986150Y-69123480D01*
X184965107Y-69110868D01*
X184945401Y-69096253D01*
X184927223Y-69079777D01*
X184910747Y-69061599D01*
X184896132Y-69041893D01*
X184883520Y-69020850D01*
X184873030Y-68998671D01*
X184864765Y-68975572D01*
X184858804Y-68951773D01*
X184855204Y-68927505D01*
X184854000Y-68903001D01*
X184854000Y-68002999D01*
X184855204Y-67978495D01*
X184858804Y-67954227D01*
X184864765Y-67930428D01*
X184873030Y-67907329D01*
X184883520Y-67885150D01*
X184896132Y-67864107D01*
X184910747Y-67844401D01*
X184927223Y-67826223D01*
X184945401Y-67809747D01*
X184965107Y-67795132D01*
X184986150Y-67782520D01*
X185008329Y-67772030D01*
X185031428Y-67763765D01*
X185055227Y-67757804D01*
X185079495Y-67754204D01*
X185103999Y-67753000D01*
X185754001Y-67753000D01*
X185778505Y-67754204D01*
G37*
G36*
X183728505Y-67754204D02*
G01*
X183752773Y-67757804D01*
X183776572Y-67763765D01*
X183799671Y-67772030D01*
X183821850Y-67782520D01*
X183842893Y-67795132D01*
X183862599Y-67809747D01*
X183880777Y-67826223D01*
X183897253Y-67844401D01*
X183911868Y-67864107D01*
X183924480Y-67885150D01*
X183934970Y-67907329D01*
X183943235Y-67930428D01*
X183949196Y-67954227D01*
X183952796Y-67978495D01*
X183954000Y-68002999D01*
X183954000Y-68903001D01*
X183952796Y-68927505D01*
X183949196Y-68951773D01*
X183943235Y-68975572D01*
X183934970Y-68998671D01*
X183924480Y-69020850D01*
X183911868Y-69041893D01*
X183897253Y-69061599D01*
X183880777Y-69079777D01*
X183862599Y-69096253D01*
X183842893Y-69110868D01*
X183821850Y-69123480D01*
X183799671Y-69133970D01*
X183776572Y-69142235D01*
X183752773Y-69148196D01*
X183728505Y-69151796D01*
X183704001Y-69153000D01*
X183053999Y-69153000D01*
X183029495Y-69151796D01*
X183005227Y-69148196D01*
X182981428Y-69142235D01*
X182958329Y-69133970D01*
X182936150Y-69123480D01*
X182915107Y-69110868D01*
X182895401Y-69096253D01*
X182877223Y-69079777D01*
X182860747Y-69061599D01*
X182846132Y-69041893D01*
X182833520Y-69020850D01*
X182823030Y-68998671D01*
X182814765Y-68975572D01*
X182808804Y-68951773D01*
X182805204Y-68927505D01*
X182804000Y-68903001D01*
X182804000Y-68002999D01*
X182805204Y-67978495D01*
X182808804Y-67954227D01*
X182814765Y-67930428D01*
X182823030Y-67907329D01*
X182833520Y-67885150D01*
X182846132Y-67864107D01*
X182860747Y-67844401D01*
X182877223Y-67826223D01*
X182895401Y-67809747D01*
X182915107Y-67795132D01*
X182936150Y-67782520D01*
X182958329Y-67772030D01*
X182981428Y-67763765D01*
X183005227Y-67757804D01*
X183029495Y-67754204D01*
X183053999Y-67753000D01*
X183704001Y-67753000D01*
X183728505Y-67754204D01*
G37*
G36*
X185894505Y-63416204D02*
G01*
X185918773Y-63419804D01*
X185942572Y-63425765D01*
X185965671Y-63434030D01*
X185987850Y-63444520D01*
X186008893Y-63457132D01*
X186028599Y-63471747D01*
X186046777Y-63488223D01*
X186063253Y-63506401D01*
X186077868Y-63526107D01*
X186090480Y-63547150D01*
X186100970Y-63569329D01*
X186109235Y-63592428D01*
X186115196Y-63616227D01*
X186118796Y-63640495D01*
X186120000Y-63664999D01*
X186120000Y-64315001D01*
X186118796Y-64339505D01*
X186115196Y-64363773D01*
X186109235Y-64387572D01*
X186100970Y-64410671D01*
X186090480Y-64432850D01*
X186077868Y-64453893D01*
X186063253Y-64473599D01*
X186046777Y-64491777D01*
X186028599Y-64508253D01*
X186008893Y-64522868D01*
X185987850Y-64535480D01*
X185965671Y-64545970D01*
X185942572Y-64554235D01*
X185918773Y-64560196D01*
X185894505Y-64563796D01*
X185870001Y-64565000D01*
X184969999Y-64565000D01*
X184945495Y-64563796D01*
X184921227Y-64560196D01*
X184897428Y-64554235D01*
X184874329Y-64545970D01*
X184852150Y-64535480D01*
X184831107Y-64522868D01*
X184811401Y-64508253D01*
X184793223Y-64491777D01*
X184776747Y-64473599D01*
X184762132Y-64453893D01*
X184749520Y-64432850D01*
X184739030Y-64410671D01*
X184730765Y-64387572D01*
X184724804Y-64363773D01*
X184721204Y-64339505D01*
X184720000Y-64315001D01*
X184720000Y-63664999D01*
X184721204Y-63640495D01*
X184724804Y-63616227D01*
X184730765Y-63592428D01*
X184739030Y-63569329D01*
X184749520Y-63547150D01*
X184762132Y-63526107D01*
X184776747Y-63506401D01*
X184793223Y-63488223D01*
X184811401Y-63471747D01*
X184831107Y-63457132D01*
X184852150Y-63444520D01*
X184874329Y-63434030D01*
X184897428Y-63425765D01*
X184921227Y-63419804D01*
X184945495Y-63416204D01*
X184969999Y-63415000D01*
X185870001Y-63415000D01*
X185894505Y-63416204D01*
G37*
G36*
X185894505Y-65466204D02*
G01*
X185918773Y-65469804D01*
X185942572Y-65475765D01*
X185965671Y-65484030D01*
X185987850Y-65494520D01*
X186008893Y-65507132D01*
X186028599Y-65521747D01*
X186046777Y-65538223D01*
X186063253Y-65556401D01*
X186077868Y-65576107D01*
X186090480Y-65597150D01*
X186100970Y-65619329D01*
X186109235Y-65642428D01*
X186115196Y-65666227D01*
X186118796Y-65690495D01*
X186120000Y-65714999D01*
X186120000Y-66365001D01*
X186118796Y-66389505D01*
X186115196Y-66413773D01*
X186109235Y-66437572D01*
X186100970Y-66460671D01*
X186090480Y-66482850D01*
X186077868Y-66503893D01*
X186063253Y-66523599D01*
X186046777Y-66541777D01*
X186028599Y-66558253D01*
X186008893Y-66572868D01*
X185987850Y-66585480D01*
X185965671Y-66595970D01*
X185942572Y-66604235D01*
X185918773Y-66610196D01*
X185894505Y-66613796D01*
X185870001Y-66615000D01*
X184969999Y-66615000D01*
X184945495Y-66613796D01*
X184921227Y-66610196D01*
X184897428Y-66604235D01*
X184874329Y-66595970D01*
X184852150Y-66585480D01*
X184831107Y-66572868D01*
X184811401Y-66558253D01*
X184793223Y-66541777D01*
X184776747Y-66523599D01*
X184762132Y-66503893D01*
X184749520Y-66482850D01*
X184739030Y-66460671D01*
X184730765Y-66437572D01*
X184724804Y-66413773D01*
X184721204Y-66389505D01*
X184720000Y-66365001D01*
X184720000Y-65714999D01*
X184721204Y-65690495D01*
X184724804Y-65666227D01*
X184730765Y-65642428D01*
X184739030Y-65619329D01*
X184749520Y-65597150D01*
X184762132Y-65576107D01*
X184776747Y-65556401D01*
X184793223Y-65538223D01*
X184811401Y-65521747D01*
X184831107Y-65507132D01*
X184852150Y-65494520D01*
X184874329Y-65484030D01*
X184897428Y-65475765D01*
X184921227Y-65469804D01*
X184945495Y-65466204D01*
X184969999Y-65465000D01*
X185870001Y-65465000D01*
X185894505Y-65466204D01*
G37*
G36*
X185769505Y-72072204D02*
G01*
X185793773Y-72075804D01*
X185817572Y-72081765D01*
X185840671Y-72090030D01*
X185862850Y-72100520D01*
X185883893Y-72113132D01*
X185903599Y-72127747D01*
X185921777Y-72144223D01*
X185938253Y-72162401D01*
X185952868Y-72182107D01*
X185965480Y-72203150D01*
X185975970Y-72225329D01*
X185984235Y-72248428D01*
X185990196Y-72272227D01*
X185993796Y-72296495D01*
X185995000Y-72320999D01*
X185995000Y-73221001D01*
X185993796Y-73245505D01*
X185990196Y-73269773D01*
X185984235Y-73293572D01*
X185975970Y-73316671D01*
X185965480Y-73338850D01*
X185952868Y-73359893D01*
X185938253Y-73379599D01*
X185921777Y-73397777D01*
X185903599Y-73414253D01*
X185883893Y-73428868D01*
X185862850Y-73441480D01*
X185840671Y-73451970D01*
X185817572Y-73460235D01*
X185793773Y-73466196D01*
X185769505Y-73469796D01*
X185745001Y-73471000D01*
X185094999Y-73471000D01*
X185070495Y-73469796D01*
X185046227Y-73466196D01*
X185022428Y-73460235D01*
X184999329Y-73451970D01*
X184977150Y-73441480D01*
X184956107Y-73428868D01*
X184936401Y-73414253D01*
X184918223Y-73397777D01*
X184901747Y-73379599D01*
X184887132Y-73359893D01*
X184874520Y-73338850D01*
X184864030Y-73316671D01*
X184855765Y-73293572D01*
X184849804Y-73269773D01*
X184846204Y-73245505D01*
X184845000Y-73221001D01*
X184845000Y-72320999D01*
X184846204Y-72296495D01*
X184849804Y-72272227D01*
X184855765Y-72248428D01*
X184864030Y-72225329D01*
X184874520Y-72203150D01*
X184887132Y-72182107D01*
X184901747Y-72162401D01*
X184918223Y-72144223D01*
X184936401Y-72127747D01*
X184956107Y-72113132D01*
X184977150Y-72100520D01*
X184999329Y-72090030D01*
X185022428Y-72081765D01*
X185046227Y-72075804D01*
X185070495Y-72072204D01*
X185094999Y-72071000D01*
X185745001Y-72071000D01*
X185769505Y-72072204D01*
G37*
G36*
X183719505Y-72072204D02*
G01*
X183743773Y-72075804D01*
X183767572Y-72081765D01*
X183790671Y-72090030D01*
X183812850Y-72100520D01*
X183833893Y-72113132D01*
X183853599Y-72127747D01*
X183871777Y-72144223D01*
X183888253Y-72162401D01*
X183902868Y-72182107D01*
X183915480Y-72203150D01*
X183925970Y-72225329D01*
X183934235Y-72248428D01*
X183940196Y-72272227D01*
X183943796Y-72296495D01*
X183945000Y-72320999D01*
X183945000Y-73221001D01*
X183943796Y-73245505D01*
X183940196Y-73269773D01*
X183934235Y-73293572D01*
X183925970Y-73316671D01*
X183915480Y-73338850D01*
X183902868Y-73359893D01*
X183888253Y-73379599D01*
X183871777Y-73397777D01*
X183853599Y-73414253D01*
X183833893Y-73428868D01*
X183812850Y-73441480D01*
X183790671Y-73451970D01*
X183767572Y-73460235D01*
X183743773Y-73466196D01*
X183719505Y-73469796D01*
X183695001Y-73471000D01*
X183044999Y-73471000D01*
X183020495Y-73469796D01*
X182996227Y-73466196D01*
X182972428Y-73460235D01*
X182949329Y-73451970D01*
X182927150Y-73441480D01*
X182906107Y-73428868D01*
X182886401Y-73414253D01*
X182868223Y-73397777D01*
X182851747Y-73379599D01*
X182837132Y-73359893D01*
X182824520Y-73338850D01*
X182814030Y-73316671D01*
X182805765Y-73293572D01*
X182799804Y-73269773D01*
X182796204Y-73245505D01*
X182795000Y-73221001D01*
X182795000Y-72320999D01*
X182796204Y-72296495D01*
X182799804Y-72272227D01*
X182805765Y-72248428D01*
X182814030Y-72225329D01*
X182824520Y-72203150D01*
X182837132Y-72182107D01*
X182851747Y-72162401D01*
X182868223Y-72144223D01*
X182886401Y-72127747D01*
X182906107Y-72113132D01*
X182927150Y-72100520D01*
X182949329Y-72090030D01*
X182972428Y-72081765D01*
X182996227Y-72075804D01*
X183020495Y-72072204D01*
X183044999Y-72071000D01*
X183695001Y-72071000D01*
X183719505Y-72072204D01*
G37*
G36*
X183719505Y-76136204D02*
G01*
X183743773Y-76139804D01*
X183767572Y-76145765D01*
X183790671Y-76154030D01*
X183812850Y-76164520D01*
X183833893Y-76177132D01*
X183853599Y-76191747D01*
X183871777Y-76208223D01*
X183888253Y-76226401D01*
X183902868Y-76246107D01*
X183915480Y-76267150D01*
X183925970Y-76289329D01*
X183934235Y-76312428D01*
X183940196Y-76336227D01*
X183943796Y-76360495D01*
X183945000Y-76384999D01*
X183945000Y-77285001D01*
X183943796Y-77309505D01*
X183940196Y-77333773D01*
X183934235Y-77357572D01*
X183925970Y-77380671D01*
X183915480Y-77402850D01*
X183902868Y-77423893D01*
X183888253Y-77443599D01*
X183871777Y-77461777D01*
X183853599Y-77478253D01*
X183833893Y-77492868D01*
X183812850Y-77505480D01*
X183790671Y-77515970D01*
X183767572Y-77524235D01*
X183743773Y-77530196D01*
X183719505Y-77533796D01*
X183695001Y-77535000D01*
X183044999Y-77535000D01*
X183020495Y-77533796D01*
X182996227Y-77530196D01*
X182972428Y-77524235D01*
X182949329Y-77515970D01*
X182927150Y-77505480D01*
X182906107Y-77492868D01*
X182886401Y-77478253D01*
X182868223Y-77461777D01*
X182851747Y-77443599D01*
X182837132Y-77423893D01*
X182824520Y-77402850D01*
X182814030Y-77380671D01*
X182805765Y-77357572D01*
X182799804Y-77333773D01*
X182796204Y-77309505D01*
X182795000Y-77285001D01*
X182795000Y-76384999D01*
X182796204Y-76360495D01*
X182799804Y-76336227D01*
X182805765Y-76312428D01*
X182814030Y-76289329D01*
X182824520Y-76267150D01*
X182837132Y-76246107D01*
X182851747Y-76226401D01*
X182868223Y-76208223D01*
X182886401Y-76191747D01*
X182906107Y-76177132D01*
X182927150Y-76164520D01*
X182949329Y-76154030D01*
X182972428Y-76145765D01*
X182996227Y-76139804D01*
X183020495Y-76136204D01*
X183044999Y-76135000D01*
X183695001Y-76135000D01*
X183719505Y-76136204D01*
G37*
G36*
X185769505Y-76136204D02*
G01*
X185793773Y-76139804D01*
X185817572Y-76145765D01*
X185840671Y-76154030D01*
X185862850Y-76164520D01*
X185883893Y-76177132D01*
X185903599Y-76191747D01*
X185921777Y-76208223D01*
X185938253Y-76226401D01*
X185952868Y-76246107D01*
X185965480Y-76267150D01*
X185975970Y-76289329D01*
X185984235Y-76312428D01*
X185990196Y-76336227D01*
X185993796Y-76360495D01*
X185995000Y-76384999D01*
X185995000Y-77285001D01*
X185993796Y-77309505D01*
X185990196Y-77333773D01*
X185984235Y-77357572D01*
X185975970Y-77380671D01*
X185965480Y-77402850D01*
X185952868Y-77423893D01*
X185938253Y-77443599D01*
X185921777Y-77461777D01*
X185903599Y-77478253D01*
X185883893Y-77492868D01*
X185862850Y-77505480D01*
X185840671Y-77515970D01*
X185817572Y-77524235D01*
X185793773Y-77530196D01*
X185769505Y-77533796D01*
X185745001Y-77535000D01*
X185094999Y-77535000D01*
X185070495Y-77533796D01*
X185046227Y-77530196D01*
X185022428Y-77524235D01*
X184999329Y-77515970D01*
X184977150Y-77505480D01*
X184956107Y-77492868D01*
X184936401Y-77478253D01*
X184918223Y-77461777D01*
X184901747Y-77443599D01*
X184887132Y-77423893D01*
X184874520Y-77402850D01*
X184864030Y-77380671D01*
X184855765Y-77357572D01*
X184849804Y-77333773D01*
X184846204Y-77309505D01*
X184845000Y-77285001D01*
X184845000Y-76384999D01*
X184846204Y-76360495D01*
X184849804Y-76336227D01*
X184855765Y-76312428D01*
X184864030Y-76289329D01*
X184874520Y-76267150D01*
X184887132Y-76246107D01*
X184901747Y-76226401D01*
X184918223Y-76208223D01*
X184936401Y-76191747D01*
X184956107Y-76177132D01*
X184977150Y-76164520D01*
X184999329Y-76154030D01*
X185022428Y-76145765D01*
X185046227Y-76139804D01*
X185070495Y-76136204D01*
X185094999Y-76135000D01*
X185745001Y-76135000D01*
X185769505Y-76136204D01*
G37*
G36*
X175072504Y-58496204D02*
G01*
X175096773Y-58499804D01*
X175120571Y-58505765D01*
X175143671Y-58514030D01*
X175165849Y-58524520D01*
X175186893Y-58537133D01*
X175206598Y-58551747D01*
X175224777Y-58568223D01*
X175241253Y-58586402D01*
X175255867Y-58606107D01*
X175268480Y-58627151D01*
X175278970Y-58649329D01*
X175287235Y-58672429D01*
X175293196Y-58696227D01*
X175296796Y-58720496D01*
X175298000Y-58745000D01*
X175298000Y-60845000D01*
X175296796Y-60869504D01*
X175293196Y-60893773D01*
X175287235Y-60917571D01*
X175278970Y-60940671D01*
X175268480Y-60962849D01*
X175255867Y-60983893D01*
X175241253Y-61003598D01*
X175224777Y-61021777D01*
X175206598Y-61038253D01*
X175186893Y-61052867D01*
X175165849Y-61065480D01*
X175143671Y-61075970D01*
X175120571Y-61084235D01*
X175096773Y-61090196D01*
X175072504Y-61093796D01*
X175048000Y-61095000D01*
X173948000Y-61095000D01*
X173923496Y-61093796D01*
X173899227Y-61090196D01*
X173875429Y-61084235D01*
X173852329Y-61075970D01*
X173830151Y-61065480D01*
X173809107Y-61052867D01*
X173789402Y-61038253D01*
X173771223Y-61021777D01*
X173754747Y-61003598D01*
X173740133Y-60983893D01*
X173727520Y-60962849D01*
X173717030Y-60940671D01*
X173708765Y-60917571D01*
X173702804Y-60893773D01*
X173699204Y-60869504D01*
X173698000Y-60845000D01*
X173698000Y-58745000D01*
X173699204Y-58720496D01*
X173702804Y-58696227D01*
X173708765Y-58672429D01*
X173717030Y-58649329D01*
X173727520Y-58627151D01*
X173740133Y-58606107D01*
X173754747Y-58586402D01*
X173771223Y-58568223D01*
X173789402Y-58551747D01*
X173809107Y-58537133D01*
X173830151Y-58524520D01*
X173852329Y-58514030D01*
X173875429Y-58505765D01*
X173899227Y-58499804D01*
X173923496Y-58496204D01*
X173948000Y-58495000D01*
X175048000Y-58495000D01*
X175072504Y-58496204D01*
G37*
G36*
X175072504Y-62096204D02*
G01*
X175096773Y-62099804D01*
X175120571Y-62105765D01*
X175143671Y-62114030D01*
X175165849Y-62124520D01*
X175186893Y-62137133D01*
X175206598Y-62151747D01*
X175224777Y-62168223D01*
X175241253Y-62186402D01*
X175255867Y-62206107D01*
X175268480Y-62227151D01*
X175278970Y-62249329D01*
X175287235Y-62272429D01*
X175293196Y-62296227D01*
X175296796Y-62320496D01*
X175298000Y-62345000D01*
X175298000Y-64445000D01*
X175296796Y-64469504D01*
X175293196Y-64493773D01*
X175287235Y-64517571D01*
X175278970Y-64540671D01*
X175268480Y-64562849D01*
X175255867Y-64583893D01*
X175241253Y-64603598D01*
X175224777Y-64621777D01*
X175206598Y-64638253D01*
X175186893Y-64652867D01*
X175165849Y-64665480D01*
X175143671Y-64675970D01*
X175120571Y-64684235D01*
X175096773Y-64690196D01*
X175072504Y-64693796D01*
X175048000Y-64695000D01*
X173948000Y-64695000D01*
X173923496Y-64693796D01*
X173899227Y-64690196D01*
X173875429Y-64684235D01*
X173852329Y-64675970D01*
X173830151Y-64665480D01*
X173809107Y-64652867D01*
X173789402Y-64638253D01*
X173771223Y-64621777D01*
X173754747Y-64603598D01*
X173740133Y-64583893D01*
X173727520Y-64562849D01*
X173717030Y-64540671D01*
X173708765Y-64517571D01*
X173702804Y-64493773D01*
X173699204Y-64469504D01*
X173698000Y-64445000D01*
X173698000Y-62345000D01*
X173699204Y-62320496D01*
X173702804Y-62296227D01*
X173708765Y-62272429D01*
X173717030Y-62249329D01*
X173727520Y-62227151D01*
X173740133Y-62206107D01*
X173754747Y-62186402D01*
X173771223Y-62168223D01*
X173789402Y-62151747D01*
X173809107Y-62137133D01*
X173830151Y-62124520D01*
X173852329Y-62114030D01*
X173875429Y-62105765D01*
X173899227Y-62099804D01*
X173923496Y-62096204D01*
X173948000Y-62095000D01*
X175048000Y-62095000D01*
X175072504Y-62096204D01*
G37*
G36*
X164052505Y-63817204D02*
G01*
X164076773Y-63820804D01*
X164100572Y-63826765D01*
X164123671Y-63835030D01*
X164145850Y-63845520D01*
X164166893Y-63858132D01*
X164186599Y-63872747D01*
X164204777Y-63889223D01*
X164221253Y-63907401D01*
X164235868Y-63927107D01*
X164248480Y-63948150D01*
X164258970Y-63970329D01*
X164267235Y-63993428D01*
X164273196Y-64017227D01*
X164276796Y-64041495D01*
X164278000Y-64065999D01*
X164278000Y-64966001D01*
X164276796Y-64990505D01*
X164273196Y-65014773D01*
X164267235Y-65038572D01*
X164258970Y-65061671D01*
X164248480Y-65083850D01*
X164235868Y-65104893D01*
X164221253Y-65124599D01*
X164204777Y-65142777D01*
X164186599Y-65159253D01*
X164166893Y-65173868D01*
X164145850Y-65186480D01*
X164123671Y-65196970D01*
X164100572Y-65205235D01*
X164076773Y-65211196D01*
X164052505Y-65214796D01*
X164028001Y-65216000D01*
X163377999Y-65216000D01*
X163353495Y-65214796D01*
X163329227Y-65211196D01*
X163305428Y-65205235D01*
X163282329Y-65196970D01*
X163260150Y-65186480D01*
X163239107Y-65173868D01*
X163219401Y-65159253D01*
X163201223Y-65142777D01*
X163184747Y-65124599D01*
X163170132Y-65104893D01*
X163157520Y-65083850D01*
X163147030Y-65061671D01*
X163138765Y-65038572D01*
X163132804Y-65014773D01*
X163129204Y-64990505D01*
X163128000Y-64966001D01*
X163128000Y-64065999D01*
X163129204Y-64041495D01*
X163132804Y-64017227D01*
X163138765Y-63993428D01*
X163147030Y-63970329D01*
X163157520Y-63948150D01*
X163170132Y-63927107D01*
X163184747Y-63907401D01*
X163201223Y-63889223D01*
X163219401Y-63872747D01*
X163239107Y-63858132D01*
X163260150Y-63845520D01*
X163282329Y-63835030D01*
X163305428Y-63826765D01*
X163329227Y-63820804D01*
X163353495Y-63817204D01*
X163377999Y-63816000D01*
X164028001Y-63816000D01*
X164052505Y-63817204D01*
G37*
G36*
X162002505Y-63817204D02*
G01*
X162026773Y-63820804D01*
X162050572Y-63826765D01*
X162073671Y-63835030D01*
X162095850Y-63845520D01*
X162116893Y-63858132D01*
X162136599Y-63872747D01*
X162154777Y-63889223D01*
X162171253Y-63907401D01*
X162185868Y-63927107D01*
X162198480Y-63948150D01*
X162208970Y-63970329D01*
X162217235Y-63993428D01*
X162223196Y-64017227D01*
X162226796Y-64041495D01*
X162228000Y-64065999D01*
X162228000Y-64966001D01*
X162226796Y-64990505D01*
X162223196Y-65014773D01*
X162217235Y-65038572D01*
X162208970Y-65061671D01*
X162198480Y-65083850D01*
X162185868Y-65104893D01*
X162171253Y-65124599D01*
X162154777Y-65142777D01*
X162136599Y-65159253D01*
X162116893Y-65173868D01*
X162095850Y-65186480D01*
X162073671Y-65196970D01*
X162050572Y-65205235D01*
X162026773Y-65211196D01*
X162002505Y-65214796D01*
X161978001Y-65216000D01*
X161327999Y-65216000D01*
X161303495Y-65214796D01*
X161279227Y-65211196D01*
X161255428Y-65205235D01*
X161232329Y-65196970D01*
X161210150Y-65186480D01*
X161189107Y-65173868D01*
X161169401Y-65159253D01*
X161151223Y-65142777D01*
X161134747Y-65124599D01*
X161120132Y-65104893D01*
X161107520Y-65083850D01*
X161097030Y-65061671D01*
X161088765Y-65038572D01*
X161082804Y-65014773D01*
X161079204Y-64990505D01*
X161078000Y-64966001D01*
X161078000Y-64065999D01*
X161079204Y-64041495D01*
X161082804Y-64017227D01*
X161088765Y-63993428D01*
X161097030Y-63970329D01*
X161107520Y-63948150D01*
X161120132Y-63927107D01*
X161134747Y-63907401D01*
X161151223Y-63889223D01*
X161169401Y-63872747D01*
X161189107Y-63858132D01*
X161210150Y-63845520D01*
X161232329Y-63835030D01*
X161255428Y-63826765D01*
X161279227Y-63820804D01*
X161303495Y-63817204D01*
X161327999Y-63816000D01*
X161978001Y-63816000D01*
X162002505Y-63817204D01*
G37*
G36*
X170148505Y-63817204D02*
G01*
X170172773Y-63820804D01*
X170196572Y-63826765D01*
X170219671Y-63835030D01*
X170241850Y-63845520D01*
X170262893Y-63858132D01*
X170282599Y-63872747D01*
X170300777Y-63889223D01*
X170317253Y-63907401D01*
X170331868Y-63927107D01*
X170344480Y-63948150D01*
X170354970Y-63970329D01*
X170363235Y-63993428D01*
X170369196Y-64017227D01*
X170372796Y-64041495D01*
X170374000Y-64065999D01*
X170374000Y-64966001D01*
X170372796Y-64990505D01*
X170369196Y-65014773D01*
X170363235Y-65038572D01*
X170354970Y-65061671D01*
X170344480Y-65083850D01*
X170331868Y-65104893D01*
X170317253Y-65124599D01*
X170300777Y-65142777D01*
X170282599Y-65159253D01*
X170262893Y-65173868D01*
X170241850Y-65186480D01*
X170219671Y-65196970D01*
X170196572Y-65205235D01*
X170172773Y-65211196D01*
X170148505Y-65214796D01*
X170124001Y-65216000D01*
X169473999Y-65216000D01*
X169449495Y-65214796D01*
X169425227Y-65211196D01*
X169401428Y-65205235D01*
X169378329Y-65196970D01*
X169356150Y-65186480D01*
X169335107Y-65173868D01*
X169315401Y-65159253D01*
X169297223Y-65142777D01*
X169280747Y-65124599D01*
X169266132Y-65104893D01*
X169253520Y-65083850D01*
X169243030Y-65061671D01*
X169234765Y-65038572D01*
X169228804Y-65014773D01*
X169225204Y-64990505D01*
X169224000Y-64966001D01*
X169224000Y-64065999D01*
X169225204Y-64041495D01*
X169228804Y-64017227D01*
X169234765Y-63993428D01*
X169243030Y-63970329D01*
X169253520Y-63948150D01*
X169266132Y-63927107D01*
X169280747Y-63907401D01*
X169297223Y-63889223D01*
X169315401Y-63872747D01*
X169335107Y-63858132D01*
X169356150Y-63845520D01*
X169378329Y-63835030D01*
X169401428Y-63826765D01*
X169425227Y-63820804D01*
X169449495Y-63817204D01*
X169473999Y-63816000D01*
X170124001Y-63816000D01*
X170148505Y-63817204D01*
G37*
G36*
X168098505Y-63817204D02*
G01*
X168122773Y-63820804D01*
X168146572Y-63826765D01*
X168169671Y-63835030D01*
X168191850Y-63845520D01*
X168212893Y-63858132D01*
X168232599Y-63872747D01*
X168250777Y-63889223D01*
X168267253Y-63907401D01*
X168281868Y-63927107D01*
X168294480Y-63948150D01*
X168304970Y-63970329D01*
X168313235Y-63993428D01*
X168319196Y-64017227D01*
X168322796Y-64041495D01*
X168324000Y-64065999D01*
X168324000Y-64966001D01*
X168322796Y-64990505D01*
X168319196Y-65014773D01*
X168313235Y-65038572D01*
X168304970Y-65061671D01*
X168294480Y-65083850D01*
X168281868Y-65104893D01*
X168267253Y-65124599D01*
X168250777Y-65142777D01*
X168232599Y-65159253D01*
X168212893Y-65173868D01*
X168191850Y-65186480D01*
X168169671Y-65196970D01*
X168146572Y-65205235D01*
X168122773Y-65211196D01*
X168098505Y-65214796D01*
X168074001Y-65216000D01*
X167423999Y-65216000D01*
X167399495Y-65214796D01*
X167375227Y-65211196D01*
X167351428Y-65205235D01*
X167328329Y-65196970D01*
X167306150Y-65186480D01*
X167285107Y-65173868D01*
X167265401Y-65159253D01*
X167247223Y-65142777D01*
X167230747Y-65124599D01*
X167216132Y-65104893D01*
X167203520Y-65083850D01*
X167193030Y-65061671D01*
X167184765Y-65038572D01*
X167178804Y-65014773D01*
X167175204Y-64990505D01*
X167174000Y-64966001D01*
X167174000Y-64065999D01*
X167175204Y-64041495D01*
X167178804Y-64017227D01*
X167184765Y-63993428D01*
X167193030Y-63970329D01*
X167203520Y-63948150D01*
X167216132Y-63927107D01*
X167230747Y-63907401D01*
X167247223Y-63889223D01*
X167265401Y-63872747D01*
X167285107Y-63858132D01*
X167306150Y-63845520D01*
X167328329Y-63835030D01*
X167351428Y-63826765D01*
X167375227Y-63820804D01*
X167399495Y-63817204D01*
X167423999Y-63816000D01*
X168074001Y-63816000D01*
X168098505Y-63817204D01*
G37*
G36*
X185894505Y-59479204D02*
G01*
X185918773Y-59482804D01*
X185942572Y-59488765D01*
X185965671Y-59497030D01*
X185987850Y-59507520D01*
X186008893Y-59520132D01*
X186028599Y-59534747D01*
X186046777Y-59551223D01*
X186063253Y-59569401D01*
X186077868Y-59589107D01*
X186090480Y-59610150D01*
X186100970Y-59632329D01*
X186109235Y-59655428D01*
X186115196Y-59679227D01*
X186118796Y-59703495D01*
X186120000Y-59727999D01*
X186120000Y-60378001D01*
X186118796Y-60402505D01*
X186115196Y-60426773D01*
X186109235Y-60450572D01*
X186100970Y-60473671D01*
X186090480Y-60495850D01*
X186077868Y-60516893D01*
X186063253Y-60536599D01*
X186046777Y-60554777D01*
X186028599Y-60571253D01*
X186008893Y-60585868D01*
X185987850Y-60598480D01*
X185965671Y-60608970D01*
X185942572Y-60617235D01*
X185918773Y-60623196D01*
X185894505Y-60626796D01*
X185870001Y-60628000D01*
X184969999Y-60628000D01*
X184945495Y-60626796D01*
X184921227Y-60623196D01*
X184897428Y-60617235D01*
X184874329Y-60608970D01*
X184852150Y-60598480D01*
X184831107Y-60585868D01*
X184811401Y-60571253D01*
X184793223Y-60554777D01*
X184776747Y-60536599D01*
X184762132Y-60516893D01*
X184749520Y-60495850D01*
X184739030Y-60473671D01*
X184730765Y-60450572D01*
X184724804Y-60426773D01*
X184721204Y-60402505D01*
X184720000Y-60378001D01*
X184720000Y-59727999D01*
X184721204Y-59703495D01*
X184724804Y-59679227D01*
X184730765Y-59655428D01*
X184739030Y-59632329D01*
X184749520Y-59610150D01*
X184762132Y-59589107D01*
X184776747Y-59569401D01*
X184793223Y-59551223D01*
X184811401Y-59534747D01*
X184831107Y-59520132D01*
X184852150Y-59507520D01*
X184874329Y-59497030D01*
X184897428Y-59488765D01*
X184921227Y-59482804D01*
X184945495Y-59479204D01*
X184969999Y-59478000D01*
X185870001Y-59478000D01*
X185894505Y-59479204D01*
G37*
G36*
X185894505Y-61529204D02*
G01*
X185918773Y-61532804D01*
X185942572Y-61538765D01*
X185965671Y-61547030D01*
X185987850Y-61557520D01*
X186008893Y-61570132D01*
X186028599Y-61584747D01*
X186046777Y-61601223D01*
X186063253Y-61619401D01*
X186077868Y-61639107D01*
X186090480Y-61660150D01*
X186100970Y-61682329D01*
X186109235Y-61705428D01*
X186115196Y-61729227D01*
X186118796Y-61753495D01*
X186120000Y-61777999D01*
X186120000Y-62428001D01*
X186118796Y-62452505D01*
X186115196Y-62476773D01*
X186109235Y-62500572D01*
X186100970Y-62523671D01*
X186090480Y-62545850D01*
X186077868Y-62566893D01*
X186063253Y-62586599D01*
X186046777Y-62604777D01*
X186028599Y-62621253D01*
X186008893Y-62635868D01*
X185987850Y-62648480D01*
X185965671Y-62658970D01*
X185942572Y-62667235D01*
X185918773Y-62673196D01*
X185894505Y-62676796D01*
X185870001Y-62678000D01*
X184969999Y-62678000D01*
X184945495Y-62676796D01*
X184921227Y-62673196D01*
X184897428Y-62667235D01*
X184874329Y-62658970D01*
X184852150Y-62648480D01*
X184831107Y-62635868D01*
X184811401Y-62621253D01*
X184793223Y-62604777D01*
X184776747Y-62586599D01*
X184762132Y-62566893D01*
X184749520Y-62545850D01*
X184739030Y-62523671D01*
X184730765Y-62500572D01*
X184724804Y-62476773D01*
X184721204Y-62452505D01*
X184720000Y-62428001D01*
X184720000Y-61777999D01*
X184721204Y-61753495D01*
X184724804Y-61729227D01*
X184730765Y-61705428D01*
X184739030Y-61682329D01*
X184749520Y-61660150D01*
X184762132Y-61639107D01*
X184776747Y-61619401D01*
X184793223Y-61601223D01*
X184811401Y-61584747D01*
X184831107Y-61570132D01*
X184852150Y-61557520D01*
X184874329Y-61547030D01*
X184897428Y-61538765D01*
X184921227Y-61532804D01*
X184945495Y-61529204D01*
X184969999Y-61528000D01*
X185870001Y-61528000D01*
X185894505Y-61529204D01*
G37*
D14*
X175498000Y-74041000D03*
X173498000Y-74991000D03*
X173498000Y-73091000D03*
X177435000Y-73091000D03*
X177435000Y-74991000D03*
X179435000Y-74041000D03*
D11*
G36*
X171808505Y-65849204D02*
G01*
X171832773Y-65852804D01*
X171856572Y-65858765D01*
X171879671Y-65867030D01*
X171901850Y-65877520D01*
X171922893Y-65890132D01*
X171942599Y-65904747D01*
X171960777Y-65921223D01*
X171977253Y-65939401D01*
X171991868Y-65959107D01*
X172004480Y-65980150D01*
X172014970Y-66002329D01*
X172023235Y-66025428D01*
X172029196Y-66049227D01*
X172032796Y-66073495D01*
X172034000Y-66097999D01*
X172034000Y-66998001D01*
X172032796Y-67022505D01*
X172029196Y-67046773D01*
X172023235Y-67070572D01*
X172014970Y-67093671D01*
X172004480Y-67115850D01*
X171991868Y-67136893D01*
X171977253Y-67156599D01*
X171960777Y-67174777D01*
X171942599Y-67191253D01*
X171922893Y-67205868D01*
X171901850Y-67218480D01*
X171879671Y-67228970D01*
X171856572Y-67237235D01*
X171832773Y-67243196D01*
X171808505Y-67246796D01*
X171784001Y-67248000D01*
X171133999Y-67248000D01*
X171109495Y-67246796D01*
X171085227Y-67243196D01*
X171061428Y-67237235D01*
X171038329Y-67228970D01*
X171016150Y-67218480D01*
X170995107Y-67205868D01*
X170975401Y-67191253D01*
X170957223Y-67174777D01*
X170940747Y-67156599D01*
X170926132Y-67136893D01*
X170913520Y-67115850D01*
X170903030Y-67093671D01*
X170894765Y-67070572D01*
X170888804Y-67046773D01*
X170885204Y-67022505D01*
X170884000Y-66998001D01*
X170884000Y-66097999D01*
X170885204Y-66073495D01*
X170888804Y-66049227D01*
X170894765Y-66025428D01*
X170903030Y-66002329D01*
X170913520Y-65980150D01*
X170926132Y-65959107D01*
X170940747Y-65939401D01*
X170957223Y-65921223D01*
X170975401Y-65904747D01*
X170995107Y-65890132D01*
X171016150Y-65877520D01*
X171038329Y-65867030D01*
X171061428Y-65858765D01*
X171085227Y-65852804D01*
X171109495Y-65849204D01*
X171133999Y-65848000D01*
X171784001Y-65848000D01*
X171808505Y-65849204D01*
G37*
G36*
X169758505Y-65849204D02*
G01*
X169782773Y-65852804D01*
X169806572Y-65858765D01*
X169829671Y-65867030D01*
X169851850Y-65877520D01*
X169872893Y-65890132D01*
X169892599Y-65904747D01*
X169910777Y-65921223D01*
X169927253Y-65939401D01*
X169941868Y-65959107D01*
X169954480Y-65980150D01*
X169964970Y-66002329D01*
X169973235Y-66025428D01*
X169979196Y-66049227D01*
X169982796Y-66073495D01*
X169984000Y-66097999D01*
X169984000Y-66998001D01*
X169982796Y-67022505D01*
X169979196Y-67046773D01*
X169973235Y-67070572D01*
X169964970Y-67093671D01*
X169954480Y-67115850D01*
X169941868Y-67136893D01*
X169927253Y-67156599D01*
X169910777Y-67174777D01*
X169892599Y-67191253D01*
X169872893Y-67205868D01*
X169851850Y-67218480D01*
X169829671Y-67228970D01*
X169806572Y-67237235D01*
X169782773Y-67243196D01*
X169758505Y-67246796D01*
X169734001Y-67248000D01*
X169083999Y-67248000D01*
X169059495Y-67246796D01*
X169035227Y-67243196D01*
X169011428Y-67237235D01*
X168988329Y-67228970D01*
X168966150Y-67218480D01*
X168945107Y-67205868D01*
X168925401Y-67191253D01*
X168907223Y-67174777D01*
X168890747Y-67156599D01*
X168876132Y-67136893D01*
X168863520Y-67115850D01*
X168853030Y-67093671D01*
X168844765Y-67070572D01*
X168838804Y-67046773D01*
X168835204Y-67022505D01*
X168834000Y-66998001D01*
X168834000Y-66097999D01*
X168835204Y-66073495D01*
X168838804Y-66049227D01*
X168844765Y-66025428D01*
X168853030Y-66002329D01*
X168863520Y-65980150D01*
X168876132Y-65959107D01*
X168890747Y-65939401D01*
X168907223Y-65921223D01*
X168925401Y-65904747D01*
X168945107Y-65890132D01*
X168966150Y-65877520D01*
X168988329Y-65867030D01*
X169011428Y-65858765D01*
X169035227Y-65852804D01*
X169059495Y-65849204D01*
X169083999Y-65848000D01*
X169734001Y-65848000D01*
X169758505Y-65849204D01*
G37*
G36*
X175990505Y-70294204D02*
G01*
X176014773Y-70297804D01*
X176038572Y-70303765D01*
X176061671Y-70312030D01*
X176083850Y-70322520D01*
X176104893Y-70335132D01*
X176124599Y-70349747D01*
X176142777Y-70366223D01*
X176159253Y-70384401D01*
X176173868Y-70404107D01*
X176186480Y-70425150D01*
X176196970Y-70447329D01*
X176205235Y-70470428D01*
X176211196Y-70494227D01*
X176214796Y-70518495D01*
X176216000Y-70542999D01*
X176216000Y-71443001D01*
X176214796Y-71467505D01*
X176211196Y-71491773D01*
X176205235Y-71515572D01*
X176196970Y-71538671D01*
X176186480Y-71560850D01*
X176173868Y-71581893D01*
X176159253Y-71601599D01*
X176142777Y-71619777D01*
X176124599Y-71636253D01*
X176104893Y-71650868D01*
X176083850Y-71663480D01*
X176061671Y-71673970D01*
X176038572Y-71682235D01*
X176014773Y-71688196D01*
X175990505Y-71691796D01*
X175966001Y-71693000D01*
X175315999Y-71693000D01*
X175291495Y-71691796D01*
X175267227Y-71688196D01*
X175243428Y-71682235D01*
X175220329Y-71673970D01*
X175198150Y-71663480D01*
X175177107Y-71650868D01*
X175157401Y-71636253D01*
X175139223Y-71619777D01*
X175122747Y-71601599D01*
X175108132Y-71581893D01*
X175095520Y-71560850D01*
X175085030Y-71538671D01*
X175076765Y-71515572D01*
X175070804Y-71491773D01*
X175067204Y-71467505D01*
X175066000Y-71443001D01*
X175066000Y-70542999D01*
X175067204Y-70518495D01*
X175070804Y-70494227D01*
X175076765Y-70470428D01*
X175085030Y-70447329D01*
X175095520Y-70425150D01*
X175108132Y-70404107D01*
X175122747Y-70384401D01*
X175139223Y-70366223D01*
X175157401Y-70349747D01*
X175177107Y-70335132D01*
X175198150Y-70322520D01*
X175220329Y-70312030D01*
X175243428Y-70303765D01*
X175267227Y-70297804D01*
X175291495Y-70294204D01*
X175315999Y-70293000D01*
X175966001Y-70293000D01*
X175990505Y-70294204D01*
G37*
G36*
X173940505Y-70294204D02*
G01*
X173964773Y-70297804D01*
X173988572Y-70303765D01*
X174011671Y-70312030D01*
X174033850Y-70322520D01*
X174054893Y-70335132D01*
X174074599Y-70349747D01*
X174092777Y-70366223D01*
X174109253Y-70384401D01*
X174123868Y-70404107D01*
X174136480Y-70425150D01*
X174146970Y-70447329D01*
X174155235Y-70470428D01*
X174161196Y-70494227D01*
X174164796Y-70518495D01*
X174166000Y-70542999D01*
X174166000Y-71443001D01*
X174164796Y-71467505D01*
X174161196Y-71491773D01*
X174155235Y-71515572D01*
X174146970Y-71538671D01*
X174136480Y-71560850D01*
X174123868Y-71581893D01*
X174109253Y-71601599D01*
X174092777Y-71619777D01*
X174074599Y-71636253D01*
X174054893Y-71650868D01*
X174033850Y-71663480D01*
X174011671Y-71673970D01*
X173988572Y-71682235D01*
X173964773Y-71688196D01*
X173940505Y-71691796D01*
X173916001Y-71693000D01*
X173265999Y-71693000D01*
X173241495Y-71691796D01*
X173217227Y-71688196D01*
X173193428Y-71682235D01*
X173170329Y-71673970D01*
X173148150Y-71663480D01*
X173127107Y-71650868D01*
X173107401Y-71636253D01*
X173089223Y-71619777D01*
X173072747Y-71601599D01*
X173058132Y-71581893D01*
X173045520Y-71560850D01*
X173035030Y-71538671D01*
X173026765Y-71515572D01*
X173020804Y-71491773D01*
X173017204Y-71467505D01*
X173016000Y-71443001D01*
X173016000Y-70542999D01*
X173017204Y-70518495D01*
X173020804Y-70494227D01*
X173026765Y-70470428D01*
X173035030Y-70447329D01*
X173045520Y-70425150D01*
X173058132Y-70404107D01*
X173072747Y-70384401D01*
X173089223Y-70366223D01*
X173107401Y-70349747D01*
X173127107Y-70335132D01*
X173148150Y-70322520D01*
X173170329Y-70312030D01*
X173193428Y-70303765D01*
X173217227Y-70297804D01*
X173241495Y-70294204D01*
X173265999Y-70293000D01*
X173916001Y-70293000D01*
X173940505Y-70294204D01*
G37*
G36*
X177696005Y-76390204D02*
G01*
X177720273Y-76393804D01*
X177744072Y-76399765D01*
X177767171Y-76408030D01*
X177789350Y-76418520D01*
X177810393Y-76431132D01*
X177830099Y-76445747D01*
X177848277Y-76462223D01*
X177864753Y-76480401D01*
X177879368Y-76500107D01*
X177891980Y-76521150D01*
X177902470Y-76543329D01*
X177910735Y-76566428D01*
X177916696Y-76590227D01*
X177920296Y-76614495D01*
X177921500Y-76638999D01*
X177921500Y-77539001D01*
X177920296Y-77563505D01*
X177916696Y-77587773D01*
X177910735Y-77611572D01*
X177902470Y-77634671D01*
X177891980Y-77656850D01*
X177879368Y-77677893D01*
X177864753Y-77697599D01*
X177848277Y-77715777D01*
X177830099Y-77732253D01*
X177810393Y-77746868D01*
X177789350Y-77759480D01*
X177767171Y-77769970D01*
X177744072Y-77778235D01*
X177720273Y-77784196D01*
X177696005Y-77787796D01*
X177671501Y-77789000D01*
X177021499Y-77789000D01*
X176996995Y-77787796D01*
X176972727Y-77784196D01*
X176948928Y-77778235D01*
X176925829Y-77769970D01*
X176903650Y-77759480D01*
X176882607Y-77746868D01*
X176862901Y-77732253D01*
X176844723Y-77715777D01*
X176828247Y-77697599D01*
X176813632Y-77677893D01*
X176801020Y-77656850D01*
X176790530Y-77634671D01*
X176782265Y-77611572D01*
X176776304Y-77587773D01*
X176772704Y-77563505D01*
X176771500Y-77539001D01*
X176771500Y-76638999D01*
X176772704Y-76614495D01*
X176776304Y-76590227D01*
X176782265Y-76566428D01*
X176790530Y-76543329D01*
X176801020Y-76521150D01*
X176813632Y-76500107D01*
X176828247Y-76480401D01*
X176844723Y-76462223D01*
X176862901Y-76445747D01*
X176882607Y-76431132D01*
X176903650Y-76418520D01*
X176925829Y-76408030D01*
X176948928Y-76399765D01*
X176972727Y-76393804D01*
X176996995Y-76390204D01*
X177021499Y-76389000D01*
X177671501Y-76389000D01*
X177696005Y-76390204D01*
G37*
G36*
X179746005Y-76390204D02*
G01*
X179770273Y-76393804D01*
X179794072Y-76399765D01*
X179817171Y-76408030D01*
X179839350Y-76418520D01*
X179860393Y-76431132D01*
X179880099Y-76445747D01*
X179898277Y-76462223D01*
X179914753Y-76480401D01*
X179929368Y-76500107D01*
X179941980Y-76521150D01*
X179952470Y-76543329D01*
X179960735Y-76566428D01*
X179966696Y-76590227D01*
X179970296Y-76614495D01*
X179971500Y-76638999D01*
X179971500Y-77539001D01*
X179970296Y-77563505D01*
X179966696Y-77587773D01*
X179960735Y-77611572D01*
X179952470Y-77634671D01*
X179941980Y-77656850D01*
X179929368Y-77677893D01*
X179914753Y-77697599D01*
X179898277Y-77715777D01*
X179880099Y-77732253D01*
X179860393Y-77746868D01*
X179839350Y-77759480D01*
X179817171Y-77769970D01*
X179794072Y-77778235D01*
X179770273Y-77784196D01*
X179746005Y-77787796D01*
X179721501Y-77789000D01*
X179071499Y-77789000D01*
X179046995Y-77787796D01*
X179022727Y-77784196D01*
X178998928Y-77778235D01*
X178975829Y-77769970D01*
X178953650Y-77759480D01*
X178932607Y-77746868D01*
X178912901Y-77732253D01*
X178894723Y-77715777D01*
X178878247Y-77697599D01*
X178863632Y-77677893D01*
X178851020Y-77656850D01*
X178840530Y-77634671D01*
X178832265Y-77611572D01*
X178826304Y-77587773D01*
X178822704Y-77563505D01*
X178821500Y-77539001D01*
X178821500Y-76638999D01*
X178822704Y-76614495D01*
X178826304Y-76590227D01*
X178832265Y-76566428D01*
X178840530Y-76543329D01*
X178851020Y-76521150D01*
X178863632Y-76500107D01*
X178878247Y-76480401D01*
X178894723Y-76462223D01*
X178912901Y-76445747D01*
X178932607Y-76431132D01*
X178953650Y-76418520D01*
X178975829Y-76408030D01*
X178998928Y-76399765D01*
X179022727Y-76393804D01*
X179046995Y-76390204D01*
X179071499Y-76389000D01*
X179721501Y-76389000D01*
X179746005Y-76390204D01*
G37*
G36*
X181578505Y-67881204D02*
G01*
X181602773Y-67884804D01*
X181626572Y-67890765D01*
X181649671Y-67899030D01*
X181671850Y-67909520D01*
X181692893Y-67922132D01*
X181712599Y-67936747D01*
X181730777Y-67953223D01*
X181747253Y-67971401D01*
X181761868Y-67991107D01*
X181774480Y-68012150D01*
X181784970Y-68034329D01*
X181793235Y-68057428D01*
X181799196Y-68081227D01*
X181802796Y-68105495D01*
X181804000Y-68129999D01*
X181804000Y-69030001D01*
X181802796Y-69054505D01*
X181799196Y-69078773D01*
X181793235Y-69102572D01*
X181784970Y-69125671D01*
X181774480Y-69147850D01*
X181761868Y-69168893D01*
X181747253Y-69188599D01*
X181730777Y-69206777D01*
X181712599Y-69223253D01*
X181692893Y-69237868D01*
X181671850Y-69250480D01*
X181649671Y-69260970D01*
X181626572Y-69269235D01*
X181602773Y-69275196D01*
X181578505Y-69278796D01*
X181554001Y-69280000D01*
X180903999Y-69280000D01*
X180879495Y-69278796D01*
X180855227Y-69275196D01*
X180831428Y-69269235D01*
X180808329Y-69260970D01*
X180786150Y-69250480D01*
X180765107Y-69237868D01*
X180745401Y-69223253D01*
X180727223Y-69206777D01*
X180710747Y-69188599D01*
X180696132Y-69168893D01*
X180683520Y-69147850D01*
X180673030Y-69125671D01*
X180664765Y-69102572D01*
X180658804Y-69078773D01*
X180655204Y-69054505D01*
X180654000Y-69030001D01*
X180654000Y-68129999D01*
X180655204Y-68105495D01*
X180658804Y-68081227D01*
X180664765Y-68057428D01*
X180673030Y-68034329D01*
X180683520Y-68012150D01*
X180696132Y-67991107D01*
X180710747Y-67971401D01*
X180727223Y-67953223D01*
X180745401Y-67936747D01*
X180765107Y-67922132D01*
X180786150Y-67909520D01*
X180808329Y-67899030D01*
X180831428Y-67890765D01*
X180855227Y-67884804D01*
X180879495Y-67881204D01*
X180903999Y-67880000D01*
X181554001Y-67880000D01*
X181578505Y-67881204D01*
G37*
G36*
X179528505Y-67881204D02*
G01*
X179552773Y-67884804D01*
X179576572Y-67890765D01*
X179599671Y-67899030D01*
X179621850Y-67909520D01*
X179642893Y-67922132D01*
X179662599Y-67936747D01*
X179680777Y-67953223D01*
X179697253Y-67971401D01*
X179711868Y-67991107D01*
X179724480Y-68012150D01*
X179734970Y-68034329D01*
X179743235Y-68057428D01*
X179749196Y-68081227D01*
X179752796Y-68105495D01*
X179754000Y-68129999D01*
X179754000Y-69030001D01*
X179752796Y-69054505D01*
X179749196Y-69078773D01*
X179743235Y-69102572D01*
X179734970Y-69125671D01*
X179724480Y-69147850D01*
X179711868Y-69168893D01*
X179697253Y-69188599D01*
X179680777Y-69206777D01*
X179662599Y-69223253D01*
X179642893Y-69237868D01*
X179621850Y-69250480D01*
X179599671Y-69260970D01*
X179576572Y-69269235D01*
X179552773Y-69275196D01*
X179528505Y-69278796D01*
X179504001Y-69280000D01*
X178853999Y-69280000D01*
X178829495Y-69278796D01*
X178805227Y-69275196D01*
X178781428Y-69269235D01*
X178758329Y-69260970D01*
X178736150Y-69250480D01*
X178715107Y-69237868D01*
X178695401Y-69223253D01*
X178677223Y-69206777D01*
X178660747Y-69188599D01*
X178646132Y-69168893D01*
X178633520Y-69147850D01*
X178623030Y-69125671D01*
X178614765Y-69102572D01*
X178608804Y-69078773D01*
X178605204Y-69054505D01*
X178604000Y-69030001D01*
X178604000Y-68129999D01*
X178605204Y-68105495D01*
X178608804Y-68081227D01*
X178614765Y-68057428D01*
X178623030Y-68034329D01*
X178633520Y-68012150D01*
X178646132Y-67991107D01*
X178660747Y-67971401D01*
X178677223Y-67953223D01*
X178695401Y-67936747D01*
X178715107Y-67922132D01*
X178736150Y-67909520D01*
X178758329Y-67899030D01*
X178781428Y-67890765D01*
X178805227Y-67884804D01*
X178829495Y-67881204D01*
X178853999Y-67880000D01*
X179504001Y-67880000D01*
X179528505Y-67881204D01*
G37*
G36*
X173940505Y-65442804D02*
G01*
X173964773Y-65446404D01*
X173988572Y-65452365D01*
X174011671Y-65460630D01*
X174033850Y-65471120D01*
X174054893Y-65483732D01*
X174074599Y-65498347D01*
X174092777Y-65514823D01*
X174109253Y-65533001D01*
X174123868Y-65552707D01*
X174136480Y-65573750D01*
X174146970Y-65595929D01*
X174155235Y-65619028D01*
X174161196Y-65642827D01*
X174164796Y-65667095D01*
X174166000Y-65691599D01*
X174166000Y-66591601D01*
X174164796Y-66616105D01*
X174161196Y-66640373D01*
X174155235Y-66664172D01*
X174146970Y-66687271D01*
X174136480Y-66709450D01*
X174123868Y-66730493D01*
X174109253Y-66750199D01*
X174092777Y-66768377D01*
X174074599Y-66784853D01*
X174054893Y-66799468D01*
X174033850Y-66812080D01*
X174011671Y-66822570D01*
X173988572Y-66830835D01*
X173964773Y-66836796D01*
X173940505Y-66840396D01*
X173916001Y-66841600D01*
X173265999Y-66841600D01*
X173241495Y-66840396D01*
X173217227Y-66836796D01*
X173193428Y-66830835D01*
X173170329Y-66822570D01*
X173148150Y-66812080D01*
X173127107Y-66799468D01*
X173107401Y-66784853D01*
X173089223Y-66768377D01*
X173072747Y-66750199D01*
X173058132Y-66730493D01*
X173045520Y-66709450D01*
X173035030Y-66687271D01*
X173026765Y-66664172D01*
X173020804Y-66640373D01*
X173017204Y-66616105D01*
X173016000Y-66591601D01*
X173016000Y-65691599D01*
X173017204Y-65667095D01*
X173020804Y-65642827D01*
X173026765Y-65619028D01*
X173035030Y-65595929D01*
X173045520Y-65573750D01*
X173058132Y-65552707D01*
X173072747Y-65533001D01*
X173089223Y-65514823D01*
X173107401Y-65498347D01*
X173127107Y-65483732D01*
X173148150Y-65471120D01*
X173170329Y-65460630D01*
X173193428Y-65452365D01*
X173217227Y-65446404D01*
X173241495Y-65442804D01*
X173265999Y-65441600D01*
X173916001Y-65441600D01*
X173940505Y-65442804D01*
G37*
G36*
X175990505Y-65442804D02*
G01*
X176014773Y-65446404D01*
X176038572Y-65452365D01*
X176061671Y-65460630D01*
X176083850Y-65471120D01*
X176104893Y-65483732D01*
X176124599Y-65498347D01*
X176142777Y-65514823D01*
X176159253Y-65533001D01*
X176173868Y-65552707D01*
X176186480Y-65573750D01*
X176196970Y-65595929D01*
X176205235Y-65619028D01*
X176211196Y-65642827D01*
X176214796Y-65667095D01*
X176216000Y-65691599D01*
X176216000Y-66591601D01*
X176214796Y-66616105D01*
X176211196Y-66640373D01*
X176205235Y-66664172D01*
X176196970Y-66687271D01*
X176186480Y-66709450D01*
X176173868Y-66730493D01*
X176159253Y-66750199D01*
X176142777Y-66768377D01*
X176124599Y-66784853D01*
X176104893Y-66799468D01*
X176083850Y-66812080D01*
X176061671Y-66822570D01*
X176038572Y-66830835D01*
X176014773Y-66836796D01*
X175990505Y-66840396D01*
X175966001Y-66841600D01*
X175315999Y-66841600D01*
X175291495Y-66840396D01*
X175267227Y-66836796D01*
X175243428Y-66830835D01*
X175220329Y-66822570D01*
X175198150Y-66812080D01*
X175177107Y-66799468D01*
X175157401Y-66784853D01*
X175139223Y-66768377D01*
X175122747Y-66750199D01*
X175108132Y-66730493D01*
X175095520Y-66709450D01*
X175085030Y-66687271D01*
X175076765Y-66664172D01*
X175070804Y-66640373D01*
X175067204Y-66616105D01*
X175066000Y-66591601D01*
X175066000Y-65691599D01*
X175067204Y-65667095D01*
X175070804Y-65642827D01*
X175076765Y-65619028D01*
X175085030Y-65595929D01*
X175095520Y-65573750D01*
X175108132Y-65552707D01*
X175122747Y-65533001D01*
X175139223Y-65514823D01*
X175157401Y-65498347D01*
X175177107Y-65483732D01*
X175198150Y-65471120D01*
X175220329Y-65460630D01*
X175243428Y-65452365D01*
X175267227Y-65446404D01*
X175291495Y-65442804D01*
X175315999Y-65441600D01*
X175966001Y-65441600D01*
X175990505Y-65442804D01*
G37*
G36*
X175990505Y-78422204D02*
G01*
X176014773Y-78425804D01*
X176038572Y-78431765D01*
X176061671Y-78440030D01*
X176083850Y-78450520D01*
X176104893Y-78463132D01*
X176124599Y-78477747D01*
X176142777Y-78494223D01*
X176159253Y-78512401D01*
X176173868Y-78532107D01*
X176186480Y-78553150D01*
X176196970Y-78575329D01*
X176205235Y-78598428D01*
X176211196Y-78622227D01*
X176214796Y-78646495D01*
X176216000Y-78670999D01*
X176216000Y-79571001D01*
X176214796Y-79595505D01*
X176211196Y-79619773D01*
X176205235Y-79643572D01*
X176196970Y-79666671D01*
X176186480Y-79688850D01*
X176173868Y-79709893D01*
X176159253Y-79729599D01*
X176142777Y-79747777D01*
X176124599Y-79764253D01*
X176104893Y-79778868D01*
X176083850Y-79791480D01*
X176061671Y-79801970D01*
X176038572Y-79810235D01*
X176014773Y-79816196D01*
X175990505Y-79819796D01*
X175966001Y-79821000D01*
X175315999Y-79821000D01*
X175291495Y-79819796D01*
X175267227Y-79816196D01*
X175243428Y-79810235D01*
X175220329Y-79801970D01*
X175198150Y-79791480D01*
X175177107Y-79778868D01*
X175157401Y-79764253D01*
X175139223Y-79747777D01*
X175122747Y-79729599D01*
X175108132Y-79709893D01*
X175095520Y-79688850D01*
X175085030Y-79666671D01*
X175076765Y-79643572D01*
X175070804Y-79619773D01*
X175067204Y-79595505D01*
X175066000Y-79571001D01*
X175066000Y-78670999D01*
X175067204Y-78646495D01*
X175070804Y-78622227D01*
X175076765Y-78598428D01*
X175085030Y-78575329D01*
X175095520Y-78553150D01*
X175108132Y-78532107D01*
X175122747Y-78512401D01*
X175139223Y-78494223D01*
X175157401Y-78477747D01*
X175177107Y-78463132D01*
X175198150Y-78450520D01*
X175220329Y-78440030D01*
X175243428Y-78431765D01*
X175267227Y-78425804D01*
X175291495Y-78422204D01*
X175315999Y-78421000D01*
X175966001Y-78421000D01*
X175990505Y-78422204D01*
G37*
G36*
X173940505Y-78422204D02*
G01*
X173964773Y-78425804D01*
X173988572Y-78431765D01*
X174011671Y-78440030D01*
X174033850Y-78450520D01*
X174054893Y-78463132D01*
X174074599Y-78477747D01*
X174092777Y-78494223D01*
X174109253Y-78512401D01*
X174123868Y-78532107D01*
X174136480Y-78553150D01*
X174146970Y-78575329D01*
X174155235Y-78598428D01*
X174161196Y-78622227D01*
X174164796Y-78646495D01*
X174166000Y-78670999D01*
X174166000Y-79571001D01*
X174164796Y-79595505D01*
X174161196Y-79619773D01*
X174155235Y-79643572D01*
X174146970Y-79666671D01*
X174136480Y-79688850D01*
X174123868Y-79709893D01*
X174109253Y-79729599D01*
X174092777Y-79747777D01*
X174074599Y-79764253D01*
X174054893Y-79778868D01*
X174033850Y-79791480D01*
X174011671Y-79801970D01*
X173988572Y-79810235D01*
X173964773Y-79816196D01*
X173940505Y-79819796D01*
X173916001Y-79821000D01*
X173265999Y-79821000D01*
X173241495Y-79819796D01*
X173217227Y-79816196D01*
X173193428Y-79810235D01*
X173170329Y-79801970D01*
X173148150Y-79791480D01*
X173127107Y-79778868D01*
X173107401Y-79764253D01*
X173089223Y-79747777D01*
X173072747Y-79729599D01*
X173058132Y-79709893D01*
X173045520Y-79688850D01*
X173035030Y-79666671D01*
X173026765Y-79643572D01*
X173020804Y-79619773D01*
X173017204Y-79595505D01*
X173016000Y-79571001D01*
X173016000Y-78670999D01*
X173017204Y-78646495D01*
X173020804Y-78622227D01*
X173026765Y-78598428D01*
X173035030Y-78575329D01*
X173045520Y-78553150D01*
X173058132Y-78532107D01*
X173072747Y-78512401D01*
X173089223Y-78494223D01*
X173107401Y-78477747D01*
X173127107Y-78463132D01*
X173148150Y-78450520D01*
X173170329Y-78440030D01*
X173193428Y-78431765D01*
X173217227Y-78425804D01*
X173241495Y-78422204D01*
X173265999Y-78421000D01*
X173916001Y-78421000D01*
X173940505Y-78422204D01*
G37*
G36*
X177696005Y-78358704D02*
G01*
X177720273Y-78362304D01*
X177744072Y-78368265D01*
X177767171Y-78376530D01*
X177789350Y-78387020D01*
X177810393Y-78399632D01*
X177830099Y-78414247D01*
X177848277Y-78430723D01*
X177864753Y-78448901D01*
X177879368Y-78468607D01*
X177891980Y-78489650D01*
X177902470Y-78511829D01*
X177910735Y-78534928D01*
X177916696Y-78558727D01*
X177920296Y-78582995D01*
X177921500Y-78607499D01*
X177921500Y-79507501D01*
X177920296Y-79532005D01*
X177916696Y-79556273D01*
X177910735Y-79580072D01*
X177902470Y-79603171D01*
X177891980Y-79625350D01*
X177879368Y-79646393D01*
X177864753Y-79666099D01*
X177848277Y-79684277D01*
X177830099Y-79700753D01*
X177810393Y-79715368D01*
X177789350Y-79727980D01*
X177767171Y-79738470D01*
X177744072Y-79746735D01*
X177720273Y-79752696D01*
X177696005Y-79756296D01*
X177671501Y-79757500D01*
X177021499Y-79757500D01*
X176996995Y-79756296D01*
X176972727Y-79752696D01*
X176948928Y-79746735D01*
X176925829Y-79738470D01*
X176903650Y-79727980D01*
X176882607Y-79715368D01*
X176862901Y-79700753D01*
X176844723Y-79684277D01*
X176828247Y-79666099D01*
X176813632Y-79646393D01*
X176801020Y-79625350D01*
X176790530Y-79603171D01*
X176782265Y-79580072D01*
X176776304Y-79556273D01*
X176772704Y-79532005D01*
X176771500Y-79507501D01*
X176771500Y-78607499D01*
X176772704Y-78582995D01*
X176776304Y-78558727D01*
X176782265Y-78534928D01*
X176790530Y-78511829D01*
X176801020Y-78489650D01*
X176813632Y-78468607D01*
X176828247Y-78448901D01*
X176844723Y-78430723D01*
X176862901Y-78414247D01*
X176882607Y-78399632D01*
X176903650Y-78387020D01*
X176925829Y-78376530D01*
X176948928Y-78368265D01*
X176972727Y-78362304D01*
X176996995Y-78358704D01*
X177021499Y-78357500D01*
X177671501Y-78357500D01*
X177696005Y-78358704D01*
G37*
G36*
X179746005Y-78358704D02*
G01*
X179770273Y-78362304D01*
X179794072Y-78368265D01*
X179817171Y-78376530D01*
X179839350Y-78387020D01*
X179860393Y-78399632D01*
X179880099Y-78414247D01*
X179898277Y-78430723D01*
X179914753Y-78448901D01*
X179929368Y-78468607D01*
X179941980Y-78489650D01*
X179952470Y-78511829D01*
X179960735Y-78534928D01*
X179966696Y-78558727D01*
X179970296Y-78582995D01*
X179971500Y-78607499D01*
X179971500Y-79507501D01*
X179970296Y-79532005D01*
X179966696Y-79556273D01*
X179960735Y-79580072D01*
X179952470Y-79603171D01*
X179941980Y-79625350D01*
X179929368Y-79646393D01*
X179914753Y-79666099D01*
X179898277Y-79684277D01*
X179880099Y-79700753D01*
X179860393Y-79715368D01*
X179839350Y-79727980D01*
X179817171Y-79738470D01*
X179794072Y-79746735D01*
X179770273Y-79752696D01*
X179746005Y-79756296D01*
X179721501Y-79757500D01*
X179071499Y-79757500D01*
X179046995Y-79756296D01*
X179022727Y-79752696D01*
X178998928Y-79746735D01*
X178975829Y-79738470D01*
X178953650Y-79727980D01*
X178932607Y-79715368D01*
X178912901Y-79700753D01*
X178894723Y-79684277D01*
X178878247Y-79666099D01*
X178863632Y-79646393D01*
X178851020Y-79625350D01*
X178840530Y-79603171D01*
X178832265Y-79580072D01*
X178826304Y-79556273D01*
X178822704Y-79532005D01*
X178821500Y-79507501D01*
X178821500Y-78607499D01*
X178822704Y-78582995D01*
X178826304Y-78558727D01*
X178832265Y-78534928D01*
X178840530Y-78511829D01*
X178851020Y-78489650D01*
X178863632Y-78468607D01*
X178878247Y-78448901D01*
X178894723Y-78430723D01*
X178912901Y-78414247D01*
X178932607Y-78399632D01*
X178953650Y-78387020D01*
X178975829Y-78376530D01*
X178998928Y-78368265D01*
X179022727Y-78362304D01*
X179046995Y-78358704D01*
X179071499Y-78357500D01*
X179721501Y-78357500D01*
X179746005Y-78358704D01*
G37*
D15*
X181356000Y-73180000D03*
X181356000Y-76680000D03*
M02*
