G04 #@! TF.GenerationSoftware,KiCad,Pcbnew,5.1.5+dfsg1-2build2*
G04 #@! TF.CreationDate,2022-02-15T20:08:37+01:00*
G04 #@! TF.ProjectId,LIN_DISCO3,4c494e5f-4449-4534-934f-332e6b696361,rev?*
G04 #@! TF.SameCoordinates,Original*
G04 #@! TF.FileFunction,Copper,L2,Bot*
G04 #@! TF.FilePolarity,Positive*
%FSLAX46Y46*%
G04 Gerber Fmt 4.6, Leading zero omitted, Abs format (unit mm)*
G04 Created by KiCad (PCBNEW 5.1.5+dfsg1-2build2) date 2022-02-15 20:08:37*
%MOMM*%
%LPD*%
G04 APERTURE LIST*
%ADD10C,1.500000*%
%ADD11O,1.700000X1.700000*%
%ADD12R,1.700000X1.700000*%
%ADD13C,2.400000*%
%ADD14R,2.400000X2.400000*%
%ADD15C,0.800000*%
%ADD16C,0.500000*%
%ADD17C,0.250000*%
%ADD18C,0.254000*%
G04 APERTURE END LIST*
D10*
X168354400Y-60756800D03*
X163474400Y-60756800D03*
D11*
X157734000Y-67945000D03*
X157734000Y-70485000D03*
X157734000Y-73025000D03*
X157734000Y-75565000D03*
D12*
X157734000Y-78105000D03*
D13*
X190500000Y-60605000D03*
X190500000Y-64105000D03*
X190500000Y-67605000D03*
X190500000Y-71105000D03*
X190500000Y-74605000D03*
D14*
X190500000Y-78105000D03*
D15*
X187833000Y-71755000D03*
X167005000Y-76708000D03*
X171323000Y-58674000D03*
X164896800Y-74218800D03*
X168457600Y-74214000D03*
X180848000Y-78740000D03*
X172262800Y-75895200D03*
X170840400Y-64516000D03*
X174599600Y-75742800D03*
X176375000Y-75742800D03*
X175564800Y-68834000D03*
X176682400Y-64516000D03*
X187794000Y-76098400D03*
X184819689Y-69277400D03*
X179628800Y-71526400D03*
X174650400Y-71932800D03*
X177749200Y-59740800D03*
X177749200Y-61061600D03*
X177749200Y-62230000D03*
X178917600Y-62230000D03*
X178917600Y-61061600D03*
X180086000Y-61061600D03*
X180086000Y-62230000D03*
X181051200Y-62230000D03*
X181152800Y-61061600D03*
X182168800Y-61112400D03*
X182168800Y-62230000D03*
X183184800Y-62230000D03*
X183184800Y-61061600D03*
X183184800Y-59740800D03*
X183028259Y-63292659D03*
X182168800Y-63296800D03*
X181102000Y-63296800D03*
X180086000Y-63296800D03*
X164439600Y-79044800D03*
X182067200Y-78892400D03*
X172161200Y-77114400D03*
X175209200Y-67208400D03*
X165557200Y-72999600D03*
X181305200Y-74930000D03*
X182219600Y-69596000D03*
X172313600Y-68021200D03*
X172238148Y-69147830D03*
X184099200Y-67032800D03*
X168402000Y-75311000D03*
D16*
X187833000Y-66772000D02*
X190500000Y-64105000D01*
X187833000Y-71755000D02*
X187833000Y-66772000D01*
X158838001Y-76669001D02*
X158583999Y-76414999D01*
X158583999Y-76414999D02*
X157734000Y-75565000D01*
X167005000Y-76708000D02*
X158838001Y-76669001D01*
X164896800Y-74218800D02*
X168452800Y-74218800D01*
X168452800Y-74218800D02*
X168457600Y-74214000D01*
X180848000Y-78740000D02*
X180340000Y-79248000D01*
X180340000Y-79248000D02*
X173431200Y-79248000D01*
X173431200Y-79248000D02*
X173024800Y-78841600D01*
X173024800Y-76657200D02*
X172262800Y-75895200D01*
X173024800Y-78841600D02*
X173024800Y-76657200D01*
X170840400Y-59156600D02*
X171323000Y-58674000D01*
X170840400Y-64516000D02*
X170840400Y-59156600D01*
X174599600Y-75742800D02*
X176375000Y-75742800D01*
X176414801Y-67105199D02*
X175298802Y-65989200D01*
X176414801Y-67983999D02*
X176414801Y-67105199D01*
X175564800Y-68834000D02*
X176414801Y-67983999D01*
X175298802Y-65989200D02*
X171399200Y-65989200D01*
X170840400Y-65430400D02*
X170840400Y-64516000D01*
X171399200Y-65989200D02*
X170840400Y-65430400D01*
X176682400Y-64516000D02*
X176682400Y-59842400D01*
X175514000Y-58674000D02*
X171323000Y-58674000D01*
X176682400Y-59842400D02*
X175514000Y-58674000D01*
X187794000Y-71794000D02*
X187833000Y-71755000D01*
X187794000Y-76098400D02*
X187794000Y-71794000D01*
X180669203Y-69283569D02*
X180746400Y-67868800D01*
X176130485Y-68834000D02*
X176580054Y-69283569D01*
X175564800Y-68834000D02*
X176130485Y-68834000D01*
X183838278Y-68295989D02*
X184819689Y-69277400D01*
X180398431Y-69283569D02*
X181386011Y-68295989D01*
X181386011Y-68295989D02*
X183838278Y-68295989D01*
X176580054Y-69283569D02*
X180398431Y-69283569D01*
X180398431Y-69283569D02*
X180669203Y-69283569D01*
X179628800Y-71526400D02*
X179063115Y-71526400D01*
X175056800Y-71526400D02*
X174650400Y-71932800D01*
X179063115Y-71526400D02*
X175056800Y-71526400D01*
X177749200Y-59740800D02*
X177749200Y-61061600D01*
X177749200Y-62230000D02*
X178917600Y-62230000D01*
X178917600Y-61061600D02*
X180086000Y-61061600D01*
X180086000Y-62230000D02*
X181051200Y-62230000D01*
X182118000Y-61061600D02*
X182168800Y-61112400D01*
X181152800Y-61061600D02*
X182118000Y-61061600D01*
X182168800Y-62230000D02*
X183184800Y-62230000D01*
X183184800Y-61061600D02*
X183184800Y-59740800D01*
X182172941Y-63292659D02*
X182168800Y-63296800D01*
X183028259Y-63292659D02*
X182172941Y-63292659D01*
X181102000Y-63296800D02*
X180086000Y-63296800D01*
X164439600Y-79044800D02*
X167944800Y-79044800D01*
X170007611Y-76981989D02*
X170007611Y-71800389D01*
X167944800Y-79044800D02*
X170007611Y-76981989D01*
X170007611Y-71800389D02*
X169682822Y-71475600D01*
X169682822Y-71475600D02*
X164134800Y-71475600D01*
X164134800Y-71475600D02*
X163982400Y-71628000D01*
X163982400Y-73304400D02*
X164896800Y-74218800D01*
X163982400Y-71628000D02*
X163982400Y-73304400D01*
X182067200Y-78892400D02*
X181000400Y-79959200D01*
X181000400Y-79959200D02*
X173075600Y-79959200D01*
X172161200Y-79044800D02*
X172161200Y-77114400D01*
X173075600Y-79959200D02*
X172161200Y-79044800D01*
X171013589Y-75966789D02*
X171013589Y-67340011D01*
X172161200Y-77114400D02*
X171013589Y-75966789D01*
X174721989Y-66721189D02*
X175209200Y-67208400D01*
X171632411Y-66721189D02*
X174721989Y-66721189D01*
X171013589Y-67340011D02*
X171632411Y-66721189D01*
X159084000Y-78105000D02*
X157734000Y-78105000D01*
X169307601Y-75663401D02*
X166866002Y-78105000D01*
X169307601Y-73805999D02*
X169307601Y-75663401D01*
X168501202Y-72999600D02*
X169307601Y-73805999D01*
X166866002Y-78105000D02*
X159084000Y-78105000D01*
X165557200Y-72999600D02*
X168501202Y-72999600D01*
X190500000Y-60605000D02*
X187426000Y-60605000D01*
X187426000Y-60605000D02*
X186944000Y-61087000D01*
X186944000Y-61087000D02*
X186944000Y-77724000D01*
X187325000Y-78105000D02*
X190500000Y-78105000D01*
X186944000Y-77724000D02*
X187325000Y-78105000D01*
X184480200Y-78105000D02*
X181305200Y-74930000D01*
X190500000Y-78105000D02*
X184480200Y-78105000D01*
X182219600Y-69596000D02*
X181305200Y-70510400D01*
X173088149Y-70218149D02*
X173303589Y-70433589D01*
X173088149Y-68795749D02*
X173088149Y-70218149D01*
X172313600Y-68021200D02*
X173088149Y-68795749D01*
X181356000Y-71298437D02*
X181356000Y-71475600D01*
X180491152Y-70433589D02*
X181356000Y-71298437D01*
X173303589Y-70433589D02*
X180491152Y-70433589D01*
X181356000Y-71475600D02*
X181305200Y-74930000D01*
X181305200Y-70510400D02*
X181356000Y-71475600D01*
D17*
X171588599Y-68498281D02*
X172238148Y-69147830D01*
X180907379Y-69858579D02*
X174252579Y-69858579D01*
X174244000Y-69850000D02*
X173990000Y-69850000D01*
X181894959Y-68870999D02*
X180907379Y-69858579D01*
X173990000Y-69850000D02*
X173685200Y-69545200D01*
X173685200Y-69545200D02*
X173685200Y-67970400D01*
X173685200Y-67970400D02*
X173010999Y-67296199D01*
X173010999Y-67296199D02*
X171965599Y-67296199D01*
X171965599Y-67296199D02*
X171588599Y-67673199D01*
X174252579Y-69858579D02*
X174244000Y-69850000D01*
X171588599Y-67673199D02*
X171588599Y-68498281D01*
X182567601Y-68870999D02*
X183032400Y-69335798D01*
X181894959Y-68870999D02*
X182567601Y-68870999D01*
X183032400Y-69335798D02*
X183032400Y-69646800D01*
X183032400Y-69646800D02*
X183388000Y-70002400D01*
X186080400Y-70002400D02*
X186368990Y-69713810D01*
X183388000Y-70002400D02*
X186080400Y-70002400D01*
X186368990Y-69713810D02*
X186368990Y-67344590D01*
X186057200Y-67032800D02*
X184099200Y-67032800D01*
X186368990Y-67344590D02*
X186057200Y-67032800D01*
X160020000Y-75311000D02*
X157734000Y-73025000D01*
X168402000Y-75311000D02*
X160020000Y-75311000D01*
D18*
G36*
X193904000Y-79985000D02*
G01*
X182226179Y-79985000D01*
X182312244Y-79898935D01*
X182369098Y-79887626D01*
X182557456Y-79809605D01*
X182726974Y-79696337D01*
X182871137Y-79552174D01*
X182984405Y-79382656D01*
X183062426Y-79194298D01*
X183102200Y-78994339D01*
X183102200Y-78790461D01*
X183062426Y-78590502D01*
X182984405Y-78402144D01*
X182871137Y-78232626D01*
X182726974Y-78088463D01*
X182557456Y-77975195D01*
X182369098Y-77897174D01*
X182169139Y-77857400D01*
X181965261Y-77857400D01*
X181765302Y-77897174D01*
X181576944Y-77975195D01*
X181407426Y-78088463D01*
X181263263Y-78232626D01*
X181149995Y-78402144D01*
X181071974Y-78590502D01*
X181060665Y-78647356D01*
X180633822Y-79074200D01*
X173442179Y-79074200D01*
X173046200Y-78678222D01*
X173046200Y-77652854D01*
X173078405Y-77604656D01*
X173156426Y-77416298D01*
X173196200Y-77216339D01*
X173196200Y-77012461D01*
X173156426Y-76812502D01*
X173078405Y-76624144D01*
X172965137Y-76454626D01*
X172820974Y-76310463D01*
X172651456Y-76197195D01*
X172463098Y-76119174D01*
X172406244Y-76107865D01*
X171898589Y-75600211D01*
X171898589Y-70127456D01*
X171936250Y-70143056D01*
X172136209Y-70182830D01*
X172202346Y-70182830D01*
X172198868Y-70218149D01*
X172215954Y-70391639D01*
X172266561Y-70558462D01*
X172348739Y-70712208D01*
X172431617Y-70813195D01*
X172431620Y-70813198D01*
X172459333Y-70846966D01*
X172493101Y-70874679D01*
X172647055Y-71028633D01*
X172674772Y-71062406D01*
X172809530Y-71173000D01*
X172963276Y-71255178D01*
X173130099Y-71305784D01*
X173260112Y-71318589D01*
X173260122Y-71318589D01*
X173303588Y-71322870D01*
X173347054Y-71318589D01*
X180124574Y-71318589D01*
X180468161Y-71662176D01*
X180428199Y-74379574D01*
X180387995Y-74439744D01*
X180309974Y-74628102D01*
X180270200Y-74828061D01*
X180270200Y-75031939D01*
X180309974Y-75231898D01*
X180387995Y-75420256D01*
X180501263Y-75589774D01*
X180645426Y-75733937D01*
X180814944Y-75847205D01*
X181003302Y-75925226D01*
X181060157Y-75936535D01*
X183823670Y-78700049D01*
X183851383Y-78733817D01*
X183885151Y-78761530D01*
X183885153Y-78761532D01*
X183920403Y-78790461D01*
X183986141Y-78844411D01*
X184139887Y-78926589D01*
X184306710Y-78977195D01*
X184436723Y-78990000D01*
X184436733Y-78990000D01*
X184480199Y-78994281D01*
X184523666Y-78990000D01*
X187281533Y-78990000D01*
X187324999Y-78994281D01*
X187368465Y-78990000D01*
X188661928Y-78990000D01*
X188661928Y-79305000D01*
X188674188Y-79429482D01*
X188710498Y-79549180D01*
X188769463Y-79659494D01*
X188848815Y-79756185D01*
X188945506Y-79835537D01*
X189055820Y-79894502D01*
X189175518Y-79930812D01*
X189300000Y-79943072D01*
X191700000Y-79943072D01*
X191824482Y-79930812D01*
X191944180Y-79894502D01*
X192054494Y-79835537D01*
X192151185Y-79756185D01*
X192230537Y-79659494D01*
X192289502Y-79549180D01*
X192325812Y-79429482D01*
X192338072Y-79305000D01*
X192338072Y-76905000D01*
X192325812Y-76780518D01*
X192289502Y-76660820D01*
X192230537Y-76550506D01*
X192151185Y-76453815D01*
X192054494Y-76374463D01*
X191944180Y-76315498D01*
X191824482Y-76279188D01*
X191700000Y-76266928D01*
X191282838Y-76266928D01*
X191369199Y-76231156D01*
X191669744Y-76030338D01*
X191925338Y-75774744D01*
X192126156Y-75474199D01*
X192264482Y-75140250D01*
X192335000Y-74785732D01*
X192335000Y-74424268D01*
X192264482Y-74069750D01*
X192126156Y-73735801D01*
X191925338Y-73435256D01*
X191669744Y-73179662D01*
X191369199Y-72978844D01*
X191070213Y-72855000D01*
X191369199Y-72731156D01*
X191669744Y-72530338D01*
X191925338Y-72274744D01*
X192126156Y-71974199D01*
X192264482Y-71640250D01*
X192335000Y-71285732D01*
X192335000Y-70924268D01*
X192264482Y-70569750D01*
X192126156Y-70235801D01*
X191925338Y-69935256D01*
X191669744Y-69679662D01*
X191369199Y-69478844D01*
X191070213Y-69355000D01*
X191369199Y-69231156D01*
X191669744Y-69030338D01*
X191925338Y-68774744D01*
X192126156Y-68474199D01*
X192264482Y-68140250D01*
X192335000Y-67785732D01*
X192335000Y-67424268D01*
X192264482Y-67069750D01*
X192126156Y-66735801D01*
X191925338Y-66435256D01*
X191669744Y-66179662D01*
X191369199Y-65978844D01*
X191062511Y-65851810D01*
X191255833Y-65786846D01*
X191478486Y-65667836D01*
X191598374Y-65382980D01*
X190500000Y-64284605D01*
X189401626Y-65382980D01*
X189521514Y-65667836D01*
X189845210Y-65828699D01*
X189934690Y-65852969D01*
X189630801Y-65978844D01*
X189330256Y-66179662D01*
X189074662Y-66435256D01*
X188873844Y-66735801D01*
X188735518Y-67069750D01*
X188665000Y-67424268D01*
X188665000Y-67785732D01*
X188735518Y-68140250D01*
X188873844Y-68474199D01*
X189074662Y-68774744D01*
X189330256Y-69030338D01*
X189630801Y-69231156D01*
X189929787Y-69355000D01*
X189630801Y-69478844D01*
X189330256Y-69679662D01*
X189074662Y-69935256D01*
X188873844Y-70235801D01*
X188735518Y-70569750D01*
X188665000Y-70924268D01*
X188665000Y-71285732D01*
X188735518Y-71640250D01*
X188873844Y-71974199D01*
X189074662Y-72274744D01*
X189330256Y-72530338D01*
X189630801Y-72731156D01*
X189929787Y-72855000D01*
X189630801Y-72978844D01*
X189330256Y-73179662D01*
X189074662Y-73435256D01*
X188873844Y-73735801D01*
X188735518Y-74069750D01*
X188665000Y-74424268D01*
X188665000Y-74785732D01*
X188735518Y-75140250D01*
X188873844Y-75474199D01*
X189074662Y-75774744D01*
X189330256Y-76030338D01*
X189630801Y-76231156D01*
X189717162Y-76266928D01*
X189300000Y-76266928D01*
X189175518Y-76279188D01*
X189055820Y-76315498D01*
X188945506Y-76374463D01*
X188848815Y-76453815D01*
X188769463Y-76550506D01*
X188710498Y-76660820D01*
X188674188Y-76780518D01*
X188661928Y-76905000D01*
X188661928Y-77220000D01*
X187829000Y-77220000D01*
X187829000Y-64159684D01*
X188656933Y-64159684D01*
X188703015Y-64518198D01*
X188818154Y-64860833D01*
X188937164Y-65083486D01*
X189222020Y-65203374D01*
X190320395Y-64105000D01*
X190679605Y-64105000D01*
X191777980Y-65203374D01*
X192062836Y-65083486D01*
X192223699Y-64759790D01*
X192318322Y-64410931D01*
X192343067Y-64050316D01*
X192296985Y-63691802D01*
X192181846Y-63349167D01*
X192062836Y-63126514D01*
X191777980Y-63006626D01*
X190679605Y-64105000D01*
X190320395Y-64105000D01*
X189222020Y-63006626D01*
X188937164Y-63126514D01*
X188776301Y-63450210D01*
X188681678Y-63799069D01*
X188656933Y-64159684D01*
X187829000Y-64159684D01*
X187829000Y-61490000D01*
X188884402Y-61490000D01*
X189074662Y-61774744D01*
X189330256Y-62030338D01*
X189630801Y-62231156D01*
X189937489Y-62358190D01*
X189744167Y-62423154D01*
X189521514Y-62542164D01*
X189401626Y-62827020D01*
X190500000Y-63925395D01*
X191598374Y-62827020D01*
X191478486Y-62542164D01*
X191154790Y-62381301D01*
X191065310Y-62357031D01*
X191369199Y-62231156D01*
X191669744Y-62030338D01*
X191925338Y-61774744D01*
X192126156Y-61474199D01*
X192264482Y-61140250D01*
X192335000Y-60785732D01*
X192335000Y-60424268D01*
X192264482Y-60069750D01*
X192126156Y-59735801D01*
X191925338Y-59435256D01*
X191669744Y-59179662D01*
X191369199Y-58978844D01*
X191035250Y-58840518D01*
X190680732Y-58770000D01*
X190319268Y-58770000D01*
X189964750Y-58840518D01*
X189630801Y-58978844D01*
X189330256Y-59179662D01*
X189074662Y-59435256D01*
X188884402Y-59720000D01*
X187469469Y-59720000D01*
X187426000Y-59715719D01*
X187382531Y-59720000D01*
X187382523Y-59720000D01*
X187267306Y-59731348D01*
X187252509Y-59732805D01*
X187201903Y-59748157D01*
X187085687Y-59783411D01*
X186931941Y-59865589D01*
X186797183Y-59976183D01*
X186769466Y-60009956D01*
X186348956Y-60430466D01*
X186315183Y-60458183D01*
X186204589Y-60592942D01*
X186122411Y-60746688D01*
X186071805Y-60913511D01*
X186059000Y-61043524D01*
X186059000Y-61043531D01*
X186054719Y-61087000D01*
X186059000Y-61130469D01*
X186059000Y-66269301D01*
X186057200Y-66269124D01*
X186019878Y-66272800D01*
X184802911Y-66272800D01*
X184758974Y-66228863D01*
X184589456Y-66115595D01*
X184401098Y-66037574D01*
X184201139Y-65997800D01*
X183997261Y-65997800D01*
X183797302Y-66037574D01*
X183608944Y-66115595D01*
X183439426Y-66228863D01*
X183295263Y-66373026D01*
X183181995Y-66542544D01*
X183103974Y-66730902D01*
X183064200Y-66930861D01*
X183064200Y-67134739D01*
X183103974Y-67334698D01*
X183181995Y-67523056D01*
X183295263Y-67692574D01*
X183439426Y-67836737D01*
X183608944Y-67950005D01*
X183797302Y-68028026D01*
X183997261Y-68067800D01*
X184201139Y-68067800D01*
X184401098Y-68028026D01*
X184589456Y-67950005D01*
X184758974Y-67836737D01*
X184802911Y-67792800D01*
X185608991Y-67792800D01*
X185608990Y-69242400D01*
X183786878Y-69242400D01*
X183781403Y-69186812D01*
X183737946Y-69043551D01*
X183723447Y-69016426D01*
X183667374Y-68911521D01*
X183632431Y-68868944D01*
X183572401Y-68795797D01*
X183543398Y-68771995D01*
X183131405Y-68360002D01*
X183107602Y-68330998D01*
X182991877Y-68236025D01*
X182859848Y-68165453D01*
X182716587Y-68121996D01*
X182604934Y-68110999D01*
X182604923Y-68110999D01*
X182567601Y-68107323D01*
X182530279Y-68110999D01*
X181932281Y-68110999D01*
X181894958Y-68107323D01*
X181857635Y-68110999D01*
X181857626Y-68110999D01*
X181745973Y-68121996D01*
X181615417Y-68161599D01*
X181602712Y-68165453D01*
X181470682Y-68236025D01*
X181438245Y-68262646D01*
X181354958Y-68330998D01*
X181331160Y-68359996D01*
X180592578Y-69098579D01*
X174445200Y-69098579D01*
X174445200Y-68007722D01*
X174448876Y-67970399D01*
X174445200Y-67933076D01*
X174445200Y-67933067D01*
X174442473Y-67905384D01*
X174549426Y-68012337D01*
X174718944Y-68125605D01*
X174907302Y-68203626D01*
X175107261Y-68243400D01*
X175311139Y-68243400D01*
X175511098Y-68203626D01*
X175699456Y-68125605D01*
X175868974Y-68012337D01*
X176013137Y-67868174D01*
X176126405Y-67698656D01*
X176204426Y-67510298D01*
X176244200Y-67310339D01*
X176244200Y-67106461D01*
X176204426Y-66906502D01*
X176126405Y-66718144D01*
X176013137Y-66548626D01*
X175868974Y-66404463D01*
X175699456Y-66291195D01*
X175511098Y-66213174D01*
X175454243Y-66201865D01*
X175378523Y-66126145D01*
X175350806Y-66092372D01*
X175216048Y-65981778D01*
X175062302Y-65899600D01*
X174895479Y-65848994D01*
X174765466Y-65836189D01*
X174765458Y-65836189D01*
X174721989Y-65831908D01*
X174678520Y-65836189D01*
X171675876Y-65836189D01*
X171632410Y-65831908D01*
X171588944Y-65836189D01*
X171588934Y-65836189D01*
X171458921Y-65848994D01*
X171292098Y-65899600D01*
X171138352Y-65981778D01*
X171138350Y-65981779D01*
X171138351Y-65981779D01*
X171037364Y-66064657D01*
X171037362Y-66064659D01*
X171003594Y-66092372D01*
X170975881Y-66126140D01*
X170418540Y-66683482D01*
X170384773Y-66711194D01*
X170357060Y-66744962D01*
X170357057Y-66744965D01*
X170274179Y-66845952D01*
X170192001Y-66999698D01*
X170141394Y-67166521D01*
X170124308Y-67340011D01*
X170128590Y-67383490D01*
X170128589Y-73464562D01*
X170047012Y-73311940D01*
X169936418Y-73177182D01*
X169902651Y-73149470D01*
X169157736Y-72404556D01*
X169130019Y-72370783D01*
X168995261Y-72260189D01*
X168841515Y-72178011D01*
X168674692Y-72127405D01*
X168544679Y-72114600D01*
X168544671Y-72114600D01*
X168501202Y-72110319D01*
X168457733Y-72114600D01*
X166095654Y-72114600D01*
X166047456Y-72082395D01*
X165859098Y-72004374D01*
X165659139Y-71964600D01*
X165455261Y-71964600D01*
X165255302Y-72004374D01*
X165066944Y-72082395D01*
X164897426Y-72195663D01*
X164753263Y-72339826D01*
X164639995Y-72509344D01*
X164561974Y-72697702D01*
X164522200Y-72897661D01*
X164522200Y-73101539D01*
X164561974Y-73301498D01*
X164639995Y-73489856D01*
X164753263Y-73659374D01*
X164897426Y-73803537D01*
X165066944Y-73916805D01*
X165255302Y-73994826D01*
X165455261Y-74034600D01*
X165659139Y-74034600D01*
X165859098Y-73994826D01*
X166047456Y-73916805D01*
X166095654Y-73884600D01*
X168134624Y-73884600D01*
X168422601Y-74172578D01*
X168422601Y-74276000D01*
X168300061Y-74276000D01*
X168100102Y-74315774D01*
X167911744Y-74393795D01*
X167742226Y-74507063D01*
X167698289Y-74551000D01*
X160334802Y-74551000D01*
X159175209Y-73391408D01*
X159219000Y-73171260D01*
X159219000Y-72878740D01*
X159161932Y-72591842D01*
X159049990Y-72321589D01*
X158887475Y-72078368D01*
X158680632Y-71871525D01*
X158506240Y-71755000D01*
X158680632Y-71638475D01*
X158887475Y-71431632D01*
X159049990Y-71188411D01*
X159161932Y-70918158D01*
X159219000Y-70631260D01*
X159219000Y-70338740D01*
X159161932Y-70051842D01*
X159049990Y-69781589D01*
X158887475Y-69538368D01*
X158680632Y-69331525D01*
X158506240Y-69215000D01*
X158680632Y-69098475D01*
X158887475Y-68891632D01*
X159049990Y-68648411D01*
X159161932Y-68378158D01*
X159219000Y-68091260D01*
X159219000Y-67798740D01*
X159161932Y-67511842D01*
X159049990Y-67241589D01*
X158887475Y-66998368D01*
X158680632Y-66791525D01*
X158437411Y-66629010D01*
X158167158Y-66517068D01*
X157880260Y-66460000D01*
X157587740Y-66460000D01*
X157300842Y-66517068D01*
X157030589Y-66629010D01*
X156787368Y-66791525D01*
X156616000Y-66962893D01*
X156616000Y-60620389D01*
X162089400Y-60620389D01*
X162089400Y-60893211D01*
X162142625Y-61160789D01*
X162247029Y-61412843D01*
X162398601Y-61639686D01*
X162591514Y-61832599D01*
X162818357Y-61984171D01*
X163070411Y-62088575D01*
X163337989Y-62141800D01*
X163610811Y-62141800D01*
X163878389Y-62088575D01*
X164130443Y-61984171D01*
X164357286Y-61832599D01*
X164550199Y-61639686D01*
X164701771Y-61412843D01*
X164806175Y-61160789D01*
X164859400Y-60893211D01*
X164859400Y-60620389D01*
X166969400Y-60620389D01*
X166969400Y-60893211D01*
X167022625Y-61160789D01*
X167127029Y-61412843D01*
X167278601Y-61639686D01*
X167471514Y-61832599D01*
X167698357Y-61984171D01*
X167950411Y-62088575D01*
X168217989Y-62141800D01*
X168490811Y-62141800D01*
X168758389Y-62088575D01*
X169010443Y-61984171D01*
X169237286Y-61832599D01*
X169430199Y-61639686D01*
X169581771Y-61412843D01*
X169686175Y-61160789D01*
X169739400Y-60893211D01*
X169739400Y-60620389D01*
X169686175Y-60352811D01*
X169581771Y-60100757D01*
X169430199Y-59873914D01*
X169237286Y-59681001D01*
X169010443Y-59529429D01*
X168758389Y-59425025D01*
X168490811Y-59371800D01*
X168217989Y-59371800D01*
X167950411Y-59425025D01*
X167698357Y-59529429D01*
X167471514Y-59681001D01*
X167278601Y-59873914D01*
X167127029Y-60100757D01*
X167022625Y-60352811D01*
X166969400Y-60620389D01*
X164859400Y-60620389D01*
X164806175Y-60352811D01*
X164701771Y-60100757D01*
X164550199Y-59873914D01*
X164357286Y-59681001D01*
X164130443Y-59529429D01*
X163878389Y-59425025D01*
X163610811Y-59371800D01*
X163337989Y-59371800D01*
X163070411Y-59425025D01*
X162818357Y-59529429D01*
X162591514Y-59681001D01*
X162398601Y-59873914D01*
X162247029Y-60100757D01*
X162142625Y-60352811D01*
X162089400Y-60620389D01*
X156616000Y-60620389D01*
X156616000Y-58699000D01*
X193904001Y-58699000D01*
X193904000Y-79985000D01*
G37*
X193904000Y-79985000D02*
X182226179Y-79985000D01*
X182312244Y-79898935D01*
X182369098Y-79887626D01*
X182557456Y-79809605D01*
X182726974Y-79696337D01*
X182871137Y-79552174D01*
X182984405Y-79382656D01*
X183062426Y-79194298D01*
X183102200Y-78994339D01*
X183102200Y-78790461D01*
X183062426Y-78590502D01*
X182984405Y-78402144D01*
X182871137Y-78232626D01*
X182726974Y-78088463D01*
X182557456Y-77975195D01*
X182369098Y-77897174D01*
X182169139Y-77857400D01*
X181965261Y-77857400D01*
X181765302Y-77897174D01*
X181576944Y-77975195D01*
X181407426Y-78088463D01*
X181263263Y-78232626D01*
X181149995Y-78402144D01*
X181071974Y-78590502D01*
X181060665Y-78647356D01*
X180633822Y-79074200D01*
X173442179Y-79074200D01*
X173046200Y-78678222D01*
X173046200Y-77652854D01*
X173078405Y-77604656D01*
X173156426Y-77416298D01*
X173196200Y-77216339D01*
X173196200Y-77012461D01*
X173156426Y-76812502D01*
X173078405Y-76624144D01*
X172965137Y-76454626D01*
X172820974Y-76310463D01*
X172651456Y-76197195D01*
X172463098Y-76119174D01*
X172406244Y-76107865D01*
X171898589Y-75600211D01*
X171898589Y-70127456D01*
X171936250Y-70143056D01*
X172136209Y-70182830D01*
X172202346Y-70182830D01*
X172198868Y-70218149D01*
X172215954Y-70391639D01*
X172266561Y-70558462D01*
X172348739Y-70712208D01*
X172431617Y-70813195D01*
X172431620Y-70813198D01*
X172459333Y-70846966D01*
X172493101Y-70874679D01*
X172647055Y-71028633D01*
X172674772Y-71062406D01*
X172809530Y-71173000D01*
X172963276Y-71255178D01*
X173130099Y-71305784D01*
X173260112Y-71318589D01*
X173260122Y-71318589D01*
X173303588Y-71322870D01*
X173347054Y-71318589D01*
X180124574Y-71318589D01*
X180468161Y-71662176D01*
X180428199Y-74379574D01*
X180387995Y-74439744D01*
X180309974Y-74628102D01*
X180270200Y-74828061D01*
X180270200Y-75031939D01*
X180309974Y-75231898D01*
X180387995Y-75420256D01*
X180501263Y-75589774D01*
X180645426Y-75733937D01*
X180814944Y-75847205D01*
X181003302Y-75925226D01*
X181060157Y-75936535D01*
X183823670Y-78700049D01*
X183851383Y-78733817D01*
X183885151Y-78761530D01*
X183885153Y-78761532D01*
X183920403Y-78790461D01*
X183986141Y-78844411D01*
X184139887Y-78926589D01*
X184306710Y-78977195D01*
X184436723Y-78990000D01*
X184436733Y-78990000D01*
X184480199Y-78994281D01*
X184523666Y-78990000D01*
X187281533Y-78990000D01*
X187324999Y-78994281D01*
X187368465Y-78990000D01*
X188661928Y-78990000D01*
X188661928Y-79305000D01*
X188674188Y-79429482D01*
X188710498Y-79549180D01*
X188769463Y-79659494D01*
X188848815Y-79756185D01*
X188945506Y-79835537D01*
X189055820Y-79894502D01*
X189175518Y-79930812D01*
X189300000Y-79943072D01*
X191700000Y-79943072D01*
X191824482Y-79930812D01*
X191944180Y-79894502D01*
X192054494Y-79835537D01*
X192151185Y-79756185D01*
X192230537Y-79659494D01*
X192289502Y-79549180D01*
X192325812Y-79429482D01*
X192338072Y-79305000D01*
X192338072Y-76905000D01*
X192325812Y-76780518D01*
X192289502Y-76660820D01*
X192230537Y-76550506D01*
X192151185Y-76453815D01*
X192054494Y-76374463D01*
X191944180Y-76315498D01*
X191824482Y-76279188D01*
X191700000Y-76266928D01*
X191282838Y-76266928D01*
X191369199Y-76231156D01*
X191669744Y-76030338D01*
X191925338Y-75774744D01*
X192126156Y-75474199D01*
X192264482Y-75140250D01*
X192335000Y-74785732D01*
X192335000Y-74424268D01*
X192264482Y-74069750D01*
X192126156Y-73735801D01*
X191925338Y-73435256D01*
X191669744Y-73179662D01*
X191369199Y-72978844D01*
X191070213Y-72855000D01*
X191369199Y-72731156D01*
X191669744Y-72530338D01*
X191925338Y-72274744D01*
X192126156Y-71974199D01*
X192264482Y-71640250D01*
X192335000Y-71285732D01*
X192335000Y-70924268D01*
X192264482Y-70569750D01*
X192126156Y-70235801D01*
X191925338Y-69935256D01*
X191669744Y-69679662D01*
X191369199Y-69478844D01*
X191070213Y-69355000D01*
X191369199Y-69231156D01*
X191669744Y-69030338D01*
X191925338Y-68774744D01*
X192126156Y-68474199D01*
X192264482Y-68140250D01*
X192335000Y-67785732D01*
X192335000Y-67424268D01*
X192264482Y-67069750D01*
X192126156Y-66735801D01*
X191925338Y-66435256D01*
X191669744Y-66179662D01*
X191369199Y-65978844D01*
X191062511Y-65851810D01*
X191255833Y-65786846D01*
X191478486Y-65667836D01*
X191598374Y-65382980D01*
X190500000Y-64284605D01*
X189401626Y-65382980D01*
X189521514Y-65667836D01*
X189845210Y-65828699D01*
X189934690Y-65852969D01*
X189630801Y-65978844D01*
X189330256Y-66179662D01*
X189074662Y-66435256D01*
X188873844Y-66735801D01*
X188735518Y-67069750D01*
X188665000Y-67424268D01*
X188665000Y-67785732D01*
X188735518Y-68140250D01*
X188873844Y-68474199D01*
X189074662Y-68774744D01*
X189330256Y-69030338D01*
X189630801Y-69231156D01*
X189929787Y-69355000D01*
X189630801Y-69478844D01*
X189330256Y-69679662D01*
X189074662Y-69935256D01*
X188873844Y-70235801D01*
X188735518Y-70569750D01*
X188665000Y-70924268D01*
X188665000Y-71285732D01*
X188735518Y-71640250D01*
X188873844Y-71974199D01*
X189074662Y-72274744D01*
X189330256Y-72530338D01*
X189630801Y-72731156D01*
X189929787Y-72855000D01*
X189630801Y-72978844D01*
X189330256Y-73179662D01*
X189074662Y-73435256D01*
X188873844Y-73735801D01*
X188735518Y-74069750D01*
X188665000Y-74424268D01*
X188665000Y-74785732D01*
X188735518Y-75140250D01*
X188873844Y-75474199D01*
X189074662Y-75774744D01*
X189330256Y-76030338D01*
X189630801Y-76231156D01*
X189717162Y-76266928D01*
X189300000Y-76266928D01*
X189175518Y-76279188D01*
X189055820Y-76315498D01*
X188945506Y-76374463D01*
X188848815Y-76453815D01*
X188769463Y-76550506D01*
X188710498Y-76660820D01*
X188674188Y-76780518D01*
X188661928Y-76905000D01*
X188661928Y-77220000D01*
X187829000Y-77220000D01*
X187829000Y-64159684D01*
X188656933Y-64159684D01*
X188703015Y-64518198D01*
X188818154Y-64860833D01*
X188937164Y-65083486D01*
X189222020Y-65203374D01*
X190320395Y-64105000D01*
X190679605Y-64105000D01*
X191777980Y-65203374D01*
X192062836Y-65083486D01*
X192223699Y-64759790D01*
X192318322Y-64410931D01*
X192343067Y-64050316D01*
X192296985Y-63691802D01*
X192181846Y-63349167D01*
X192062836Y-63126514D01*
X191777980Y-63006626D01*
X190679605Y-64105000D01*
X190320395Y-64105000D01*
X189222020Y-63006626D01*
X188937164Y-63126514D01*
X188776301Y-63450210D01*
X188681678Y-63799069D01*
X188656933Y-64159684D01*
X187829000Y-64159684D01*
X187829000Y-61490000D01*
X188884402Y-61490000D01*
X189074662Y-61774744D01*
X189330256Y-62030338D01*
X189630801Y-62231156D01*
X189937489Y-62358190D01*
X189744167Y-62423154D01*
X189521514Y-62542164D01*
X189401626Y-62827020D01*
X190500000Y-63925395D01*
X191598374Y-62827020D01*
X191478486Y-62542164D01*
X191154790Y-62381301D01*
X191065310Y-62357031D01*
X191369199Y-62231156D01*
X191669744Y-62030338D01*
X191925338Y-61774744D01*
X192126156Y-61474199D01*
X192264482Y-61140250D01*
X192335000Y-60785732D01*
X192335000Y-60424268D01*
X192264482Y-60069750D01*
X192126156Y-59735801D01*
X191925338Y-59435256D01*
X191669744Y-59179662D01*
X191369199Y-58978844D01*
X191035250Y-58840518D01*
X190680732Y-58770000D01*
X190319268Y-58770000D01*
X189964750Y-58840518D01*
X189630801Y-58978844D01*
X189330256Y-59179662D01*
X189074662Y-59435256D01*
X188884402Y-59720000D01*
X187469469Y-59720000D01*
X187426000Y-59715719D01*
X187382531Y-59720000D01*
X187382523Y-59720000D01*
X187267306Y-59731348D01*
X187252509Y-59732805D01*
X187201903Y-59748157D01*
X187085687Y-59783411D01*
X186931941Y-59865589D01*
X186797183Y-59976183D01*
X186769466Y-60009956D01*
X186348956Y-60430466D01*
X186315183Y-60458183D01*
X186204589Y-60592942D01*
X186122411Y-60746688D01*
X186071805Y-60913511D01*
X186059000Y-61043524D01*
X186059000Y-61043531D01*
X186054719Y-61087000D01*
X186059000Y-61130469D01*
X186059000Y-66269301D01*
X186057200Y-66269124D01*
X186019878Y-66272800D01*
X184802911Y-66272800D01*
X184758974Y-66228863D01*
X184589456Y-66115595D01*
X184401098Y-66037574D01*
X184201139Y-65997800D01*
X183997261Y-65997800D01*
X183797302Y-66037574D01*
X183608944Y-66115595D01*
X183439426Y-66228863D01*
X183295263Y-66373026D01*
X183181995Y-66542544D01*
X183103974Y-66730902D01*
X183064200Y-66930861D01*
X183064200Y-67134739D01*
X183103974Y-67334698D01*
X183181995Y-67523056D01*
X183295263Y-67692574D01*
X183439426Y-67836737D01*
X183608944Y-67950005D01*
X183797302Y-68028026D01*
X183997261Y-68067800D01*
X184201139Y-68067800D01*
X184401098Y-68028026D01*
X184589456Y-67950005D01*
X184758974Y-67836737D01*
X184802911Y-67792800D01*
X185608991Y-67792800D01*
X185608990Y-69242400D01*
X183786878Y-69242400D01*
X183781403Y-69186812D01*
X183737946Y-69043551D01*
X183723447Y-69016426D01*
X183667374Y-68911521D01*
X183632431Y-68868944D01*
X183572401Y-68795797D01*
X183543398Y-68771995D01*
X183131405Y-68360002D01*
X183107602Y-68330998D01*
X182991877Y-68236025D01*
X182859848Y-68165453D01*
X182716587Y-68121996D01*
X182604934Y-68110999D01*
X182604923Y-68110999D01*
X182567601Y-68107323D01*
X182530279Y-68110999D01*
X181932281Y-68110999D01*
X181894958Y-68107323D01*
X181857635Y-68110999D01*
X181857626Y-68110999D01*
X181745973Y-68121996D01*
X181615417Y-68161599D01*
X181602712Y-68165453D01*
X181470682Y-68236025D01*
X181438245Y-68262646D01*
X181354958Y-68330998D01*
X181331160Y-68359996D01*
X180592578Y-69098579D01*
X174445200Y-69098579D01*
X174445200Y-68007722D01*
X174448876Y-67970399D01*
X174445200Y-67933076D01*
X174445200Y-67933067D01*
X174442473Y-67905384D01*
X174549426Y-68012337D01*
X174718944Y-68125605D01*
X174907302Y-68203626D01*
X175107261Y-68243400D01*
X175311139Y-68243400D01*
X175511098Y-68203626D01*
X175699456Y-68125605D01*
X175868974Y-68012337D01*
X176013137Y-67868174D01*
X176126405Y-67698656D01*
X176204426Y-67510298D01*
X176244200Y-67310339D01*
X176244200Y-67106461D01*
X176204426Y-66906502D01*
X176126405Y-66718144D01*
X176013137Y-66548626D01*
X175868974Y-66404463D01*
X175699456Y-66291195D01*
X175511098Y-66213174D01*
X175454243Y-66201865D01*
X175378523Y-66126145D01*
X175350806Y-66092372D01*
X175216048Y-65981778D01*
X175062302Y-65899600D01*
X174895479Y-65848994D01*
X174765466Y-65836189D01*
X174765458Y-65836189D01*
X174721989Y-65831908D01*
X174678520Y-65836189D01*
X171675876Y-65836189D01*
X171632410Y-65831908D01*
X171588944Y-65836189D01*
X171588934Y-65836189D01*
X171458921Y-65848994D01*
X171292098Y-65899600D01*
X171138352Y-65981778D01*
X171138350Y-65981779D01*
X171138351Y-65981779D01*
X171037364Y-66064657D01*
X171037362Y-66064659D01*
X171003594Y-66092372D01*
X170975881Y-66126140D01*
X170418540Y-66683482D01*
X170384773Y-66711194D01*
X170357060Y-66744962D01*
X170357057Y-66744965D01*
X170274179Y-66845952D01*
X170192001Y-66999698D01*
X170141394Y-67166521D01*
X170124308Y-67340011D01*
X170128590Y-67383490D01*
X170128589Y-73464562D01*
X170047012Y-73311940D01*
X169936418Y-73177182D01*
X169902651Y-73149470D01*
X169157736Y-72404556D01*
X169130019Y-72370783D01*
X168995261Y-72260189D01*
X168841515Y-72178011D01*
X168674692Y-72127405D01*
X168544679Y-72114600D01*
X168544671Y-72114600D01*
X168501202Y-72110319D01*
X168457733Y-72114600D01*
X166095654Y-72114600D01*
X166047456Y-72082395D01*
X165859098Y-72004374D01*
X165659139Y-71964600D01*
X165455261Y-71964600D01*
X165255302Y-72004374D01*
X165066944Y-72082395D01*
X164897426Y-72195663D01*
X164753263Y-72339826D01*
X164639995Y-72509344D01*
X164561974Y-72697702D01*
X164522200Y-72897661D01*
X164522200Y-73101539D01*
X164561974Y-73301498D01*
X164639995Y-73489856D01*
X164753263Y-73659374D01*
X164897426Y-73803537D01*
X165066944Y-73916805D01*
X165255302Y-73994826D01*
X165455261Y-74034600D01*
X165659139Y-74034600D01*
X165859098Y-73994826D01*
X166047456Y-73916805D01*
X166095654Y-73884600D01*
X168134624Y-73884600D01*
X168422601Y-74172578D01*
X168422601Y-74276000D01*
X168300061Y-74276000D01*
X168100102Y-74315774D01*
X167911744Y-74393795D01*
X167742226Y-74507063D01*
X167698289Y-74551000D01*
X160334802Y-74551000D01*
X159175209Y-73391408D01*
X159219000Y-73171260D01*
X159219000Y-72878740D01*
X159161932Y-72591842D01*
X159049990Y-72321589D01*
X158887475Y-72078368D01*
X158680632Y-71871525D01*
X158506240Y-71755000D01*
X158680632Y-71638475D01*
X158887475Y-71431632D01*
X159049990Y-71188411D01*
X159161932Y-70918158D01*
X159219000Y-70631260D01*
X159219000Y-70338740D01*
X159161932Y-70051842D01*
X159049990Y-69781589D01*
X158887475Y-69538368D01*
X158680632Y-69331525D01*
X158506240Y-69215000D01*
X158680632Y-69098475D01*
X158887475Y-68891632D01*
X159049990Y-68648411D01*
X159161932Y-68378158D01*
X159219000Y-68091260D01*
X159219000Y-67798740D01*
X159161932Y-67511842D01*
X159049990Y-67241589D01*
X158887475Y-66998368D01*
X158680632Y-66791525D01*
X158437411Y-66629010D01*
X158167158Y-66517068D01*
X157880260Y-66460000D01*
X157587740Y-66460000D01*
X157300842Y-66517068D01*
X157030589Y-66629010D01*
X156787368Y-66791525D01*
X156616000Y-66962893D01*
X156616000Y-60620389D01*
X162089400Y-60620389D01*
X162089400Y-60893211D01*
X162142625Y-61160789D01*
X162247029Y-61412843D01*
X162398601Y-61639686D01*
X162591514Y-61832599D01*
X162818357Y-61984171D01*
X163070411Y-62088575D01*
X163337989Y-62141800D01*
X163610811Y-62141800D01*
X163878389Y-62088575D01*
X164130443Y-61984171D01*
X164357286Y-61832599D01*
X164550199Y-61639686D01*
X164701771Y-61412843D01*
X164806175Y-61160789D01*
X164859400Y-60893211D01*
X164859400Y-60620389D01*
X166969400Y-60620389D01*
X166969400Y-60893211D01*
X167022625Y-61160789D01*
X167127029Y-61412843D01*
X167278601Y-61639686D01*
X167471514Y-61832599D01*
X167698357Y-61984171D01*
X167950411Y-62088575D01*
X168217989Y-62141800D01*
X168490811Y-62141800D01*
X168758389Y-62088575D01*
X169010443Y-61984171D01*
X169237286Y-61832599D01*
X169430199Y-61639686D01*
X169581771Y-61412843D01*
X169686175Y-61160789D01*
X169739400Y-60893211D01*
X169739400Y-60620389D01*
X169686175Y-60352811D01*
X169581771Y-60100757D01*
X169430199Y-59873914D01*
X169237286Y-59681001D01*
X169010443Y-59529429D01*
X168758389Y-59425025D01*
X168490811Y-59371800D01*
X168217989Y-59371800D01*
X167950411Y-59425025D01*
X167698357Y-59529429D01*
X167471514Y-59681001D01*
X167278601Y-59873914D01*
X167127029Y-60100757D01*
X167022625Y-60352811D01*
X166969400Y-60620389D01*
X164859400Y-60620389D01*
X164806175Y-60352811D01*
X164701771Y-60100757D01*
X164550199Y-59873914D01*
X164357286Y-59681001D01*
X164130443Y-59529429D01*
X163878389Y-59425025D01*
X163610811Y-59371800D01*
X163337989Y-59371800D01*
X163070411Y-59425025D01*
X162818357Y-59529429D01*
X162591514Y-59681001D01*
X162398601Y-59873914D01*
X162247029Y-60100757D01*
X162142625Y-60352811D01*
X162089400Y-60620389D01*
X156616000Y-60620389D01*
X156616000Y-58699000D01*
X193904001Y-58699000D01*
X193904000Y-79985000D01*
G36*
X170128589Y-76010258D02*
G01*
X170128589Y-76010265D01*
X170141394Y-76140278D01*
X170192000Y-76307101D01*
X170274178Y-76460847D01*
X170384772Y-76595606D01*
X170418545Y-76623323D01*
X171154665Y-77359444D01*
X171165974Y-77416298D01*
X171243995Y-77604656D01*
X171276201Y-77652855D01*
X171276200Y-79001331D01*
X171271919Y-79044800D01*
X171276200Y-79088269D01*
X171276200Y-79088276D01*
X171289005Y-79218289D01*
X171339611Y-79385112D01*
X171421789Y-79538858D01*
X171532383Y-79673617D01*
X171566156Y-79701334D01*
X171849822Y-79985000D01*
X156616000Y-79985000D01*
X156616000Y-79531770D01*
X156639820Y-79544502D01*
X156759518Y-79580812D01*
X156884000Y-79593072D01*
X158584000Y-79593072D01*
X158708482Y-79580812D01*
X158828180Y-79544502D01*
X158938494Y-79485537D01*
X159035185Y-79406185D01*
X159114537Y-79309494D01*
X159173502Y-79199180D01*
X159209812Y-79079482D01*
X159218625Y-78990000D01*
X166822533Y-78990000D01*
X166866002Y-78994281D01*
X166909471Y-78990000D01*
X166909479Y-78990000D01*
X167039492Y-78977195D01*
X167206315Y-78926589D01*
X167360061Y-78844411D01*
X167494819Y-78733817D01*
X167522536Y-78700044D01*
X169902650Y-76319931D01*
X169936418Y-76292218D01*
X170047012Y-76157460D01*
X170128138Y-76005682D01*
X170128589Y-76010258D01*
G37*
X170128589Y-76010258D02*
X170128589Y-76010265D01*
X170141394Y-76140278D01*
X170192000Y-76307101D01*
X170274178Y-76460847D01*
X170384772Y-76595606D01*
X170418545Y-76623323D01*
X171154665Y-77359444D01*
X171165974Y-77416298D01*
X171243995Y-77604656D01*
X171276201Y-77652855D01*
X171276200Y-79001331D01*
X171271919Y-79044800D01*
X171276200Y-79088269D01*
X171276200Y-79088276D01*
X171289005Y-79218289D01*
X171339611Y-79385112D01*
X171421789Y-79538858D01*
X171532383Y-79673617D01*
X171566156Y-79701334D01*
X171849822Y-79985000D01*
X156616000Y-79985000D01*
X156616000Y-79531770D01*
X156639820Y-79544502D01*
X156759518Y-79580812D01*
X156884000Y-79593072D01*
X158584000Y-79593072D01*
X158708482Y-79580812D01*
X158828180Y-79544502D01*
X158938494Y-79485537D01*
X159035185Y-79406185D01*
X159114537Y-79309494D01*
X159173502Y-79199180D01*
X159209812Y-79079482D01*
X159218625Y-78990000D01*
X166822533Y-78990000D01*
X166866002Y-78994281D01*
X166909471Y-78990000D01*
X166909479Y-78990000D01*
X167039492Y-78977195D01*
X167206315Y-78926589D01*
X167360061Y-78844411D01*
X167494819Y-78733817D01*
X167522536Y-78700044D01*
X169902650Y-76319931D01*
X169936418Y-76292218D01*
X170047012Y-76157460D01*
X170128138Y-76005682D01*
X170128589Y-76010258D01*
G36*
X159456201Y-75822003D02*
G01*
X159479999Y-75851001D01*
X159595724Y-75945974D01*
X159727753Y-76016546D01*
X159871014Y-76060003D01*
X159982667Y-76071000D01*
X159982676Y-76071000D01*
X160019999Y-76074676D01*
X160057322Y-76071000D01*
X167648423Y-76071000D01*
X166499424Y-77220000D01*
X159218625Y-77220000D01*
X159209812Y-77130518D01*
X159173502Y-77010820D01*
X159114537Y-76900506D01*
X159035185Y-76803815D01*
X158938494Y-76724463D01*
X158828180Y-76665498D01*
X158747534Y-76641034D01*
X158831588Y-76565269D01*
X159005641Y-76331920D01*
X159130825Y-76069099D01*
X159175476Y-75921890D01*
X159054156Y-75692002D01*
X159219000Y-75692002D01*
X159219000Y-75584802D01*
X159456201Y-75822003D01*
G37*
X159456201Y-75822003D02*
X159479999Y-75851001D01*
X159595724Y-75945974D01*
X159727753Y-76016546D01*
X159871014Y-76060003D01*
X159982667Y-76071000D01*
X159982676Y-76071000D01*
X160019999Y-76074676D01*
X160057322Y-76071000D01*
X167648423Y-76071000D01*
X166499424Y-77220000D01*
X159218625Y-77220000D01*
X159209812Y-77130518D01*
X159173502Y-77010820D01*
X159114537Y-76900506D01*
X159035185Y-76803815D01*
X158938494Y-76724463D01*
X158828180Y-76665498D01*
X158747534Y-76641034D01*
X158831588Y-76565269D01*
X159005641Y-76331920D01*
X159130825Y-76069099D01*
X159175476Y-75921890D01*
X159054156Y-75692002D01*
X159219000Y-75692002D01*
X159219000Y-75584802D01*
X159456201Y-75822003D01*
G36*
X157861000Y-75438000D02*
G01*
X157881000Y-75438000D01*
X157881000Y-75692000D01*
X157861000Y-75692000D01*
X157861000Y-75712000D01*
X157607000Y-75712000D01*
X157607000Y-75692000D01*
X157587000Y-75692000D01*
X157587000Y-75438000D01*
X157607000Y-75438000D01*
X157607000Y-75418000D01*
X157861000Y-75418000D01*
X157861000Y-75438000D01*
G37*
X157861000Y-75438000D02*
X157881000Y-75438000D01*
X157881000Y-75692000D01*
X157861000Y-75692000D01*
X157861000Y-75712000D01*
X157607000Y-75712000D01*
X157607000Y-75692000D01*
X157587000Y-75692000D01*
X157587000Y-75438000D01*
X157607000Y-75438000D01*
X157607000Y-75418000D01*
X157861000Y-75418000D01*
X157861000Y-75438000D01*
M02*
