M48
; DRILL file {KiCad 5.1.5+dfsg1-2build2} date wto, 15 lut 2022, 20:08:34
; FORMAT={-:-/ absolute / metric / decimal}
; #@! TF.CreationDate,2022-02-15T20:08:34+01:00
; #@! TF.GenerationSoftware,Kicad,Pcbnew,5.1.5+dfsg1-2build2
; #@! TF.FileFunction,Plated,1,2,PTH
FMAT,2
METRIC
T1C0.400
T2C0.800
T3C1.000
T4C1.200
%
G90
G05
T1
X164.44Y-79.045
X164.897Y-74.219
X165.557Y-73.0
X167.005Y-76.708
X168.402Y-75.311
X168.458Y-74.214
X170.84Y-64.516
X171.323Y-58.674
X172.161Y-77.114
X172.238Y-69.148
X172.263Y-75.895
X172.314Y-68.021
X174.6Y-75.743
X174.65Y-71.933
X175.209Y-67.208
X175.565Y-68.834
X176.375Y-75.743
X176.682Y-64.516
X177.749Y-59.741
X177.749Y-61.062
X177.749Y-62.23
X178.918Y-61.062
X178.918Y-62.23
X179.629Y-71.526
X180.086Y-61.062
X180.086Y-62.23
X180.086Y-63.297
X180.848Y-78.74
X181.051Y-62.23
X181.102Y-63.297
X181.153Y-61.062
X181.305Y-74.93
X182.067Y-78.892
X182.169Y-61.112
X182.169Y-62.23
X182.169Y-63.297
X182.22Y-69.596
X183.028Y-63.293
X183.185Y-59.741
X183.185Y-61.062
X183.185Y-62.23
X184.099Y-67.033
X184.82Y-69.277
X187.794Y-76.098
X187.833Y-71.755
T2
X163.474Y-60.757
X168.354Y-60.757
T3
X157.734Y-67.945
X157.734Y-70.485
X157.734Y-73.025
X157.734Y-75.565
X157.734Y-78.105
T4
X190.5Y-60.605
X190.5Y-64.105
X190.5Y-67.605
X190.5Y-71.105
X190.5Y-74.605
X190.5Y-78.105
T0
M30
