G04 #@! TF.GenerationSoftware,KiCad,Pcbnew,5.1.5+dfsg1-2build2*
G04 #@! TF.CreationDate,2022-02-15T20:08:37+01:00*
G04 #@! TF.ProjectId,LIN_DISCO3,4c494e5f-4449-4534-934f-332e6b696361,rev?*
G04 #@! TF.SameCoordinates,Original*
G04 #@! TF.FileFunction,Legend,Top*
G04 #@! TF.FilePolarity,Positive*
%FSLAX46Y46*%
G04 Gerber Fmt 4.6, Leading zero omitted, Abs format (unit mm)*
G04 Created by KiCad (PCBNEW 5.1.5+dfsg1-2build2) date 2022-02-15 20:08:37*
%MOMM*%
%LPD*%
G04 APERTURE LIST*
%ADD10C,0.120000*%
%ADD11C,0.010000*%
%ADD12C,0.150000*%
G04 APERTURE END LIST*
D10*
X169039400Y-63281800D02*
G75*
G03X169039400Y-58231800I0J2525000D01*
G01*
X162789400Y-63281800D02*
G75*
G02X162789400Y-58231800I0J2525000D01*
G01*
X162789400Y-63281800D02*
X169039400Y-63281800D01*
X162789400Y-58231800D02*
X169039400Y-58231800D01*
X176802000Y-71993000D02*
X181102000Y-71993000D01*
X176802000Y-69993000D02*
X176802000Y-71993000D01*
X181102000Y-69993000D02*
X176802000Y-69993000D01*
X174886252Y-77799000D02*
X174363748Y-77799000D01*
X174886252Y-76379000D02*
X174363748Y-76379000D01*
X177184000Y-66584000D02*
X177184000Y-60574000D01*
X184004000Y-64334000D02*
X184004000Y-60574000D01*
X177184000Y-60574000D02*
X178444000Y-60574000D01*
X184004000Y-60574000D02*
X182744000Y-60574000D01*
X166108748Y-67258000D02*
X166631252Y-67258000D01*
X166108748Y-65838000D02*
X166631252Y-65838000D01*
X172865000Y-69453000D02*
X177165000Y-69453000D01*
X172865000Y-67453000D02*
X172865000Y-69453000D01*
X177165000Y-67453000D02*
X172865000Y-67453000D01*
D11*
G36*
X157747153Y-59717913D02*
G01*
X157748037Y-59633067D01*
X157749777Y-59554989D01*
X157752371Y-59488274D01*
X157755816Y-59437513D01*
X157760110Y-59407302D01*
X157760347Y-59406411D01*
X157766275Y-59386658D01*
X157773587Y-59370204D01*
X157784480Y-59356763D01*
X157801154Y-59346051D01*
X157825808Y-59337786D01*
X157860639Y-59331683D01*
X157907847Y-59327457D01*
X157969631Y-59324825D01*
X158048188Y-59323503D01*
X158145718Y-59323207D01*
X158264420Y-59323653D01*
X158394668Y-59324477D01*
X158927244Y-59328050D01*
X158962447Y-59363243D01*
X158997650Y-59398435D01*
X159000719Y-59744243D01*
X159001424Y-59853203D01*
X159001312Y-59939613D01*
X159000274Y-60006315D01*
X158998203Y-60056148D01*
X158994988Y-60091953D01*
X158990520Y-60116570D01*
X158985878Y-60130326D01*
X158966182Y-60162203D01*
X158943222Y-60183827D01*
X158942368Y-60184301D01*
X158922182Y-60188225D01*
X158877437Y-60191483D01*
X158807981Y-60194079D01*
X158713662Y-60196016D01*
X158594327Y-60197298D01*
X158449824Y-60197928D01*
X158372660Y-60198000D01*
X158235237Y-60197999D01*
X158120978Y-60197785D01*
X158027649Y-60197045D01*
X158013400Y-60196744D01*
X158013400Y-59944000D01*
X158737300Y-59944000D01*
X158737300Y-59588400D01*
X158013400Y-59588400D01*
X158013400Y-59944000D01*
X158013400Y-60196744D01*
X157953016Y-60195465D01*
X157894842Y-60192730D01*
X157850894Y-60188526D01*
X157818937Y-60182540D01*
X157796735Y-60174458D01*
X157782054Y-60163964D01*
X157772658Y-60150746D01*
X157766314Y-60134489D01*
X157760785Y-60114880D01*
X157759964Y-60111901D01*
X157755659Y-60082904D01*
X157752226Y-60033116D01*
X157749661Y-59967129D01*
X157747962Y-59889537D01*
X157747127Y-59804934D01*
X157747153Y-59717913D01*
G37*
X157747153Y-59717913D02*
X157748037Y-59633067D01*
X157749777Y-59554989D01*
X157752371Y-59488274D01*
X157755816Y-59437513D01*
X157760110Y-59407302D01*
X157760347Y-59406411D01*
X157766275Y-59386658D01*
X157773587Y-59370204D01*
X157784480Y-59356763D01*
X157801154Y-59346051D01*
X157825808Y-59337786D01*
X157860639Y-59331683D01*
X157907847Y-59327457D01*
X157969631Y-59324825D01*
X158048188Y-59323503D01*
X158145718Y-59323207D01*
X158264420Y-59323653D01*
X158394668Y-59324477D01*
X158927244Y-59328050D01*
X158962447Y-59363243D01*
X158997650Y-59398435D01*
X159000719Y-59744243D01*
X159001424Y-59853203D01*
X159001312Y-59939613D01*
X159000274Y-60006315D01*
X158998203Y-60056148D01*
X158994988Y-60091953D01*
X158990520Y-60116570D01*
X158985878Y-60130326D01*
X158966182Y-60162203D01*
X158943222Y-60183827D01*
X158942368Y-60184301D01*
X158922182Y-60188225D01*
X158877437Y-60191483D01*
X158807981Y-60194079D01*
X158713662Y-60196016D01*
X158594327Y-60197298D01*
X158449824Y-60197928D01*
X158372660Y-60198000D01*
X158235237Y-60197999D01*
X158120978Y-60197785D01*
X158027649Y-60197045D01*
X158013400Y-60196744D01*
X158013400Y-59944000D01*
X158737300Y-59944000D01*
X158737300Y-59588400D01*
X158013400Y-59588400D01*
X158013400Y-59944000D01*
X158013400Y-60196744D01*
X157953016Y-60195465D01*
X157894842Y-60192730D01*
X157850894Y-60188526D01*
X157818937Y-60182540D01*
X157796735Y-60174458D01*
X157782054Y-60163964D01*
X157772658Y-60150746D01*
X157766314Y-60134489D01*
X157760785Y-60114880D01*
X157759964Y-60111901D01*
X157755659Y-60082904D01*
X157752226Y-60033116D01*
X157749661Y-59967129D01*
X157747962Y-59889537D01*
X157747127Y-59804934D01*
X157747153Y-59717913D01*
G36*
X157748775Y-62942130D02*
G01*
X157751620Y-62887280D01*
X157756401Y-62846239D01*
X157763409Y-62816115D01*
X157772932Y-62794012D01*
X157785260Y-62777035D01*
X157794013Y-62768209D01*
X157826608Y-62738001D01*
X158409789Y-62738001D01*
X158558692Y-62738285D01*
X158688668Y-62739124D01*
X158798639Y-62740493D01*
X158887529Y-62742371D01*
X158954260Y-62744735D01*
X158997755Y-62747561D01*
X159016937Y-62750828D01*
X159016979Y-62750850D01*
X159035999Y-62771021D01*
X159052030Y-62804222D01*
X159054173Y-62811175D01*
X159057257Y-62834996D01*
X159059912Y-62879855D01*
X159062109Y-62941396D01*
X159063822Y-63015261D01*
X159065025Y-63097093D01*
X159065689Y-63182532D01*
X159065788Y-63267222D01*
X159065296Y-63346806D01*
X159064184Y-63416925D01*
X159062427Y-63473221D01*
X159059998Y-63511338D01*
X159058570Y-63521972D01*
X159044918Y-63549805D01*
X159020487Y-63575947D01*
X159012016Y-63582004D01*
X159001867Y-63587025D01*
X158987737Y-63591106D01*
X158967321Y-63594345D01*
X158938317Y-63596839D01*
X158898419Y-63598685D01*
X158845325Y-63599981D01*
X158776730Y-63600823D01*
X158690331Y-63601309D01*
X158583824Y-63601535D01*
X158454906Y-63601598D01*
X158411937Y-63601600D01*
X158013400Y-63601600D01*
X158013400Y-63347600D01*
X158800800Y-63347600D01*
X158800800Y-62992000D01*
X158013400Y-62992000D01*
X158013400Y-63347600D01*
X158013400Y-63601600D01*
X157836000Y-63601600D01*
X157753050Y-63527526D01*
X157748963Y-63218488D01*
X157747736Y-63104840D01*
X157747577Y-63013686D01*
X157748775Y-62942130D01*
G37*
X157748775Y-62942130D02*
X157751620Y-62887280D01*
X157756401Y-62846239D01*
X157763409Y-62816115D01*
X157772932Y-62794012D01*
X157785260Y-62777035D01*
X157794013Y-62768209D01*
X157826608Y-62738001D01*
X158409789Y-62738001D01*
X158558692Y-62738285D01*
X158688668Y-62739124D01*
X158798639Y-62740493D01*
X158887529Y-62742371D01*
X158954260Y-62744735D01*
X158997755Y-62747561D01*
X159016937Y-62750828D01*
X159016979Y-62750850D01*
X159035999Y-62771021D01*
X159052030Y-62804222D01*
X159054173Y-62811175D01*
X159057257Y-62834996D01*
X159059912Y-62879855D01*
X159062109Y-62941396D01*
X159063822Y-63015261D01*
X159065025Y-63097093D01*
X159065689Y-63182532D01*
X159065788Y-63267222D01*
X159065296Y-63346806D01*
X159064184Y-63416925D01*
X159062427Y-63473221D01*
X159059998Y-63511338D01*
X159058570Y-63521972D01*
X159044918Y-63549805D01*
X159020487Y-63575947D01*
X159012016Y-63582004D01*
X159001867Y-63587025D01*
X158987737Y-63591106D01*
X158967321Y-63594345D01*
X158938317Y-63596839D01*
X158898419Y-63598685D01*
X158845325Y-63599981D01*
X158776730Y-63600823D01*
X158690331Y-63601309D01*
X158583824Y-63601535D01*
X158454906Y-63601598D01*
X158411937Y-63601600D01*
X158013400Y-63601600D01*
X158013400Y-63347600D01*
X158800800Y-63347600D01*
X158800800Y-62992000D01*
X158013400Y-62992000D01*
X158013400Y-63347600D01*
X158013400Y-63601600D01*
X157836000Y-63601600D01*
X157753050Y-63527526D01*
X157748963Y-63218488D01*
X157747736Y-63104840D01*
X157747577Y-63013686D01*
X157748775Y-62942130D01*
G36*
X156237018Y-58930114D02*
G01*
X156237309Y-58915543D01*
X156239093Y-58835108D01*
X156241091Y-58775243D01*
X156244027Y-58731124D01*
X156248624Y-58697927D01*
X156255605Y-58670826D01*
X156265693Y-58644999D01*
X156279611Y-58615619D01*
X156283431Y-58607850D01*
X156336908Y-58523495D01*
X156407090Y-58449264D01*
X156487753Y-58391070D01*
X156537067Y-58366922D01*
X156610050Y-58337450D01*
X159443467Y-58337450D01*
X159540547Y-58385430D01*
X159635684Y-58444795D01*
X159710113Y-58518804D01*
X159764156Y-58607900D01*
X159798137Y-58712525D01*
X159804420Y-58746704D01*
X159807348Y-58779777D01*
X159809805Y-58838145D01*
X159811790Y-58921711D01*
X159813301Y-59030374D01*
X159814339Y-59164036D01*
X159814901Y-59322597D01*
X159814987Y-59505958D01*
X159814597Y-59714019D01*
X159814205Y-59831923D01*
X159810450Y-60829866D01*
X159969200Y-60836146D01*
X160048612Y-60840483D01*
X160109222Y-60846943D01*
X160157604Y-60856500D01*
X160200329Y-60870126D01*
X160201414Y-60870540D01*
X160273775Y-60908556D01*
X160345315Y-60964224D01*
X160408596Y-61030673D01*
X160456177Y-61101032D01*
X160460840Y-61110145D01*
X160496250Y-61182250D01*
X160496250Y-62464950D01*
X160460592Y-62537564D01*
X160401195Y-62630312D01*
X160322861Y-62707341D01*
X160228616Y-62765693D01*
X160226152Y-62766855D01*
X160178213Y-62787620D01*
X160137564Y-62799782D01*
X160093448Y-62805592D01*
X160035108Y-62807300D01*
X160032797Y-62807313D01*
X160008853Y-62806886D01*
X160008853Y-62547500D01*
X160090016Y-62537613D01*
X160155424Y-62508113D01*
X160204637Y-62459241D01*
X160221693Y-62430367D01*
X160228187Y-62416494D01*
X160233542Y-62401922D01*
X160237867Y-62384190D01*
X160241273Y-62360839D01*
X160243869Y-62329408D01*
X160245765Y-62287437D01*
X160247071Y-62232465D01*
X160247897Y-62162033D01*
X160248352Y-62073680D01*
X160248546Y-61964946D01*
X160248589Y-61833370D01*
X160248589Y-61827602D01*
X160248263Y-61674801D01*
X160247288Y-61543984D01*
X160245679Y-61435766D01*
X160243449Y-61350762D01*
X160240614Y-61289589D01*
X160237186Y-61252860D01*
X160235092Y-61243402D01*
X160208535Y-61197533D01*
X160167581Y-61152681D01*
X160121548Y-61118948D01*
X160119055Y-61117617D01*
X160100597Y-61114555D01*
X160058801Y-61111745D01*
X159995731Y-61109190D01*
X159913448Y-61106888D01*
X159814014Y-61104840D01*
X159699491Y-61103048D01*
X159571942Y-61101512D01*
X159433427Y-61100231D01*
X159286009Y-61099208D01*
X159131751Y-61098442D01*
X158972713Y-61097934D01*
X158810958Y-61097685D01*
X158648548Y-61097695D01*
X158487545Y-61097964D01*
X158407100Y-61098234D01*
X158407100Y-60934600D01*
X158617072Y-60934428D01*
X158801857Y-60933909D01*
X158961664Y-60933040D01*
X159096702Y-60931818D01*
X159207182Y-60930242D01*
X159293313Y-60928307D01*
X159355304Y-60926011D01*
X159393366Y-60923351D01*
X159406398Y-60921093D01*
X159455237Y-60892646D01*
X159500536Y-60849486D01*
X159532034Y-60801395D01*
X159532099Y-60801250D01*
X159535325Y-60789751D01*
X159538143Y-60769636D01*
X159540581Y-60739377D01*
X159542662Y-60697446D01*
X159544414Y-60642313D01*
X159545862Y-60572451D01*
X159547031Y-60486330D01*
X159547948Y-60382421D01*
X159548638Y-60259196D01*
X159549127Y-60115126D01*
X159549440Y-59948682D01*
X159549602Y-59762520D01*
X159549677Y-59579449D01*
X159549679Y-59420044D01*
X159549568Y-59282568D01*
X159549302Y-59165288D01*
X159548843Y-59066468D01*
X159548148Y-58984374D01*
X159547177Y-58917270D01*
X159545890Y-58863422D01*
X159544245Y-58821094D01*
X159542203Y-58788552D01*
X159539722Y-58764060D01*
X159536762Y-58745885D01*
X159533281Y-58732290D01*
X159529240Y-58721542D01*
X159524987Y-58712664D01*
X159498296Y-58673105D01*
X159464681Y-58638676D01*
X159458312Y-58633795D01*
X159416750Y-58604150D01*
X158031397Y-58600811D01*
X156646045Y-58597471D01*
X156602949Y-58626513D01*
X156566178Y-58657585D01*
X156533302Y-58695121D01*
X156530209Y-58699546D01*
X156519557Y-58716400D01*
X156511907Y-58733307D01*
X156506853Y-58754484D01*
X156503990Y-58784151D01*
X156502913Y-58826525D01*
X156503216Y-58885823D01*
X156504494Y-58966265D01*
X156504506Y-58966976D01*
X156506041Y-59047384D01*
X156507781Y-59106609D01*
X156510327Y-59148864D01*
X156514278Y-59178363D01*
X156520233Y-59199319D01*
X156528791Y-59215946D01*
X156540553Y-59232458D01*
X156542658Y-59235221D01*
X156563422Y-59260732D01*
X156584379Y-59280676D01*
X156608853Y-59295734D01*
X156640169Y-59306590D01*
X156681650Y-59313924D01*
X156736622Y-59318417D01*
X156808408Y-59320752D01*
X156900333Y-59321611D01*
X156964394Y-59321700D01*
X157264100Y-59321700D01*
X157264100Y-60039658D01*
X157264203Y-60198926D01*
X157264543Y-60334657D01*
X157265163Y-60448716D01*
X157266104Y-60542966D01*
X157267410Y-60619270D01*
X157269125Y-60679493D01*
X157271290Y-60725496D01*
X157273949Y-60759144D01*
X157277146Y-60782300D01*
X157280921Y-60796828D01*
X157281585Y-60798483D01*
X157313353Y-60848705D01*
X157359280Y-60892985D01*
X157407801Y-60921093D01*
X157427877Y-60924030D01*
X157471724Y-60926601D01*
X157539551Y-60928809D01*
X157631568Y-60930657D01*
X157747985Y-60932147D01*
X157889012Y-60933283D01*
X158054858Y-60934067D01*
X158245732Y-60934502D01*
X158407100Y-60934600D01*
X158407100Y-61098234D01*
X158330011Y-61098494D01*
X158178007Y-61099285D01*
X158033596Y-61100337D01*
X157898840Y-61101651D01*
X157775801Y-61103227D01*
X157666541Y-61105067D01*
X157573121Y-61107171D01*
X157497603Y-61109539D01*
X157442050Y-61112172D01*
X157408524Y-61115070D01*
X157400018Y-61116859D01*
X157355616Y-61144775D01*
X157314066Y-61186551D01*
X157282734Y-61233591D01*
X157270123Y-61268424D01*
X157267572Y-61296031D01*
X157265940Y-61343250D01*
X157265320Y-61404306D01*
X157265807Y-61473424D01*
X157266322Y-61501509D01*
X157268068Y-61575041D01*
X157270151Y-61627936D01*
X157273385Y-61664956D01*
X157278580Y-61690857D01*
X157286549Y-61710401D01*
X157298106Y-61728347D01*
X157307075Y-61740296D01*
X157342175Y-61776084D01*
X157384454Y-61806102D01*
X157395975Y-61812004D01*
X157406019Y-61816140D01*
X157417858Y-61819768D01*
X157433131Y-61822920D01*
X157453476Y-61825632D01*
X157480533Y-61827936D01*
X157515940Y-61829866D01*
X157561337Y-61831457D01*
X157618362Y-61832742D01*
X157688654Y-61833754D01*
X157773853Y-61834527D01*
X157875596Y-61835096D01*
X157995523Y-61835494D01*
X158135274Y-61835755D01*
X158296486Y-61835911D01*
X158480798Y-61835999D01*
X158561966Y-61836022D01*
X159675683Y-61836300D01*
X159711316Y-61866913D01*
X159746950Y-61897526D01*
X159753300Y-62144103D01*
X159755593Y-62229166D01*
X159757845Y-62292894D01*
X159760616Y-62339343D01*
X159764466Y-62372571D01*
X159769954Y-62396634D01*
X159777640Y-62415591D01*
X159788083Y-62433498D01*
X159794589Y-62443439D01*
X159843521Y-62497893D01*
X159905630Y-62531990D01*
X159982939Y-62546714D01*
X160008853Y-62547500D01*
X160008853Y-62806886D01*
X159974794Y-62806277D01*
X159919292Y-62803046D01*
X159876714Y-62798271D01*
X159870775Y-62797209D01*
X159816800Y-62786568D01*
X159816800Y-63347600D01*
X159975073Y-63347600D01*
X160048805Y-63348430D01*
X160103767Y-63351428D01*
X160146549Y-63357355D01*
X160183743Y-63366973D01*
X160204083Y-63374067D01*
X160298283Y-63422235D01*
X160379144Y-63489620D01*
X160443298Y-63572503D01*
X160487375Y-63667163D01*
X160495937Y-63696344D01*
X160504489Y-63746064D01*
X160510520Y-63814219D01*
X160514031Y-63894412D01*
X160515028Y-63980249D01*
X160513513Y-64065332D01*
X160509491Y-64143266D01*
X160502965Y-64207654D01*
X160495609Y-64246378D01*
X160481051Y-64293353D01*
X160464437Y-64337022D01*
X160456758Y-64353591D01*
X160417268Y-64411970D01*
X160361574Y-64471005D01*
X160297581Y-64523352D01*
X160233194Y-64561668D01*
X160232374Y-64562049D01*
X160153350Y-64598550D01*
X158773113Y-64598550D01*
X158773113Y-64338201D01*
X160105143Y-64338200D01*
X160147994Y-64309323D01*
X160184981Y-64278089D01*
X160217483Y-64240824D01*
X160219722Y-64237595D01*
X160230203Y-64220655D01*
X160237790Y-64202860D01*
X160242948Y-64179960D01*
X160246143Y-64147706D01*
X160247838Y-64101847D01*
X160248501Y-64038134D01*
X160248600Y-63973742D01*
X160248080Y-63886621D01*
X160246341Y-63821241D01*
X160243115Y-63773962D01*
X160238132Y-63741142D01*
X160231123Y-63719141D01*
X160229563Y-63715926D01*
X160207186Y-63684847D01*
X160174572Y-63652211D01*
X160163911Y-63643532D01*
X160117295Y-63607950D01*
X159833697Y-63603903D01*
X159550100Y-63599855D01*
X159550100Y-62162382D01*
X159519595Y-62110330D01*
X159487694Y-62069640D01*
X159447384Y-62035310D01*
X159438491Y-62029839D01*
X159387891Y-62001400D01*
X158414487Y-62001400D01*
X158228361Y-62001470D01*
X158066039Y-62001697D01*
X157925922Y-62002108D01*
X157806416Y-62002732D01*
X157705923Y-62003596D01*
X157622847Y-62004727D01*
X157555591Y-62006153D01*
X157502560Y-62007901D01*
X157462155Y-62009999D01*
X157432781Y-62012475D01*
X157412841Y-62015355D01*
X157400739Y-62018669D01*
X157400217Y-62018886D01*
X157349995Y-62050654D01*
X157305715Y-62096581D01*
X157277607Y-62145102D01*
X157275071Y-62164449D01*
X157272785Y-62206796D01*
X157270751Y-62269747D01*
X157268968Y-62350904D01*
X157267437Y-62447869D01*
X157266157Y-62558245D01*
X157265128Y-62679633D01*
X157264351Y-62809637D01*
X157263825Y-62945859D01*
X157263550Y-63085900D01*
X157263526Y-63227364D01*
X157263754Y-63367852D01*
X157264234Y-63504967D01*
X157264964Y-63636312D01*
X157265946Y-63759489D01*
X157267179Y-63872099D01*
X157268664Y-63971746D01*
X157270400Y-64056032D01*
X157272387Y-64122559D01*
X157274626Y-64168930D01*
X157277115Y-64192746D01*
X157277607Y-64194499D01*
X157307019Y-64244707D01*
X157351659Y-64290316D01*
X157400217Y-64320715D01*
X157410504Y-64323585D01*
X157428086Y-64326137D01*
X157454321Y-64328387D01*
X157490571Y-64330353D01*
X157538196Y-64332052D01*
X157598558Y-64333501D01*
X157673016Y-64334719D01*
X157762931Y-64335721D01*
X157869664Y-64336527D01*
X157994576Y-64337151D01*
X158139026Y-64337614D01*
X158304376Y-64337930D01*
X158491987Y-64338119D01*
X158703219Y-64338196D01*
X158773113Y-64338201D01*
X158773113Y-64598550D01*
X157384750Y-64598550D01*
X157308550Y-64567962D01*
X157236911Y-64528823D01*
X157165843Y-64471866D01*
X157102150Y-64403895D01*
X157052637Y-64331715D01*
X157034338Y-64293750D01*
X157003750Y-64217550D01*
X157003750Y-62091893D01*
X156862122Y-62089210D01*
X156862122Y-61835258D01*
X156920907Y-61834815D01*
X156967456Y-61833032D01*
X156992983Y-61830426D01*
X157037892Y-61812425D01*
X157084627Y-61778756D01*
X157124368Y-61736811D01*
X157144801Y-61703187D01*
X157151329Y-61674851D01*
X157156383Y-61627012D01*
X157159909Y-61565528D01*
X157161855Y-61496255D01*
X157162167Y-61425050D01*
X157160791Y-61357772D01*
X157157675Y-61300276D01*
X157152764Y-61258421D01*
X157148992Y-61243402D01*
X157122435Y-61197533D01*
X157081481Y-61152681D01*
X157035448Y-61118948D01*
X157032955Y-61117617D01*
X157006328Y-61109094D01*
X156962912Y-61103453D01*
X156899678Y-61100424D01*
X156831675Y-61099700D01*
X156746825Y-61101042D01*
X156682616Y-61106054D01*
X156634384Y-61116216D01*
X156597464Y-61133008D01*
X156567193Y-61157910D01*
X156538905Y-61192403D01*
X156538724Y-61192653D01*
X156502100Y-61243211D01*
X156502099Y-61458462D01*
X156502855Y-61551156D01*
X156505841Y-61622398D01*
X156512140Y-61676110D01*
X156522832Y-61716213D01*
X156538998Y-61746630D01*
X156561718Y-61771283D01*
X156592074Y-61794093D01*
X156595171Y-61796159D01*
X156619104Y-61810736D01*
X156642661Y-61820644D01*
X156671718Y-61826986D01*
X156712150Y-61830865D01*
X156769832Y-61833382D01*
X156798049Y-61834227D01*
X156862122Y-61835258D01*
X156862122Y-62089210D01*
X156794200Y-62087922D01*
X156715355Y-62086183D01*
X156656902Y-62083958D01*
X156613834Y-62080573D01*
X156581142Y-62075354D01*
X156553820Y-62067630D01*
X156526860Y-62056727D01*
X156512304Y-62050039D01*
X156426653Y-61996507D01*
X156351844Y-61922928D01*
X156292280Y-61833828D01*
X156282064Y-61813450D01*
X156267561Y-61782111D01*
X156256950Y-61755290D01*
X156249527Y-61728127D01*
X156244589Y-61695763D01*
X156241433Y-61653337D01*
X156239355Y-61595992D01*
X156237651Y-61518868D01*
X156237373Y-61504748D01*
X156236639Y-61395118D01*
X156239687Y-61306360D01*
X156247254Y-61234128D01*
X156260081Y-61174077D01*
X156278906Y-61121860D01*
X156304468Y-61073133D01*
X156313141Y-61059199D01*
X156372636Y-60982648D01*
X156443147Y-60923002D01*
X156526928Y-60879355D01*
X156626237Y-60850799D01*
X156743328Y-60836429D01*
X156871057Y-60835028D01*
X157013209Y-60839350D01*
X157005394Y-60756800D01*
X157003712Y-60726360D01*
X157002149Y-60673681D01*
X157000747Y-60601922D01*
X156999544Y-60514246D01*
X156998582Y-60413811D01*
X156997900Y-60303779D01*
X156997538Y-60187311D01*
X156997490Y-60132870D01*
X156997400Y-59591489D01*
X156803725Y-59585292D01*
X156717868Y-59581717D01*
X156652734Y-59576883D01*
X156603654Y-59570242D01*
X156565963Y-59561247D01*
X156549270Y-59555440D01*
X156456297Y-59506153D01*
X156375265Y-59437214D01*
X156310022Y-59352972D01*
X156264417Y-59257780D01*
X156253331Y-59220814D01*
X156245247Y-59182355D01*
X156239832Y-59138988D01*
X156236829Y-59085781D01*
X156235977Y-59017800D01*
X156237018Y-58930114D01*
G37*
X156237018Y-58930114D02*
X156237309Y-58915543D01*
X156239093Y-58835108D01*
X156241091Y-58775243D01*
X156244027Y-58731124D01*
X156248624Y-58697927D01*
X156255605Y-58670826D01*
X156265693Y-58644999D01*
X156279611Y-58615619D01*
X156283431Y-58607850D01*
X156336908Y-58523495D01*
X156407090Y-58449264D01*
X156487753Y-58391070D01*
X156537067Y-58366922D01*
X156610050Y-58337450D01*
X159443467Y-58337450D01*
X159540547Y-58385430D01*
X159635684Y-58444795D01*
X159710113Y-58518804D01*
X159764156Y-58607900D01*
X159798137Y-58712525D01*
X159804420Y-58746704D01*
X159807348Y-58779777D01*
X159809805Y-58838145D01*
X159811790Y-58921711D01*
X159813301Y-59030374D01*
X159814339Y-59164036D01*
X159814901Y-59322597D01*
X159814987Y-59505958D01*
X159814597Y-59714019D01*
X159814205Y-59831923D01*
X159810450Y-60829866D01*
X159969200Y-60836146D01*
X160048612Y-60840483D01*
X160109222Y-60846943D01*
X160157604Y-60856500D01*
X160200329Y-60870126D01*
X160201414Y-60870540D01*
X160273775Y-60908556D01*
X160345315Y-60964224D01*
X160408596Y-61030673D01*
X160456177Y-61101032D01*
X160460840Y-61110145D01*
X160496250Y-61182250D01*
X160496250Y-62464950D01*
X160460592Y-62537564D01*
X160401195Y-62630312D01*
X160322861Y-62707341D01*
X160228616Y-62765693D01*
X160226152Y-62766855D01*
X160178213Y-62787620D01*
X160137564Y-62799782D01*
X160093448Y-62805592D01*
X160035108Y-62807300D01*
X160032797Y-62807313D01*
X160008853Y-62806886D01*
X160008853Y-62547500D01*
X160090016Y-62537613D01*
X160155424Y-62508113D01*
X160204637Y-62459241D01*
X160221693Y-62430367D01*
X160228187Y-62416494D01*
X160233542Y-62401922D01*
X160237867Y-62384190D01*
X160241273Y-62360839D01*
X160243869Y-62329408D01*
X160245765Y-62287437D01*
X160247071Y-62232465D01*
X160247897Y-62162033D01*
X160248352Y-62073680D01*
X160248546Y-61964946D01*
X160248589Y-61833370D01*
X160248589Y-61827602D01*
X160248263Y-61674801D01*
X160247288Y-61543984D01*
X160245679Y-61435766D01*
X160243449Y-61350762D01*
X160240614Y-61289589D01*
X160237186Y-61252860D01*
X160235092Y-61243402D01*
X160208535Y-61197533D01*
X160167581Y-61152681D01*
X160121548Y-61118948D01*
X160119055Y-61117617D01*
X160100597Y-61114555D01*
X160058801Y-61111745D01*
X159995731Y-61109190D01*
X159913448Y-61106888D01*
X159814014Y-61104840D01*
X159699491Y-61103048D01*
X159571942Y-61101512D01*
X159433427Y-61100231D01*
X159286009Y-61099208D01*
X159131751Y-61098442D01*
X158972713Y-61097934D01*
X158810958Y-61097685D01*
X158648548Y-61097695D01*
X158487545Y-61097964D01*
X158407100Y-61098234D01*
X158407100Y-60934600D01*
X158617072Y-60934428D01*
X158801857Y-60933909D01*
X158961664Y-60933040D01*
X159096702Y-60931818D01*
X159207182Y-60930242D01*
X159293313Y-60928307D01*
X159355304Y-60926011D01*
X159393366Y-60923351D01*
X159406398Y-60921093D01*
X159455237Y-60892646D01*
X159500536Y-60849486D01*
X159532034Y-60801395D01*
X159532099Y-60801250D01*
X159535325Y-60789751D01*
X159538143Y-60769636D01*
X159540581Y-60739377D01*
X159542662Y-60697446D01*
X159544414Y-60642313D01*
X159545862Y-60572451D01*
X159547031Y-60486330D01*
X159547948Y-60382421D01*
X159548638Y-60259196D01*
X159549127Y-60115126D01*
X159549440Y-59948682D01*
X159549602Y-59762520D01*
X159549677Y-59579449D01*
X159549679Y-59420044D01*
X159549568Y-59282568D01*
X159549302Y-59165288D01*
X159548843Y-59066468D01*
X159548148Y-58984374D01*
X159547177Y-58917270D01*
X159545890Y-58863422D01*
X159544245Y-58821094D01*
X159542203Y-58788552D01*
X159539722Y-58764060D01*
X159536762Y-58745885D01*
X159533281Y-58732290D01*
X159529240Y-58721542D01*
X159524987Y-58712664D01*
X159498296Y-58673105D01*
X159464681Y-58638676D01*
X159458312Y-58633795D01*
X159416750Y-58604150D01*
X158031397Y-58600811D01*
X156646045Y-58597471D01*
X156602949Y-58626513D01*
X156566178Y-58657585D01*
X156533302Y-58695121D01*
X156530209Y-58699546D01*
X156519557Y-58716400D01*
X156511907Y-58733307D01*
X156506853Y-58754484D01*
X156503990Y-58784151D01*
X156502913Y-58826525D01*
X156503216Y-58885823D01*
X156504494Y-58966265D01*
X156504506Y-58966976D01*
X156506041Y-59047384D01*
X156507781Y-59106609D01*
X156510327Y-59148864D01*
X156514278Y-59178363D01*
X156520233Y-59199319D01*
X156528791Y-59215946D01*
X156540553Y-59232458D01*
X156542658Y-59235221D01*
X156563422Y-59260732D01*
X156584379Y-59280676D01*
X156608853Y-59295734D01*
X156640169Y-59306590D01*
X156681650Y-59313924D01*
X156736622Y-59318417D01*
X156808408Y-59320752D01*
X156900333Y-59321611D01*
X156964394Y-59321700D01*
X157264100Y-59321700D01*
X157264100Y-60039658D01*
X157264203Y-60198926D01*
X157264543Y-60334657D01*
X157265163Y-60448716D01*
X157266104Y-60542966D01*
X157267410Y-60619270D01*
X157269125Y-60679493D01*
X157271290Y-60725496D01*
X157273949Y-60759144D01*
X157277146Y-60782300D01*
X157280921Y-60796828D01*
X157281585Y-60798483D01*
X157313353Y-60848705D01*
X157359280Y-60892985D01*
X157407801Y-60921093D01*
X157427877Y-60924030D01*
X157471724Y-60926601D01*
X157539551Y-60928809D01*
X157631568Y-60930657D01*
X157747985Y-60932147D01*
X157889012Y-60933283D01*
X158054858Y-60934067D01*
X158245732Y-60934502D01*
X158407100Y-60934600D01*
X158407100Y-61098234D01*
X158330011Y-61098494D01*
X158178007Y-61099285D01*
X158033596Y-61100337D01*
X157898840Y-61101651D01*
X157775801Y-61103227D01*
X157666541Y-61105067D01*
X157573121Y-61107171D01*
X157497603Y-61109539D01*
X157442050Y-61112172D01*
X157408524Y-61115070D01*
X157400018Y-61116859D01*
X157355616Y-61144775D01*
X157314066Y-61186551D01*
X157282734Y-61233591D01*
X157270123Y-61268424D01*
X157267572Y-61296031D01*
X157265940Y-61343250D01*
X157265320Y-61404306D01*
X157265807Y-61473424D01*
X157266322Y-61501509D01*
X157268068Y-61575041D01*
X157270151Y-61627936D01*
X157273385Y-61664956D01*
X157278580Y-61690857D01*
X157286549Y-61710401D01*
X157298106Y-61728347D01*
X157307075Y-61740296D01*
X157342175Y-61776084D01*
X157384454Y-61806102D01*
X157395975Y-61812004D01*
X157406019Y-61816140D01*
X157417858Y-61819768D01*
X157433131Y-61822920D01*
X157453476Y-61825632D01*
X157480533Y-61827936D01*
X157515940Y-61829866D01*
X157561337Y-61831457D01*
X157618362Y-61832742D01*
X157688654Y-61833754D01*
X157773853Y-61834527D01*
X157875596Y-61835096D01*
X157995523Y-61835494D01*
X158135274Y-61835755D01*
X158296486Y-61835911D01*
X158480798Y-61835999D01*
X158561966Y-61836022D01*
X159675683Y-61836300D01*
X159711316Y-61866913D01*
X159746950Y-61897526D01*
X159753300Y-62144103D01*
X159755593Y-62229166D01*
X159757845Y-62292894D01*
X159760616Y-62339343D01*
X159764466Y-62372571D01*
X159769954Y-62396634D01*
X159777640Y-62415591D01*
X159788083Y-62433498D01*
X159794589Y-62443439D01*
X159843521Y-62497893D01*
X159905630Y-62531990D01*
X159982939Y-62546714D01*
X160008853Y-62547500D01*
X160008853Y-62806886D01*
X159974794Y-62806277D01*
X159919292Y-62803046D01*
X159876714Y-62798271D01*
X159870775Y-62797209D01*
X159816800Y-62786568D01*
X159816800Y-63347600D01*
X159975073Y-63347600D01*
X160048805Y-63348430D01*
X160103767Y-63351428D01*
X160146549Y-63357355D01*
X160183743Y-63366973D01*
X160204083Y-63374067D01*
X160298283Y-63422235D01*
X160379144Y-63489620D01*
X160443298Y-63572503D01*
X160487375Y-63667163D01*
X160495937Y-63696344D01*
X160504489Y-63746064D01*
X160510520Y-63814219D01*
X160514031Y-63894412D01*
X160515028Y-63980249D01*
X160513513Y-64065332D01*
X160509491Y-64143266D01*
X160502965Y-64207654D01*
X160495609Y-64246378D01*
X160481051Y-64293353D01*
X160464437Y-64337022D01*
X160456758Y-64353591D01*
X160417268Y-64411970D01*
X160361574Y-64471005D01*
X160297581Y-64523352D01*
X160233194Y-64561668D01*
X160232374Y-64562049D01*
X160153350Y-64598550D01*
X158773113Y-64598550D01*
X158773113Y-64338201D01*
X160105143Y-64338200D01*
X160147994Y-64309323D01*
X160184981Y-64278089D01*
X160217483Y-64240824D01*
X160219722Y-64237595D01*
X160230203Y-64220655D01*
X160237790Y-64202860D01*
X160242948Y-64179960D01*
X160246143Y-64147706D01*
X160247838Y-64101847D01*
X160248501Y-64038134D01*
X160248600Y-63973742D01*
X160248080Y-63886621D01*
X160246341Y-63821241D01*
X160243115Y-63773962D01*
X160238132Y-63741142D01*
X160231123Y-63719141D01*
X160229563Y-63715926D01*
X160207186Y-63684847D01*
X160174572Y-63652211D01*
X160163911Y-63643532D01*
X160117295Y-63607950D01*
X159833697Y-63603903D01*
X159550100Y-63599855D01*
X159550100Y-62162382D01*
X159519595Y-62110330D01*
X159487694Y-62069640D01*
X159447384Y-62035310D01*
X159438491Y-62029839D01*
X159387891Y-62001400D01*
X158414487Y-62001400D01*
X158228361Y-62001470D01*
X158066039Y-62001697D01*
X157925922Y-62002108D01*
X157806416Y-62002732D01*
X157705923Y-62003596D01*
X157622847Y-62004727D01*
X157555591Y-62006153D01*
X157502560Y-62007901D01*
X157462155Y-62009999D01*
X157432781Y-62012475D01*
X157412841Y-62015355D01*
X157400739Y-62018669D01*
X157400217Y-62018886D01*
X157349995Y-62050654D01*
X157305715Y-62096581D01*
X157277607Y-62145102D01*
X157275071Y-62164449D01*
X157272785Y-62206796D01*
X157270751Y-62269747D01*
X157268968Y-62350904D01*
X157267437Y-62447869D01*
X157266157Y-62558245D01*
X157265128Y-62679633D01*
X157264351Y-62809637D01*
X157263825Y-62945859D01*
X157263550Y-63085900D01*
X157263526Y-63227364D01*
X157263754Y-63367852D01*
X157264234Y-63504967D01*
X157264964Y-63636312D01*
X157265946Y-63759489D01*
X157267179Y-63872099D01*
X157268664Y-63971746D01*
X157270400Y-64056032D01*
X157272387Y-64122559D01*
X157274626Y-64168930D01*
X157277115Y-64192746D01*
X157277607Y-64194499D01*
X157307019Y-64244707D01*
X157351659Y-64290316D01*
X157400217Y-64320715D01*
X157410504Y-64323585D01*
X157428086Y-64326137D01*
X157454321Y-64328387D01*
X157490571Y-64330353D01*
X157538196Y-64332052D01*
X157598558Y-64333501D01*
X157673016Y-64334719D01*
X157762931Y-64335721D01*
X157869664Y-64336527D01*
X157994576Y-64337151D01*
X158139026Y-64337614D01*
X158304376Y-64337930D01*
X158491987Y-64338119D01*
X158703219Y-64338196D01*
X158773113Y-64338201D01*
X158773113Y-64598550D01*
X157384750Y-64598550D01*
X157308550Y-64567962D01*
X157236911Y-64528823D01*
X157165843Y-64471866D01*
X157102150Y-64403895D01*
X157052637Y-64331715D01*
X157034338Y-64293750D01*
X157003750Y-64217550D01*
X157003750Y-62091893D01*
X156862122Y-62089210D01*
X156862122Y-61835258D01*
X156920907Y-61834815D01*
X156967456Y-61833032D01*
X156992983Y-61830426D01*
X157037892Y-61812425D01*
X157084627Y-61778756D01*
X157124368Y-61736811D01*
X157144801Y-61703187D01*
X157151329Y-61674851D01*
X157156383Y-61627012D01*
X157159909Y-61565528D01*
X157161855Y-61496255D01*
X157162167Y-61425050D01*
X157160791Y-61357772D01*
X157157675Y-61300276D01*
X157152764Y-61258421D01*
X157148992Y-61243402D01*
X157122435Y-61197533D01*
X157081481Y-61152681D01*
X157035448Y-61118948D01*
X157032955Y-61117617D01*
X157006328Y-61109094D01*
X156962912Y-61103453D01*
X156899678Y-61100424D01*
X156831675Y-61099700D01*
X156746825Y-61101042D01*
X156682616Y-61106054D01*
X156634384Y-61116216D01*
X156597464Y-61133008D01*
X156567193Y-61157910D01*
X156538905Y-61192403D01*
X156538724Y-61192653D01*
X156502100Y-61243211D01*
X156502099Y-61458462D01*
X156502855Y-61551156D01*
X156505841Y-61622398D01*
X156512140Y-61676110D01*
X156522832Y-61716213D01*
X156538998Y-61746630D01*
X156561718Y-61771283D01*
X156592074Y-61794093D01*
X156595171Y-61796159D01*
X156619104Y-61810736D01*
X156642661Y-61820644D01*
X156671718Y-61826986D01*
X156712150Y-61830865D01*
X156769832Y-61833382D01*
X156798049Y-61834227D01*
X156862122Y-61835258D01*
X156862122Y-62089210D01*
X156794200Y-62087922D01*
X156715355Y-62086183D01*
X156656902Y-62083958D01*
X156613834Y-62080573D01*
X156581142Y-62075354D01*
X156553820Y-62067630D01*
X156526860Y-62056727D01*
X156512304Y-62050039D01*
X156426653Y-61996507D01*
X156351844Y-61922928D01*
X156292280Y-61833828D01*
X156282064Y-61813450D01*
X156267561Y-61782111D01*
X156256950Y-61755290D01*
X156249527Y-61728127D01*
X156244589Y-61695763D01*
X156241433Y-61653337D01*
X156239355Y-61595992D01*
X156237651Y-61518868D01*
X156237373Y-61504748D01*
X156236639Y-61395118D01*
X156239687Y-61306360D01*
X156247254Y-61234128D01*
X156260081Y-61174077D01*
X156278906Y-61121860D01*
X156304468Y-61073133D01*
X156313141Y-61059199D01*
X156372636Y-60982648D01*
X156443147Y-60923002D01*
X156526928Y-60879355D01*
X156626237Y-60850799D01*
X156743328Y-60836429D01*
X156871057Y-60835028D01*
X157013209Y-60839350D01*
X157005394Y-60756800D01*
X157003712Y-60726360D01*
X157002149Y-60673681D01*
X157000747Y-60601922D01*
X156999544Y-60514246D01*
X156998582Y-60413811D01*
X156997900Y-60303779D01*
X156997538Y-60187311D01*
X156997490Y-60132870D01*
X156997400Y-59591489D01*
X156803725Y-59585292D01*
X156717868Y-59581717D01*
X156652734Y-59576883D01*
X156603654Y-59570242D01*
X156565963Y-59561247D01*
X156549270Y-59555440D01*
X156456297Y-59506153D01*
X156375265Y-59437214D01*
X156310022Y-59352972D01*
X156264417Y-59257780D01*
X156253331Y-59220814D01*
X156245247Y-59182355D01*
X156239832Y-59138988D01*
X156236829Y-59085781D01*
X156235977Y-59017800D01*
X156237018Y-58930114D01*
D10*
X159064000Y-79435000D02*
X157734000Y-79435000D01*
X159064000Y-78105000D02*
X159064000Y-79435000D01*
X159064000Y-76835000D02*
X156404000Y-76835000D01*
X156404000Y-76835000D02*
X156404000Y-66615000D01*
X159064000Y-76835000D02*
X159064000Y-66615000D01*
X159064000Y-66615000D02*
X156404000Y-66615000D01*
X169595000Y-79554000D02*
X171410000Y-79554000D01*
X169595000Y-79799000D02*
X169595000Y-79554000D01*
X165735000Y-79799000D02*
X169595000Y-79799000D01*
X161875000Y-79799000D02*
X161875000Y-79554000D01*
X165735000Y-79799000D02*
X161875000Y-79799000D01*
X169595000Y-68029000D02*
X169595000Y-68274000D01*
X165735000Y-68029000D02*
X169595000Y-68029000D01*
X161875000Y-68029000D02*
X161875000Y-68274000D01*
X165735000Y-68029000D02*
X161875000Y-68029000D01*
X184656252Y-78157000D02*
X184133748Y-78157000D01*
X184656252Y-79577000D02*
X184133748Y-79577000D01*
X184133748Y-75513000D02*
X184656252Y-75513000D01*
X184133748Y-74093000D02*
X184656252Y-74093000D01*
X184133748Y-71449000D02*
X184656252Y-71449000D01*
X184133748Y-70029000D02*
X184656252Y-70029000D01*
X184142748Y-69163000D02*
X184665252Y-69163000D01*
X184142748Y-67743000D02*
X184665252Y-67743000D01*
X186130000Y-65276252D02*
X186130000Y-64753748D01*
X184710000Y-65276252D02*
X184710000Y-64753748D01*
X184133748Y-73481000D02*
X184656252Y-73481000D01*
X184133748Y-72061000D02*
X184656252Y-72061000D01*
X194400000Y-80505000D02*
X194400000Y-79005000D01*
X192660000Y-80505000D02*
X194400000Y-80505000D01*
X187040000Y-58445000D02*
X194160000Y-58445000D01*
X187040000Y-80265000D02*
X194160000Y-80265000D01*
X194160000Y-80265000D02*
X194160000Y-58445000D01*
X187040000Y-80265000D02*
X187040000Y-58445000D01*
X192600000Y-80265000D02*
X192600000Y-58445000D01*
X192055000Y-60605000D02*
G75*
G03X192055000Y-60605000I-1555000J0D01*
G01*
X192055000Y-64105000D02*
G75*
G03X192055000Y-64105000I-1555000J0D01*
G01*
X192055000Y-67605000D02*
G75*
G03X192055000Y-67605000I-1555000J0D01*
G01*
X192055000Y-71105000D02*
G75*
G03X192055000Y-71105000I-1555000J0D01*
G01*
X192055000Y-74605000D02*
G75*
G03X192055000Y-74605000I-1555000J0D01*
G01*
X192055492Y-78077989D02*
G75*
G02X191932000Y-78713000I-1555492J-27011D01*
G01*
X191107742Y-79537109D02*
G75*
G02X189892000Y-79537000I-607742J1432109D01*
G01*
X189067891Y-78712742D02*
G75*
G02X189068000Y-77497000I1432109J607742D01*
G01*
X189892258Y-76672891D02*
G75*
G02X191108000Y-76673000I607742J-1432109D01*
G01*
X191931385Y-77497413D02*
G75*
G02X192055000Y-78105000I-1431385J-607587D01*
G01*
X186255000Y-75875000D02*
X183395000Y-75875000D01*
X186255000Y-77795000D02*
X186255000Y-75875000D01*
X183395000Y-77795000D02*
X186255000Y-77795000D01*
X172688000Y-64345000D02*
X173188000Y-64345000D01*
X172938000Y-64595000D02*
X172938000Y-64095000D01*
X175693563Y-63855000D02*
X176758000Y-62790563D01*
X173302437Y-63855000D02*
X172238000Y-62790563D01*
X173302437Y-63855000D02*
X173438000Y-63855000D01*
X175693563Y-63855000D02*
X175558000Y-63855000D01*
X176758000Y-62790563D02*
X176758000Y-59335000D01*
X172238000Y-62790563D02*
X172238000Y-59335000D01*
X172238000Y-59335000D02*
X173438000Y-59335000D01*
X176758000Y-59335000D02*
X175558000Y-59335000D01*
X162416748Y-65226000D02*
X162939252Y-65226000D01*
X162416748Y-63806000D02*
X162939252Y-63806000D01*
X168512748Y-65226000D02*
X169035252Y-65226000D01*
X168512748Y-63806000D02*
X169035252Y-63806000D01*
X186130000Y-61339252D02*
X186130000Y-60816748D01*
X184710000Y-61339252D02*
X184710000Y-60816748D01*
X175258000Y-75621000D02*
X173798000Y-75621000D01*
X175258000Y-72461000D02*
X173098000Y-72461000D01*
X175258000Y-72461000D02*
X175258000Y-73391000D01*
X175258000Y-75621000D02*
X175258000Y-74691000D01*
X179195000Y-75621000D02*
X179195000Y-74691000D01*
X179195000Y-72461000D02*
X179195000Y-73391000D01*
X179195000Y-72461000D02*
X177035000Y-72461000D01*
X179195000Y-75621000D02*
X177735000Y-75621000D01*
X170172748Y-67258000D02*
X170695252Y-67258000D01*
X170172748Y-65838000D02*
X170695252Y-65838000D01*
X174354748Y-71703000D02*
X174877252Y-71703000D01*
X174354748Y-70283000D02*
X174877252Y-70283000D01*
X178632752Y-76379000D02*
X178110248Y-76379000D01*
X178632752Y-77799000D02*
X178110248Y-77799000D01*
X180465252Y-69290000D02*
X179942748Y-69290000D01*
X180465252Y-67870000D02*
X179942748Y-67870000D01*
X174354748Y-65431600D02*
X174877252Y-65431600D01*
X174354748Y-66851600D02*
X174877252Y-66851600D01*
X173616000Y-80081000D02*
X176476000Y-80081000D01*
X176476000Y-80081000D02*
X176476000Y-78161000D01*
X176476000Y-78161000D02*
X173616000Y-78161000D01*
X178110248Y-78347500D02*
X178632752Y-78347500D01*
X178110248Y-79767500D02*
X178632752Y-79767500D01*
X182356000Y-76680000D02*
X182356000Y-72380000D01*
X182356000Y-72380000D02*
X180356000Y-72380000D01*
X180356000Y-72380000D02*
X180356000Y-76680000D01*
D12*
X164914400Y-57684180D02*
X164581066Y-57207990D01*
X164342971Y-57684180D02*
X164342971Y-56684180D01*
X164723923Y-56684180D01*
X164819161Y-56731800D01*
X164866780Y-56779419D01*
X164914400Y-56874657D01*
X164914400Y-57017514D01*
X164866780Y-57112752D01*
X164819161Y-57160371D01*
X164723923Y-57207990D01*
X164342971Y-57207990D01*
X165723923Y-57636561D02*
X165628685Y-57684180D01*
X165438209Y-57684180D01*
X165342971Y-57636561D01*
X165295352Y-57541323D01*
X165295352Y-57160371D01*
X165342971Y-57065133D01*
X165438209Y-57017514D01*
X165628685Y-57017514D01*
X165723923Y-57065133D01*
X165771542Y-57160371D01*
X165771542Y-57255609D01*
X165295352Y-57350847D01*
X166104876Y-57017514D02*
X166628685Y-57017514D01*
X166104876Y-57684180D01*
X166628685Y-57684180D01*
X167533447Y-57684180D02*
X166962019Y-57684180D01*
X167247733Y-57684180D02*
X167247733Y-56684180D01*
X167152495Y-56827038D01*
X167057257Y-56922276D01*
X166962019Y-56969895D01*
X156162619Y-65857380D02*
X156162619Y-64857380D01*
X157210238Y-65762142D02*
X157162619Y-65809761D01*
X157019761Y-65857380D01*
X156924523Y-65857380D01*
X156781666Y-65809761D01*
X156686428Y-65714523D01*
X156638809Y-65619285D01*
X156591190Y-65428809D01*
X156591190Y-65285952D01*
X156638809Y-65095476D01*
X156686428Y-65000238D01*
X156781666Y-64905000D01*
X156924523Y-64857380D01*
X157019761Y-64857380D01*
X157162619Y-64905000D01*
X157210238Y-64952619D01*
X157591190Y-65809761D02*
X157734047Y-65857380D01*
X157972142Y-65857380D01*
X158067380Y-65809761D01*
X158115000Y-65762142D01*
X158162619Y-65666904D01*
X158162619Y-65571666D01*
X158115000Y-65476428D01*
X158067380Y-65428809D01*
X157972142Y-65381190D01*
X157781666Y-65333571D01*
X157686428Y-65285952D01*
X157638809Y-65238333D01*
X157591190Y-65143095D01*
X157591190Y-65047857D01*
X157638809Y-64952619D01*
X157686428Y-64905000D01*
X157781666Y-64857380D01*
X158019761Y-64857380D01*
X158162619Y-64905000D01*
X158591190Y-65857380D02*
X158591190Y-64857380D01*
X158972142Y-64857380D01*
X159067380Y-64905000D01*
X159115000Y-64952619D01*
X159162619Y-65047857D01*
X159162619Y-65190714D01*
X159115000Y-65285952D01*
X159067380Y-65333571D01*
X158972142Y-65381190D01*
X158591190Y-65381190D01*
X160115000Y-65857380D02*
X159543571Y-65857380D01*
X159829285Y-65857380D02*
X159829285Y-64857380D01*
X159734047Y-65000238D01*
X159638809Y-65095476D01*
X159543571Y-65143095D01*
X165100095Y-78446380D02*
X165100095Y-79255904D01*
X165147714Y-79351142D01*
X165195333Y-79398761D01*
X165290571Y-79446380D01*
X165481047Y-79446380D01*
X165576285Y-79398761D01*
X165623904Y-79351142D01*
X165671523Y-79255904D01*
X165671523Y-78446380D01*
X166671523Y-79446380D02*
X166100095Y-79446380D01*
X166385809Y-79446380D02*
X166385809Y-78446380D01*
X166290571Y-78589238D01*
X166195333Y-78684476D01*
X166100095Y-78732095D01*
M02*
